<svg xmlns="http://www.w3.org/2000/svg" width="300" height="300" viewBox="0 0 300 300">
<g>
<path d="M 95.62,65.79 L 95.69,65.95 L 95.83,66.59 L 96.10,68.00 L 96.23,68.76 L 96.45,70.92 L 96.55,72.09 L 96.64,73.80 L 95.50,91.50 L 95.32,77.00 L 95.30,75.50 L 95.28,72.98 L 95.27,71.79 L 95.27,69.89 L 95.27,69.00 L 95.29,67.67 L 95.31,67.08 L 95.36,66.29 L 95.39,65.96 L 95.47,65.68 L 95.51,65.60 M 96.70,74.82 L 96.78,83.50 L 96.50,93.50 L 96.66,74.07 Z" fill="rgba(158,158,158,1)"/>
<path d="M 137.49,130.45 L 138.24,130.98 L 138.97,131.46 L 139.29,131.62 L 139.90,131.87 L 140.12,131.88 L 140.26,131.73 L 140.17,131.45 L 140.04,131.24 L 139.73,130.76 L 139.49,130.45 L 138.96,129.79 L 138.63,129.39 L 138.62,129.38 L 140.18,131.00 L 148.83,131.00 L 150.77,131.07 L 151.66,131.11 L 152.99,131.26 L 153.58,131.35 L 154.26,131.58 L 154.50,132.00 L 154.42,132.14 L 153.69,132.38 L 153.25,132.50 L 151.95,132.69 L 151.24,132.78 L 149.53,132.89 L 146.69,132.95 L 145.82,132.94 L 144.36,132.92 L 143.68,132.90 L 142.55,132.84 L 141.49,132.77 L 140.02,132.40 L 139.35,132.16 L 138.21,131.29 L 137.62,130.78 L 136.20,129.20 L 136.04,129.02 M 135.83,128.79 L 135.85,128.82 L 135.71,128.67 M 126.73,97.39 L 122.34,97.27 L 121.01,97.24 L 118.55,97.19 L 117.36,97.16 L 115.23,97.13 L 114.21,97.12 L 112.46,97.11 L 111.64,97.11 L 110.35,97.12 L 109.76,97.13 L 108.97,97.16 L 108.43,97.23 L 108.40,97.26 L 108.67,97.66 L 108.86,97.92 L 109.53,98.72 L 109.91,99.17 L 110.94,100.34 L 111.50,100.96 L 112.85,102.44 L 113.55,103.22 L 115.18,104.97 L 116.02,105.87 L 117.87,107.84 L 124.08,114.34 L 130.75,121.24 L 128.65,119.15 L 125.60,116.06 L 124.06,114.47 L 120.97,111.27 L 119.55,109.77 L 116.80,106.85 L 115.69,105.63 L 107.57,96.76 M 154.35,94.16 L 154.48,94.65 L 154.68,96.35 L 154.77,97.30 L 154.89,99.69 L 154.94,100.95 L 154.99,103.74 L 155.00,105.16 L 154.98,108.05 L 154.96,109.48 L 154.87,112.17 L 154.82,113.47 L 154.67,115.67 L 154.58,116.68 L 154.37,118.09 L 154.32,118.38 L 154.20,118.76 L 154.00,119.00 L 153.85,119.00 L 153.59,118.26 L 153.47,117.77 L 153.27,116.16 L 153.19,115.25 L 153.07,112.88 L 153.00,108.63 L 153.00,98.25 L 134.30,97.63 L 134.66,97.64 L 137.23,97.72 L 138.40,97.75 L 140.65,97.81 L 141.66,97.83 L 143.60,97.87 L 144.47,97.87 L 146.12,97.88 L 146.85,97.88 L 148.25,97.85 L 148.85,97.83 L 151.03,97.70 L 151.80,97.58 L 153.14,97.30 L 153.56,97.10 L 154.24,96.64 L 154.39,96.33 L 154.57,95.66 L 154.53,95.24 L 154.38,94.34 L 154.24,93.80 L 153.99,93.16 L 153.72,92.82 L 153.47,92.68 L 152.87,92.44 L 152.40,92.35 L 151.31,92.19 L 150.53,92.13 L 148.79,92.04 L 147.61,92.02 L 145.04,92.00 L 143.38,92.00 L 141.65,92.01 L 140.69,92.02 L 138.69,92.04 L 137.58,92.05 L 135.28,92.08 L 134.01,92.10 L 131.39,92.14 L 153.72,91.81 M 121.22,53.22 L 142.48,53.50 L 144.19,57.00 L 145.58,60.50 L 146.35,63.04 L 145.58,60.50 L 144.19,57.00 L 143.79,56.18 L 143.13,55.07 L 142.80,54.59 L 142.03,54.03 L 141.60,53.80 L 140.40,53.60 L 137.74,53.54 L 137.41,53.54 L 136.45,53.55 L 135.92,53.56 L 134.60,53.57 L 133.90,53.58 L 132.27,53.60 L 131.42,53.61 L 129.55,53.63 L 127.62,53.65 L 123.28,53.71 L 116.50,53.79 L 100.00,54.00 L 100.00,95.48 L 119.25,114.75 L 100.24,95.76 L 80.37,95.91 L 72.40,96.01 L 67.48,96.12 L 65.38,96.19 L 63.36,96.25 L 62.47,96.29 L 60.99,96.36 L 61.30,96.33 L 62.01,96.29 L 63.66,96.18 L 64.53,96.13 L 66.47,96.03 L 68.46,95.92 L 73.02,95.71 L 80.25,95.42 L 98.00,94.79 L 98.00,55.21 L 98.05,55.28 L 98.06,55.70 L 98.14,56.48 L 98.23,56.71 L 98.30,56.67 L 98.47,56.50 L 98.59,56.26 L 98.86,55.67 L 99.04,55.22 L 99.96,52.93 M 62.13,93.41 L 62.36,93.51 L 62.93,93.69 L 63.34,93.76 L 65.27,94.00 L 62.00,94.05 L 62.03,93.24 M 96.50,93.50 L 79.25,93.77 L 67.76,93.96 L 68.45,93.93 L 69.42,93.82 L 69.75,93.73 L 70.32,93.53 L 70.44,93.40 L 70.58,93.13 L 70.48,92.96 L 69.90,92.58 L 69.26,92.39 L 68.84,92.33 L 66.98,92.15 L 65.96,92.18 L 63.96,92.31 L 63.22,92.48 L 62.55,92.67 L 62.33,92.79 L 62.03,93.02 L 62.07,91.77 L 62.09,91.15 L 62.40,89.58 L 63.08,87.50 L 63.27,87.09 L 63.53,86.64 L 63.64,86.48 L 63.77,86.53 L 63.81,86.63 L 63.81,87.23 L 63.68,88.77 L 63.34,92.05 L 79.42,91.77 L 95.50,91.50 L 96.66,73.50 M 53.37,89.32 L 53.49,89.53 L 53.70,90.19 L 54.00,93.06 L 54.00,93.11 L 53.70,90.21 L 53.49,89.53 L 53.37,89.32 L 53.11,89.00 M 79.76,55.12 L 81.20,55.14 L 83.65,55.25 L 84.80,55.31 L 86.63,55.46 L 87.47,55.54 L 88.66,55.73 L 89.18,55.83 L 89.69,56.03 L 89.86,56.13 L 89.67,56.32 L 89.48,56.41 L 88.54,56.58 L 87.98,56.66 L 86.26,56.78 L 82.78,56.88 L 73.06,57.00 L 71.46,62.50 L 71.24,63.24 L 70.84,64.51 L 70.64,65.11 L 70.27,66.09 L 70.10,66.54 L 69.79,67.21 L 69.65,67.50 L 69.42,67.84 L 69.32,67.96 L 69.19,67.95 L 69.13,67.90 L 69.11,67.51 L 69.11,67.27 L 69.22,66.49 L 69.29,66.05 L 69.53,64.86 L 69.72,63.99 L 70.43,61.65 L 71.62,58.36 L 73.03,55.00 Z" fill="rgba(209,209,209,1)"/>
<path d="M 218.83,209.03 L 220.26,209.20 L 224.17,209.50 L 227.54,218.22 L 228.00,219.42 L 229.09,222.16 L 229.64,223.55 L 230.81,226.42 L 231.39,227.84 L 232.50,230.51 L 233.95,233.89 L 234.44,234.99 L 235.22,236.85 L 235.58,237.73 L 236.13,239.19 L 236.37,239.87 L 236.68,240.96 L 236.80,241.47 L 236.87,242.25 L 236.88,242.60 L 236.71,243.12 L 236.59,243.35 L 236.18,243.66 L 235.95,243.79 L 235.30,243.93 L 234.07,244.00 L 233.28,244.00 L 231.85,243.66 L 231.17,243.44 L 229.98,242.69 L 229.42,242.26 L 228.51,241.12 L 227.50,238.99 L 227.36,238.56 L 226.94,237.95 L 226.68,237.68 L 225.80,237.35 L 225.28,237.21 L 223.66,237.07 L 223.20,237.04 L 222.09,237.01 L 220.11,237.00 L 219.28,237.00 L 217.91,237.01 L 217.26,237.02 L 216.22,237.06 L 215.26,237.11 L 214.05,237.42 L 213.54,237.63 L 212.87,238.39 L 211.93,240.25 L 211.65,240.88 L 211.09,241.84 L 210.80,242.28 L 210.14,242.89 L 209.79,243.16 L 208.94,243.51 L 207.34,243.81 L 206.48,243.89 L 204.93,243.72 L 204.58,243.65 L 204.04,243.45 L 203.81,243.34 L 203.54,243.07 L 203.50,243.00 L 203.52,242.60 L 203.55,242.36 L 203.70,241.66 L 203.79,241.27 L 204.07,240.30 L 204.22,239.79 L 204.60,238.59 L 205.01,237.34 L 206.10,234.30 L 208.05,229.27 L 208.63,227.84 L 209.66,225.28 L 210.15,224.05 L 211.03,221.85 L 211.46,220.80 L 212.21,218.93 L 212.57,218.04 L 213.21,216.48 L 213.52,215.73 L 214.06,214.45 L 214.32,213.85 L 214.78,212.82 L 215.22,211.85 L 215.93,210.57 L 216.27,210.01 L 216.86,209.40 L 217.16,209.15 L 217.76,208.99 L 218.08,208.95 M 247.50,236.50 L 253.25,236.80 L 259.00,237.10 L 259.00,244.00 L 248.95,244.00 L 246.68,243.95 L 245.59,243.91 L 243.73,243.80 L 242.87,243.74 L 241.62,243.59 L 241.09,243.51 L 240.67,243.33 L 240.62,243.29 L 240.53,242.86 L 240.49,242.59 L 240.41,241.75 L 240.37,241.28 L 240.29,240.08 L 240.26,239.43 L 240.20,237.92 L 240.14,236.33 L 240.05,232.42 L 240.00,225.83 L 240.00,209.00 L 246.94,209.00 M 107.16,209.13 L 108.41,209.22 L 110.57,209.54 L 111.60,209.73 L 113.34,210.26 L 114.15,210.56 L 115.50,211.32 L 116.12,211.74 L 117.10,212.75 L 117.54,213.29 L 118.18,214.58 L 118.47,215.26 L 118.80,216.84 L 119.00,219.57 L 119.00,220.29 L 118.85,221.51 L 118.74,222.10 L 118.31,223.15 L 118.06,223.67 L 117.28,224.71 L 115.65,226.42 L 112.30,229.58 L 117.65,236.00 L 118.39,236.88 L 119.73,238.55 L 120.37,239.36 L 121.43,240.77 L 121.91,241.42 L 122.58,242.40 L 123.00,243.21 L 123.00,243.44 L 122.24,243.74 L 121.77,243.87 L 120.34,243.96 L 119.58,243.98 L 117.85,243.85 L 115.32,243.39 L 115.02,243.31 L 114.09,242.68 L 113.59,242.29 L 112.36,241.17 L 111.73,240.56 L 110.36,239.09 L 108.32,236.66 L 103.50,230.51 L 103.00,237.00 L 102.94,237.76 L 102.83,239.02 L 102.78,239.61 L 102.66,240.57 L 102.54,241.47 L 102.20,242.56 L 101.99,243.01 L 101.38,243.47 L 99.99,243.79 L 99.30,243.87 L 97.86,243.63 L 97.18,243.46 L 96.24,242.84 L 96.13,242.73 L 95.93,242.31 L 95.84,242.07 L 95.67,241.37 L 95.59,240.98 L 95.46,239.98 L 95.39,239.43 L 95.29,238.11 L 95.24,237.41 L 95.16,235.74 L 95.12,234.86 L 95.07,232.83 L 95.05,231.77 L 95.02,229.36 L 95.00,225.30 L 95.00,209.00 L 104.54,209.00 M 155.72,209.15 L 156.11,209.20 L 156.66,209.31 L 157.00,209.51 L 157.00,209.58 L 156.85,210.04 L 156.76,210.32 L 156.45,211.12 L 155.14,214.26 L 154.80,215.01 L 154.05,216.75 L 153.66,217.65 L 152.81,219.62 L 151.95,221.62 L 150.11,225.91 L 149.21,228.05 L 147.51,232.07 L 147.11,233.02 L 146.39,234.75 L 145.46,237.00 L 144.95,238.24 L 143.89,240.55 L 143.64,241.07 L 143.20,241.91 L 142.69,242.75 L 142.37,243.17 L 141.47,243.68 L 140.98,243.88 L 139.88,243.95 L 139.31,243.92 L 138.18,243.55 L 137.63,243.31 L 136.64,242.50 L 136.44,242.29 L 135.90,241.50 L 135.62,241.06 L 135.00,239.90 L 133.15,235.75 L 132.88,235.03 L 132.02,232.88 L 131.55,231.72 L 130.40,228.96 L 126.58,220.01 L 125.95,218.57 L 124.80,215.91 L 124.25,214.64 L 123.35,212.51 L 122.93,211.53 L 122.36,210.16 L 122.25,209.87 L 122.09,209.48 L 122.00,209.21 L 122.00,209.16 L 122.36,209.11 L 122.60,209.09 L 123.35,209.07 L 126.60,209.20 L 131.21,209.50 L 135.19,220.00 L 135.74,221.44 L 136.77,224.11 L 137.27,225.38 L 138.12,227.53 L 138.51,228.52 L 139.10,229.91 L 139.22,230.20 L 139.40,230.60 L 139.56,230.89 L 139.61,230.94 L 139.79,230.81 L 139.89,230.71 L 140.14,230.31 L 140.98,228.39 L 141.13,227.99 L 141.63,226.62 L 141.92,225.85 L 142.64,223.93 L 145.16,217.25 L 148.29,209.00 L 153.84,209.00 M 56.43,208.20 L 57.28,208.27 L 59.01,208.62 L 61.61,209.48 L 62.36,209.79 L 63.40,210.32 L 63.85,210.58 L 64.38,211.10 L 64.58,211.37 L 64.68,212.01 L 64.46,213.23 L 64.20,214.11 L 63.65,215.33 L 63.36,215.85 L 62.62,216.43 L 62.22,216.64 L 61.12,216.68 L 58.85,216.22 L 57.99,215.99 L 56.18,215.84 L 55.29,215.82 L 53.64,216.05 L 52.88,216.21 L 51.75,216.74 L 51.00,217.81 L 51.00,218.11 L 51.50,218.88 L 51.83,219.28 L 52.95,220.22 L 53.58,220.70 L 55.26,221.77 L 58.33,223.46 L 59.46,224.03 L 61.60,225.55 L 62.63,226.35 L 64.37,228.12 L 65.17,229.01 L 66.28,230.78 L 67.00,233.13 L 67.00,233.94 L 66.51,235.74 L 66.19,236.65 L 65.18,238.43 L 64.63,239.29 L 63.28,240.80 L 61.03,242.48 L 60.13,242.95 L 57.83,243.53 L 56.63,243.77 L 53.92,243.90 L 52.55,243.90 L 49.73,243.57 L 48.33,243.34 L 45.68,242.55 L 45.03,242.32 L 43.97,241.92 L 43.48,241.73 L 42.70,241.39 L 42.00,241.05 L 41.34,240.33 L 41.12,239.94 L 41.30,238.87 L 42.30,236.49 L 43.96,233.01 L 47.23,235.00 L 48.15,235.56 L 50.03,236.32 L 50.96,236.64 L 52.73,236.91 L 53.58,236.98 L 55.07,236.75 L 56.80,235.80 L 57.35,235.25 L 57.84,234.23 L 57.97,233.73 L 57.55,232.70 L 57.22,232.17 L 55.82,231.00 L 55.40,230.69 L 54.36,230.01 L 52.50,228.91 L 51.40,228.29 L 49.51,227.08 L 48.61,226.48 L 47.11,225.29 L 46.40,224.70 L 45.28,223.51 L 44.76,222.92 L 44.01,221.74 L 43.68,221.14 L 43.30,219.93 L 43.15,219.33 L 43.12,218.09 L 43.15,217.46 L 43.48,216.18 L 44.35,214.19 L 44.74,213.49 L 45.71,212.25 L 46.22,211.66 L 47.39,210.67 L 48.01,210.20 L 49.36,209.46 L 50.06,209.12 L 51.56,208.64 L 52.32,208.43 L 53.93,208.21 L 54.74,208.14 M 187.59,209.15 L 188.72,209.19 L 190.61,209.27 L 191.50,209.32 L 192.97,209.41 L 193.65,209.46 L 194.77,209.60 L 195.29,209.67 L 196.13,209.86 L 196.92,210.07 L 198.03,210.74 L 199.59,212.31 L 200.30,213.14 L 201.27,215.33 L 201.67,216.48 L 202.00,218.99 L 202.08,220.25 L 201.73,222.68 L 200.44,225.78 L 199.91,226.55 L 198.44,227.88 L 197.65,228.52 L 195.79,229.54 L 194.83,230.00 L 192.76,230.61 L 189.60,231.00 L 186.10,231.00 L 185.80,237.25 L 185.76,238.02 L 185.69,239.29 L 185.66,239.88 L 185.57,240.83 L 185.48,241.71 L 185.14,242.72 L 184.93,243.14 L 184.20,243.52 L 182.46,243.80 L 181.63,243.88 L 180.11,243.80 L 179.77,243.76 L 179.23,243.63 L 178.99,243.56 L 178.71,243.38 L 178.66,243.33 L 178.57,242.89 L 178.52,242.62 L 178.44,241.77 L 178.39,241.30 L 178.32,240.08 L 178.28,239.43 L 178.21,237.90 L 178.15,236.30 L 178.06,232.37 L 178.00,225.74 L 178.00,208.81 M 90.81,212.25 L 90.74,213.05 L 90.53,214.12 L 90.40,214.58 L 89.80,215.12 L 89.41,215.34 L 88.05,215.57 L 87.65,215.62 L 86.63,215.69 L 84.75,215.80 L 84.05,215.84 L 82.89,215.91 L 82.34,215.94 L 81.48,216.03 L 80.67,216.12 L 79.76,216.45 L 79.40,216.66 L 79.11,217.36 L 79.00,219.05 L 79.00,219.78 L 79.10,220.74 L 79.19,221.15 L 79.72,221.62 L 80.06,221.80 L 81.35,221.95 L 81.74,221.97 L 82.71,221.99 L 84.50,222.00 L 90.00,222.00 L 90.00,230.00 L 79.00,230.00 L 79.00,237.00 L 91.13,237.00 L 90.50,243.50 L 81.45,243.78 L 80.21,243.82 L 77.88,243.84 L 76.77,243.84 L 74.85,243.78 L 73.97,243.74 L 72.69,243.62 L 72.14,243.55 L 71.70,243.37 L 71.65,243.32 L 71.56,242.88 L 71.52,242.61 L 71.43,241.77 L 71.39,241.30 L 71.31,240.09 L 71.27,239.45 L 71.21,237.93 L 71.14,236.34 L 71.06,232.42 L 71.00,225.83 L 71.00,209.00 L 91.13,209.00 M 172.81,231.25 L 172.74,232.06 L 172.53,233.13 L 172.39,233.59 L 171.77,234.13 L 171.38,234.35 L 169.95,234.57 L 169.52,234.62 L 168.45,234.69 L 166.46,234.79 L 165.63,234.83 L 164.06,234.85 L 163.30,234.85 L 161.98,234.79 L 161.37,234.75 L 160.46,234.63 L 160.07,234.56 L 159.71,234.38 L 159.51,234.18 L 159.21,233.04 L 159.00,230.83 L 159.00,228.00 L 173.13,228.00 M 219.89,221.00 L 219.61,221.22 L 219.46,221.36 L 219.14,221.81 L 218.20,223.75 L 217.93,224.51 L 217.29,226.21 L 216.50,228.25 L 216.34,228.63 L 216.28,229.16 L 216.29,229.39 L 216.66,229.69 L 216.91,229.81 L 217.84,229.94 L 220.00,230.00 L 220.90,230.00 L 222.16,229.94 L 222.70,229.89 L 223.34,229.69 L 223.59,229.56 L 223.72,229.16 L 223.74,228.92 L 223.50,228.25 L 223.31,227.77 L 222.71,226.21 L 221.80,223.75 L 221.53,222.99 L 220.86,221.81 L 220.70,221.56 L 220.39,221.22 L 220.00,221.00 M 186.96,215.23 L 186.58,215.47 L 186.19,216.59 L 186.00,219.33 L 186.00,220.52 L 186.20,222.59 L 186.26,223.05 L 186.41,223.74 L 186.68,224.34 L 186.87,224.54 L 187.70,224.63 L 188.16,224.63 L 189.32,224.39 L 189.92,224.24 L 191.14,223.73 L 191.73,223.45 L 192.75,222.76 L 193.31,222.31 L 193.89,221.09 L 194.09,220.45 L 193.99,219.09 L 193.86,218.42 L 193.14,217.23 L 191.43,215.98 L 190.85,215.75 L 189.86,215.42 L 189.39,215.27 L 188.61,215.09 L 187.88,214.96 M 104.62,215.00 L 103.99,215.16 L 103.71,215.28 L 103.36,215.79 L 103.22,216.11 L 103.07,217.16 L 103.00,219.50 L 103.00,220.52 L 103.07,221.93 L 103.12,222.55 L 103.38,223.29 L 103.55,223.59 L 104.12,223.87 L 105.43,224.00 L 106.10,224.00 L 107.61,223.54 L 108.33,223.25 L 109.43,222.43 L 109.84,222.02 L 110.40,221.16 L 110.64,220.73 L 110.88,219.88 L 110.95,219.45 L 110.88,218.63 L 110.81,218.23 L 110.45,217.48 L 110.24,217.12 L 109.62,216.48 L 109.28,216.18 L 108.42,215.70 L 107.96,215.48 L 106.89,215.18 L 105.07,215.00 Z" fill="rgba(223,104,37,1)"/>
<path d="M 67.11,204.48 L 64.31,203.70 L 59.08,201.54 L 56.54,200.37 L 51.86,197.49 L 49.59,195.97 L 45.51,192.45 L 43.55,190.62 L 40.14,186.53 L 38.52,184.42 L 35.82,179.84 L 34.56,177.50 L 32.64,172.50 L 31.78,169.95 L 30.69,164.60 L 30.04,156.27 L 30.06,153.77 L 30.49,148.86 L 30.62,147.72 L 30.95,145.75 L 31.53,143.50 L 31.93,142.40 L 32.55,140.30 L 32.68,139.82 L 32.87,139.03 L 32.98,138.22 L 32.99,137.93 L 33.39,136.90 L 33.65,136.32 L 34.48,134.83 L 34.94,134.04 L 36.09,132.24 L 36.69,131.31 L 38.05,129.35 L 39.44,127.39 L 42.37,123.66 L 43.08,122.80 L 44.41,121.32 L 46.14,119.62 L 46.68,119.15 L 48.16,118.04 L 48.95,117.46 L 50.75,116.24 L 56.30,112.86 L 62.50,109.50 L 58.50,109.17 L 57.40,109.08 L 54.54,109.28 L 50.65,109.99 L 49.59,110.31 L 47.78,110.65 L 47.39,110.71 L 46.79,110.73 L 46.29,110.62 L 46.22,110.55 L 46.26,110.14 L 46.31,109.90 L 46.56,109.23 L 47.94,106.59 L 48.37,105.91 L 48.95,104.79 L 49.20,104.27 L 49.45,103.40 L 49.53,102.98 L 49.47,102.23 L 49.06,101.11 L 48.73,100.50 L 48.32,98.83 L 48.15,97.95 L 48.04,95.89 L 48.03,94.83 L 48.24,92.60 L 48.91,89.30 L 49.13,88.56 L 49.35,87.55 L 49.42,87.10 L 49.30,86.55 L 49.18,86.32 L 48.64,86.06 L 47.24,85.81 L 46.44,85.71 L 45.27,85.21 L 44.76,84.93 L 44.28,84.26 L 44.13,83.93 L 44.46,83.39 L 44.59,83.27 L 45.04,83.11 L 45.99,83.00 L 46.58,83.00 L 47.66,83.28 L 48.19,83.47 L 49.13,84.10 L 49.58,84.47 L 50.34,85.44 L 51.27,87.25 L 51.46,87.73 L 52.05,88.49 L 52.97,89.00 L 53.11,89.00 L 53.37,89.32 L 53.49,89.53 L 53.70,90.21 L 54.00,93.11 L 54.00,94.13 L 54.05,95.47 L 54.11,96.04 L 54.41,96.63 L 54.62,96.85 L 55.38,96.91 L 57.25,96.64 L 57.47,96.60 L 58.31,96.52 L 58.79,96.48 L 60.08,96.40 L 60.78,96.36 L 62.47,96.29 L 63.36,96.25 L 65.38,96.19 L 67.48,96.12 L 72.40,96.01 L 80.37,95.91 L 100.24,95.76 L 119.38,114.88 L 138.52,134.00 L 147.76,134.00 L 157.00,134.00 L 157.00,115.32 L 157.00,113.30 L 156.98,109.82 L 156.97,108.16 L 156.93,105.33 L 156.90,103.98 L 156.81,101.67 L 156.76,100.57 L 156.63,98.67 L 156.48,96.85 L 155.98,93.90 L 154.86,89.57 L 154.34,87.84 L 153.14,84.07 L 152.52,82.18 L 151.25,78.43 L 150.63,76.60 L 149.45,73.34 L 149.17,72.58 L 148.66,71.22 L 147.97,69.50 L 147.75,68.95 L 147.21,67.06 L 146.52,64.00 L 146.35,63.04 L 145.58,60.50 L 144.19,57.00 L 142.48,53.50 L 121.22,53.22 L 99.96,52.93 L 99.04,55.22 L 98.86,55.67 L 98.59,56.26 L 98.47,56.50 L 98.30,56.67 L 98.23,56.71 L 98.14,56.48 L 98.06,55.70 L 98.05,55.28 L 97.66,54.72 L 97.50,54.60 L 96.99,54.42 L 96.70,54.34 L 95.85,54.22 L 95.38,54.17 L 94.11,54.11 L 93.41,54.09 L 91.64,54.08 L 90.68,54.08 L 88.31,54.11 L 84.00,54.20 L 81.78,54.25 L 78.06,54.26 L 77.20,54.26 L 75.67,54.23 L 74.94,54.21 L 73.67,54.16 L 73.08,54.13 L 72.10,54.05 L 71.64,54.01 L 70.95,53.90 L 70.65,53.85 L 70.26,53.72 L 70.03,53.50 L 70.03,53.36 L 70.40,52.89 L 70.63,52.64 L 71.38,51.99 L 74.59,49.75 L 79.12,47.00 L 108.94,47.00 L 111.88,47.00 L 117.01,47.02 L 119.45,47.03 L 123.67,47.06 L 125.67,47.09 L 129.07,47.15 L 130.68,47.19 L 133.35,47.29 L 134.61,47.34 L 136.66,47.48 L 137.61,47.55 L 139.13,47.73 L 139.83,47.82 L 140.90,48.04 L 142.13,48.42 L 142.93,48.76 L 144.10,49.50 L 144.37,49.72 L 144.86,50.30 L 145.10,50.62 L 145.57,51.46 L 145.81,51.93 L 146.30,53.14 L 146.56,53.80 L 147.13,55.47 L 147.43,56.37 L 148.13,58.60 L 149.37,62.67 L 150.43,66.20 L 152.80,73.94 L 153.37,75.78 L 154.39,79.08 L 154.63,79.85 L 155.06,81.23 L 155.62,83.00 L 155.95,84.04 L 156.54,86.05 L 156.83,87.03 L 157.30,88.78 L 157.52,89.61 L 157.81,90.92 L 158.00,92.15 L 158.00,92.63 L 158.38,93.40 L 158.63,93.76 L 159.51,94.29 L 160.01,94.53 L 161.41,94.82 L 164.08,95.00 L 164.69,95.00 L 165.56,95.10 L 165.95,95.17 L 166.45,95.46 L 166.66,95.64 L 166.89,96.20 L 167.00,97.44 L 167.00,98.11 L 167.47,99.07 L 167.65,99.28 L 168.22,99.64 L 168.55,99.81 L 169.47,100.09 L 169.99,100.23 L 171.34,100.46 L 172.08,100.56 L 173.93,100.75 L 174.93,100.85 L 177.36,101.02 L 181.75,101.28 L 183.09,101.36 L 184.99,101.40 L 185.83,101.40 L 186.89,101.26 L 187.33,101.16 L 187.78,100.79 L 188.00,99.92 L 188.00,99.45 L 187.56,98.55 L 186.50,97.64 L 186.19,97.52 L 185.74,96.72 L 185.64,96.45 L 185.48,95.69 L 185.40,95.27 L 185.28,94.15 L 185.23,93.55 L 185.15,92.02 L 185.11,91.19 L 185.06,89.18 L 185.04,88.11 L 185.01,85.55 L 185.00,81.03 L 185.00,79.33 L 185.01,76.44 L 185.02,75.08 L 185.06,72.80 L 185.08,71.73 L 185.14,69.99 L 185.18,69.18 L 185.27,67.92 L 185.33,67.34 L 185.47,66.49 L 185.54,66.11 L 185.73,65.59 L 186.50,65.00 L 186.81,65.00 L 187.25,64.63 L 187.45,64.36 L 187.71,63.25 L 187.76,62.92 L 187.85,62.08 L 187.89,61.62 L 187.94,60.51 L 187.96,59.92 L 187.99,58.51 L 188.00,56.03 L 188.00,54.91 L 188.01,53.06 L 188.01,52.20 L 188.05,50.82 L 188.07,50.18 L 188.16,49.17 L 188.21,48.70 L 188.38,47.98 L 188.56,47.32 L 189.27,46.54 L 191.00,45.50 L 191.78,45.10 L 192.92,44.75 L 193.41,44.65 L 193.90,44.84 L 194.05,44.99 L 193.80,45.63 L 192.50,47.00 L 192.22,47.23 L 191.80,48.02 L 191.60,48.48 L 191.33,49.82 L 191.21,50.58 L 191.08,52.62 L 191.00,56.62 L 191.00,57.47 L 191.01,58.93 L 191.02,59.62 L 191.06,60.79 L 191.11,61.89 L 191.29,63.35 L 191.41,63.98 L 191.75,64.64 L 192.50,65.00 L 192.82,65.00 L 193.27,65.61 L 193.37,65.84 L 193.53,66.53 L 193.61,66.92 L 193.73,68.00 L 193.78,68.59 L 193.86,70.13 L 193.90,70.96 L 193.94,73.02 L 193.97,74.12 L 193.99,76.77 L 194.00,81.50 L 194.00,83.25 L 193.99,86.23 L 193.98,87.64 L 193.94,89.98 L 193.92,91.09 L 193.86,92.87 L 193.83,93.70 L 193.73,95.00 L 193.67,95.59 L 193.53,96.47 L 193.46,96.86 L 193.27,97.39 L 192.50,98.00 L 192.05,98.00 L 191.45,98.46 L 191.20,98.74 L 191.03,99.52 L 191.01,99.92 L 191.29,100.69 L 192.25,101.48 L 192.39,101.52 L 193.03,101.62 L 193.40,101.66 L 194.46,101.75 L 195.03,101.80 L 196.45,101.89 L 197.20,101.93 L 198.91,102.01 L 200.69,102.09 L 204.89,102.24 L 207.05,102.31 L 211.66,102.42 L 213.97,102.47 L 218.50,102.54 L 220.72,102.56 L 224.70,102.57 L 225.64,102.57 L 227.33,102.56 L 228.14,102.55 L 229.52,102.51 L 230.17,102.49 L 231.19,102.44 L 232.25,102.34 L 233.28,102.18 L 234.70,101.77 L 235.30,101.56 L 235.84,101.09 L 236.00,100.85 L 235.62,100.37 L 234.00,99.71 L 233.29,99.53 L 232.47,99.02 L 232.16,98.75 L 232.11,98.13 L 232.19,97.80 L 232.91,97.11 L 234.85,96.06 L 235.46,95.81 L 236.74,95.52 L 237.38,95.41 L 238.65,95.37 L 239.27,95.38 L 240.43,95.57 L 240.98,95.68 L 241.94,96.04 L 242.39,96.24 L 243.06,96.73 L 243.35,96.99 L 243.64,97.58 L 243.73,97.88 L 243.55,98.53 L 242.65,99.51 L 242.01,99.98 L 241.33,100.69 L 241.09,101.01 L 241.23,101.46 L 241.41,101.65 L 242.41,101.87 L 244.93,102.00 L 245.77,102.00 L 247.15,102.18 L 247.81,102.31 L 249.07,102.89 L 249.71,103.24 L 251.17,104.38 L 253.93,106.94 L 254.52,107.51 L 255.50,108.49 L 255.96,108.95 L 256.71,109.76 L 257.41,110.54 L 258.23,111.85 L 258.57,112.50 L 258.87,113.92 L 259.00,116.69 L 259.00,117.35 L 258.80,119.19 L 258.67,120.17 L 258.26,122.44 L 256.49,129.50 L 253.98,137.50 L 257.83,141.00 L 259.27,142.31 L 261.67,144.85 L 262.80,146.12 L 264.67,148.76 L 265.56,150.10 L 267.06,153.04 L 269.02,158.00 L 269.46,159.31 L 270.08,161.96 L 270.34,163.28 L 270.61,165.92 L 270.71,167.25 L 270.65,169.87 L 270.58,171.18 L 270.21,173.76 L 269.99,175.04 L 269.32,177.56 L 268.95,178.81 L 268.00,181.23 L 267.49,182.44 L 266.27,184.75 L 265.64,185.89 L 264.17,188.08 L 263.41,189.15 L 261.71,191.18 L 260.84,192.17 L 258.93,194.02 L 257.94,194.92 L 255.83,196.57 L 254.75,197.36 L 252.45,198.79 L 251.28,199.47 L 248.81,200.64 L 247.56,201.20 L 244.94,202.11 L 243.61,202.53 L 240.85,203.14 L 236.58,203.72 L 233.96,203.91 L 228.90,203.59 L 226.42,203.31 L 221.71,202.08 L 219.40,201.36 L 215.12,199.32 L 213.05,198.20 L 209.30,195.41 L 207.50,193.92 L 204.37,190.46 L 202.89,188.66 L 200.47,184.60 L 199.36,182.51 L 197.74,177.94 L 196.33,170.58 L 195.71,163.97 L 162.21,164.24 L 128.70,164.50 L 127.04,170.58 L 126.55,172.35 L 125.29,175.76 L 124.61,177.44 L 122.98,180.63 L 122.11,182.20 L 120.11,185.18 L 119.06,186.64 L 116.70,189.38 L 115.48,190.72 L 112.77,193.22 L 111.38,194.44 L 108.34,196.69 L 106.78,197.78 L 103.41,199.76 L 98.00,202.42 L 96.98,202.87 L 94.69,203.63 L 93.51,203.99 L 90.96,204.58 L 88.36,205.12 L 82.74,205.69 L 79.93,205.87 L 74.43,205.68 L 73.10,205.58 L 70.58,205.23 L 69.35,205.03 M 246.17,188.11 L 247.10,187.52 L 248.73,186.35 L 249.52,185.76 L 250.89,184.57 L 252.20,183.37 L 254.10,180.78 L 254.94,179.43 L 256.01,176.40 L 256.82,171.11 L 256.87,170.34 L 256.92,169.03 L 256.94,168.41 L 256.94,167.35 L 256.92,166.34 L 256.63,164.74 L 256.43,163.97 L 255.65,162.41 L 253.79,159.50 L 252.78,158.01 L 250.36,155.53 L 249.10,154.38 L 246.30,152.60 L 244.86,151.80 L 241.80,150.72 L 240.24,150.27 L 237.03,149.89 L 235.43,149.80 L 232.21,150.14 L 230.61,150.40 L 227.50,151.47 L 225.97,152.09 L 223.11,153.89 L 219.21,157.41 L 218.02,158.77 L 216.27,161.65 L 215.50,163.11 L 214.61,166.18 L 214.27,167.74 L 214.23,171.00 L 215.14,176.08 L 215.62,177.69 L 217.12,180.58 L 217.95,181.96 L 220.05,184.37 L 221.16,185.52 L 223.72,187.40 L 225.04,188.26 L 227.93,189.56 L 229.40,190.13 L 232.48,190.79 L 234.03,191.04 L 237.17,191.01 L 238.74,190.91 L 241.80,190.14 L 243.31,189.66 M 89.44,187.41 L 91.23,186.70 L 94.52,184.81 L 96.11,183.80 L 99.01,181.33 L 100.41,180.02 L 102.90,177.00 L 106.12,171.85 L 106.59,170.95 L 107.26,169.29 L 107.56,168.45 L 107.95,166.62 L 108.11,165.64 L 108.27,163.23 L 108.30,162.57 L 108.33,161.07 L 108.34,158.50 L 108.33,157.02 L 108.22,154.38 L 108.15,153.11 L 107.91,150.89 L 107.77,149.84 L 107.41,148.09 L 106.73,145.99 L 106.43,145.30 L 105.62,143.86 L 105.18,143.13 L 104.14,141.63 L 103.05,140.13 L 100.38,137.16 L 98.99,135.72 L 96.02,133.17 L 91.62,130.24 L 90.52,129.66 L 88.64,128.85 L 87.72,128.49 L 85.82,128.03 L 84.82,127.84 L 82.37,127.65 L 81.69,127.61 L 80.16,127.57 L 77.50,127.55 L 76.46,127.54 L 74.68,127.56 L 73.84,127.57 L 72.41,127.62 L 71.04,127.69 L 68.91,128.05 L 67.88,128.27 L 65.88,129.06 L 65.35,129.30 L 64.19,129.88 L 62.20,130.93 L 60.39,131.91 L 57.45,133.85 L 56.07,134.84 L 53.80,137.02 L 52.72,138.17 L 50.86,140.85 L 48.27,145.75 L 47.44,147.54 L 46.29,151.16 L 45.80,152.97 L 45.32,156.56 L 45.16,158.35 L 45.36,161.81 L 46.42,166.76 L 47.20,169.11 L 49.33,173.35 L 50.47,175.38 L 53.25,178.94 L 54.71,180.63 L 58.04,183.46 L 59.77,184.78 L 63.54,186.84 L 65.47,187.76 L 69.59,189.00 L 71.67,189.51 L 76.02,189.86 L 78.22,189.93 L 82.69,189.36 L 84.94,188.96 M 130.99,157.25 L 130.99,156.73 L 130.87,155.36 L 130.79,154.63 L 130.54,152.99 L 129.49,148.00 L 129.07,146.49 L 128.27,143.27 L 128.09,142.51 L 127.78,141.17 L 127.46,139.61 L 127.26,138.55 L 126.35,136.17 L 125.81,134.95 L 124.30,132.33 L 123.48,131.01 L 121.48,128.28 L 120.43,126.91 L 118.05,124.19 L 116.83,122.84 L 114.18,120.24 L 112.83,118.96 L 110.02,116.61 L 108.60,115.47 L 105.74,113.48 L 101.50,111.03 L 100.65,110.62 L 99.21,109.93 L 98.52,109.60 L 97.28,109.08 L 96.08,108.60 L 93.68,108.03 L 93.04,107.91 L 91.58,107.75 L 90.81,107.67 L 88.99,107.57 L 88.02,107.53 L 85.70,107.47 L 81.50,107.39 L 68.50,107.19 L 79.00,107.91 L 81.89,108.10 L 87.34,108.87 L 90.00,109.31 L 94.83,110.51 L 97.15,111.17 L 101.17,112.77 L 102.12,113.19 L 103.83,114.10 L 106.10,115.56 L 107.79,116.79 L 111.20,119.77 L 112.89,121.31 L 116.05,124.61 L 117.57,126.27 L 120.15,129.54 L 120.74,130.34 L 121.75,131.86 L 122.98,134.00 L 123.36,134.74 L 124.10,136.48 L 124.47,137.38 L 125.18,139.37 L 125.89,141.40 L 127.11,145.81 L 127.68,148.01 L 128.48,152.21 L 128.65,153.21 L 128.86,155.04 L 129.00,157.45 L 129.00,158.42 L 129.29,159.96 L 129.38,160.28 L 129.61,160.72 L 130.00,161.00 L 130.14,161.00 L 130.39,160.70 L 130.51,160.51 L 130.70,159.90 L 130.88,159.22 M 195.00,156.92 L 195.00,156.82 L 194.79,156.66 L 194.66,156.59 L 194.17,156.47 L 193.89,156.41 L 193.10,156.33 L 192.67,156.30 L 191.57,156.26 L 190.98,156.24 L 189.57,156.24 L 188.82,156.25 L 187.06,156.29 L 186.15,156.31 L 184.05,156.39 L 180.50,156.55 L 166.00,157.27 L 165.87,153.38 L 165.86,153.12 L 165.84,152.25 L 165.84,151.76 L 165.83,150.50 L 165.83,149.82 L 165.83,148.22 L 165.83,147.38 L 165.84,145.50 L 165.84,143.56 L 165.88,139.10 L 165.95,132.00 L 165.98,129.46 L 165.96,124.80 L 165.94,122.56 L 165.82,118.74 L 165.78,117.85 L 165.70,116.29 L 165.65,115.55 L 165.54,114.31 L 165.48,113.73 L 165.36,112.86 L 165.15,112.00 L 165.06,111.77 L 164.89,111.70 L 164.81,111.72 L 164.67,112.17 L 164.61,112.47 L 164.49,113.47 L 164.44,114.04 L 164.35,115.63 L 164.30,116.50 L 164.23,118.69 L 164.20,119.87 L 164.15,122.71 L 164.13,124.21 L 164.09,127.71 L 164.06,133.75 L 164.00,158.00 L 179.50,158.00 L 180.81,158.00 L 183.17,157.98 L 184.31,157.97 L 186.34,157.93 L 187.31,157.91 L 189.00,157.85 L 189.81,157.82 L 191.17,157.73 L 191.82,157.69 L 192.85,157.58 L 193.33,157.52 L 194.05,157.39 L 194.37,157.33 L 194.76,157.17 L 194.92,157.09 M 110.00,108.97 L 110.00,108.68 L 109.49,108.05 L 108.25,107.29 L 108.01,107.20 L 107.28,106.80 L 106.88,106.57 L 105.92,105.96 L 102.78,103.68 L 99.06,100.72 L 77.28,101.43 L 55.50,102.13 L 52.55,105.04 L 52.09,105.49 L 51.38,106.28 L 51.06,106.65 L 50.62,107.27 L 50.43,107.56 L 50.25,108.00 L 50.19,108.20 L 50.25,108.44 L 50.31,108.53 L 50.60,108.55 L 50.78,108.53 L 51.29,108.31 L 51.58,108.17 L 52.31,107.70 L 53.62,106.69 L 54.27,106.15 L 55.57,105.39 L 56.28,105.04 L 58.25,104.55 L 58.82,104.43 L 60.19,104.23 L 60.93,104.14 L 62.71,103.96 L 63.66,103.87 L 65.94,103.70 L 70.00,103.42 L 72.39,103.26 L 76.73,103.03 L 78.83,102.93 L 82.61,102.81 L 84.44,102.76 L 87.68,102.74 L 89.23,102.74 L 91.94,102.83 L 93.24,102.89 L 95.43,103.09 L 96.47,103.20 L 98.17,103.51 L 98.96,103.68 L 100.17,104.10 L 101.47,104.84 L 102.77,105.98 L 105.97,108.22 L 106.72,108.71 L 107.99,109.44 L 109.25,109.95 L 109.46,109.96 L 109.78,109.68 L 109.92,109.50 M 136.00,128.98 L 135.83,128.79 L 135.17,128.09 L 134.80,127.70 L 133.77,126.63 L 133.21,126.05 L 131.86,124.67 L 131.16,123.94 L 129.54,122.29 L 128.70,121.43 L 126.86,119.56 L 125.92,118.60 L 123.92,116.57 L 117.51,110.10 L 101.52,94.00 L 101.66,80.75 L 101.70,77.11 L 101.79,69.56 L 101.81,67.79 L 101.85,64.72 L 101.86,64.01 L 101.88,62.78 L 101.90,61.25 L 102.00,55.00 L 122.25,55.16 L 124.46,55.18 L 128.13,55.22 L 129.85,55.24 L 132.55,55.28 L 133.79,55.30 L 135.58,55.34 L 136.37,55.37 L 137.30,55.42 L 137.66,55.46 L 137.77,55.53 L 137.73,55.57 L 137.08,55.66 L 136.66,55.72 L 135.30,55.84 L 132.50,56.05 L 131.12,56.15 L 127.88,56.34 L 126.21,56.43 L 122.70,56.59 L 120.94,56.66 L 117.58,56.78 L 113.17,56.88 L 103.84,57.00 L 104.55,74.25 L 104.64,76.62 L 104.86,80.99 L 104.97,83.07 L 105.18,86.58 L 105.23,87.38 L 105.34,88.76 L 105.39,89.41 L 105.48,90.44 L 105.53,90.91 L 105.61,91.55 L 105.71,92.00 L 105.75,92.03 L 106.29,92.09 L 106.64,92.12 L 107.77,92.17 L 108.40,92.19 L 110.05,92.22 L 110.93,92.23 L 113.02,92.25 L 114.12,92.26 L 116.60,92.26 L 117.88,92.26 L 120.68,92.25 L 129.95,92.16 L 131.38,92.14 L 134.01,92.10 L 135.28,92.08 L 137.58,92.05 L 138.69,92.04 L 140.69,92.02 L 141.65,92.01 L 143.38,92.00 L 145.04,92.00 L 147.61,92.02 L 148.79,92.04 L 150.53,92.13 L 151.31,92.19 L 152.40,92.35 L 152.87,92.44 L 153.47,92.68 L 153.72,92.82 L 153.99,93.16 L 154.24,93.80 L 154.38,94.34 L 154.53,95.24 L 154.57,95.66 L 154.39,96.33 L 154.24,96.64 L 153.56,97.10 L 153.14,97.30 L 151.80,97.58 L 151.03,97.70 L 148.85,97.83 L 148.25,97.85 L 146.85,97.88 L 146.12,97.88 L 144.47,97.87 L 143.60,97.87 L 141.66,97.83 L 140.65,97.81 L 138.40,97.75 L 137.23,97.72 L 134.66,97.64 L 130.40,97.51 L 107.57,96.76 L 115.69,105.63 L 116.80,106.85 L 119.55,109.77 L 120.97,111.27 L 124.06,114.47 L 125.60,116.06 L 128.65,119.15 L 132.77,123.25 L 134.01,124.45 L 136.13,126.64 L 137.12,127.68 L 138.63,129.39 L 138.96,129.79 L 139.49,130.45 L 139.73,130.76 L 140.04,131.24 L 140.17,131.45 L 140.26,131.73 L 140.12,131.88 L 139.90,131.87 L 139.29,131.62 L 138.97,131.46 L 138.24,130.98 L 137.49,130.45 M 62.00,93.20 L 62.00,93.04 L 62.33,92.79 L 62.55,92.67 L 63.22,92.48 L 63.96,92.31 L 65.96,92.18 L 66.98,92.15 L 68.84,92.33 L 69.26,92.39 L 69.90,92.58 L 70.48,92.96 L 70.58,93.13 L 70.44,93.40 L 70.32,93.53 L 69.75,93.73 L 69.42,93.82 L 68.45,93.93 L 66.56,94.00 L 65.31,94.00 L 63.34,93.76 L 62.93,93.69 L 62.36,93.51 L 62.13,93.41 Z" fill="rgba(252,252,252,1)"/>
</g>
</svg>