<svg xmlns="http://www.w3.org/2000/svg" width="300" height="300" viewBox="0 0 300 300">
<g>
<path d="M 195.50,43.06 L 195.68,43.10 L 195.73,43.28 L 195.70,43.39 L 195.31,43.75 L 194.22,44.56 L 193.72,44.91 L 193.03,45.64 L 192.73,46.06 L 192.36,47.25 L 192.28,47.59 L 192.18,48.45 L 192.13,48.91 L 192.07,50.03 L 192.04,50.63 L 192.01,52.07 L 192.00,54.65 L 192.00,55.61 L 192.01,57.23 L 192.02,57.99 L 192.06,59.25 L 192.08,59.83 L 192.16,60.77 L 192.20,61.21 L 192.32,61.89 L 192.46,62.51 L 192.93,63.18 L 194.00,63.71 L 194.47,63.83 L 195.11,64.37 L 195.25,64.57 L 195.47,65.17 L 195.56,65.52 L 195.71,66.51 L 195.78,67.06 L 195.87,68.54 L 195.91,69.35 L 195.95,71.44 L 195.97,72.57 L 195.99,75.37 L 196.00,80.50 L 196.00,82.43 L 195.99,85.63 L 195.99,87.13 L 195.95,89.56 L 195.93,90.69 L 195.87,92.46 L 195.83,93.27 L 195.71,94.49 L 195.65,95.05 L 195.47,95.83 L 195.37,96.17 L 195.11,96.63 L 194.00,97.29 L 193.44,97.44 L 192.67,97.94 L 192.35,98.22 L 192.06,98.86 L 191.99,99.18 L 192.24,99.79 L 193.25,100.48 L 193.39,100.53 L 194.03,100.63 L 194.40,100.68 L 195.46,100.79 L 196.04,100.85 L 197.45,100.97 L 198.20,101.02 L 199.92,101.14 L 201.70,101.26 L 205.91,101.50 L 208.08,101.61 L 212.72,101.83 L 215.04,101.93 L 219.62,102.10 L 221.86,102.17 L 225.90,102.28 L 226.86,102.30 L 228.59,102.32 L 229.42,102.33 L 230.85,102.34 L 231.53,102.34 L 232.60,102.31 L 233.75,102.25 L 234.44,102.17 L 235.57,101.96 L 236.10,101.84 L 236.91,101.55 L 237.27,101.39 L 237.72,101.02 L 238.00,100.39 L 238.00,100.01 L 237.54,99.41 L 236.43,99.00 L 235.95,99.00 L 235.37,98.52 L 235.19,97.25 L 235.24,96.94 L 235.71,96.42 L 235.99,96.17 L 236.81,95.78 L 237.69,95.41 L 240.06,95.10 L 241.26,95.02 L 243.58,95.31 L 244.11,95.42 L 245.01,95.78 L 246.00,96.50 L 246.29,96.85 L 246.61,97.35 L 246.73,97.58 L 246.70,97.92 L 246.64,98.07 L 246.22,98.32 L 245.12,98.68 L 244.66,98.80 L 243.99,99.08 L 243.70,99.22 L 243.35,99.53 L 243.21,99.68 L 243.16,99.99 L 243.17,100.14 L 243.39,100.42 L 243.67,100.70 L 244.94,101.07 L 247.71,101.18 L 248.44,101.12 L 249.61,101.11 L 250.15,101.13 L 250.96,101.28 L 251.33,101.38 L 251.84,101.71 L 252.33,102.43 L 252.50,102.86 L 253.18,103.54 L 254.37,104.00 L 254.56,104.00 L 255.16,104.28 L 255.49,104.46 L 256.29,105.04 L 258.90,107.53 L 259.57,108.31 L 260.52,109.58 L 260.94,110.21 L 261.46,111.46 L 261.68,112.12 L 261.90,113.71 L 262.00,116.86 L 262.00,117.75 L 261.82,119.79 L 261.71,120.84 L 261.32,123.09 L 259.47,130.07 L 256.94,137.50 L 261.39,141.64 L 262.77,142.93 L 265.19,145.62 L 266.34,146.98 L 268.31,149.82 L 269.24,151.26 L 270.76,154.23 L 271.46,155.73 L 272.51,158.83 L 272.98,160.39 L 273.58,163.60 L 273.82,165.22 L 273.94,168.53 L 273.95,170.19 L 273.61,173.60 L 272.57,178.79 L 272.21,180.13 L 271.30,182.68 L 270.81,183.93 L 269.64,186.31 L 269.02,187.48 L 267.59,189.69 L 266.84,190.77 L 265.14,192.81 L 264.26,193.80 L 262.29,195.67 L 261.28,196.58 L 259.04,198.28 L 257.89,199.11 L 255.39,200.65 L 251.34,202.77 L 250.04,203.37 L 247.92,204.22 L 246.89,204.58 L 244.80,205.03 L 243.70,205.22 L 240.99,205.38 L 240.24,205.41 L 238.52,205.44 L 235.50,205.44 L 234.34,205.43 L 232.38,205.40 L 231.45,205.38 L 229.86,205.32 L 228.36,205.24 L 226.05,204.89 L 224.95,204.66 L 222.87,203.90 L 222.33,203.67 L 221.14,203.12 L 219.12,202.11 L 217.53,201.29 L 214.60,199.49 L 213.18,198.56 L 210.62,196.55 L 209.38,195.52 L 207.17,193.29 L 206.12,192.15 L 204.28,189.72 L 203.41,188.48 L 201.94,185.85 L 201.25,184.51 L 200.15,181.68 L 199.65,180.24 L 198.93,177.22 L 198.28,172.48 L 197.71,165.00 L 128.20,165.00 L 126.97,170.25 L 126.62,171.74 L 125.57,174.79 L 124.98,176.31 L 123.51,179.37 L 122.72,180.90 L 120.88,183.90 L 119.91,185.39 L 117.76,188.26 L 116.65,189.67 L 114.25,192.34 L 113.02,193.64 L 110.42,196.03 L 109.11,197.18 L 106.37,199.23 L 102.18,201.82 L 100.73,202.58 L 97.73,203.91 L 96.21,204.53 L 93.09,205.56 L 91.51,206.05 L 88.31,206.79 L 86.71,207.12 L 83.46,207.57 L 81.84,207.75 L 78.60,207.89 L 76.98,207.93 L 73.78,207.76 L 72.19,207.64 L 69.06,207.17 L 67.51,206.90 L 64.50,206.11 L 62.17,205.43 L 57.96,203.82 L 55.92,202.97 L 52.15,200.94 L 50.31,199.86 L 46.80,197.29 L 41.62,192.72 L 40.36,191.49 L 38.09,188.93 L 37.00,187.64 L 35.05,184.97 L 34.12,183.62 L 32.50,180.82 L 31.73,179.40 L 30.44,176.46 L 29.83,174.98 L 28.85,171.89 L 28.39,170.33 L 27.72,167.08 L 27.43,165.44 L 27.06,162.02 L 26.86,156.70 L 26.87,154.14 L 27.38,149.27 L 27.71,146.88 L 28.89,142.30 L 29.56,140.04 L 31.43,135.67 L 35.04,129.27 L 36.27,127.40 L 38.80,124.17 L 40.10,122.63 L 42.95,119.91 L 44.43,118.59 L 47.83,116.17 L 53.83,112.62 L 60.50,109.06 L 54.75,109.03 L 53.96,109.03 L 52.52,108.96 L 51.83,108.92 L 50.70,108.79 L 50.18,108.72 L 49.47,108.54 L 49.03,108.25 L 49.04,108.15 L 49.25,107.81 L 49.39,107.62 L 49.83,107.16 L 51.69,105.58 L 52.26,105.17 L 53.80,104.55 L 54.25,104.40 L 55.40,104.16 L 56.02,104.04 L 57.58,103.83 L 58.43,103.73 L 60.53,103.54 L 61.66,103.45 L 64.40,103.27 L 65.87,103.18 L 69.37,103.00 L 75.60,102.70 L 96.88,101.74 L 101.69,105.21 L 102.51,105.81 L 103.90,106.80 L 104.55,107.26 L 105.62,108.00 L 106.12,108.34 L 106.91,108.85 L 107.27,109.07 L 107.82,109.37 L 108.32,109.62 L 108.77,109.56 L 108.96,108.81 L 108.95,108.63 L 108.48,108.00 L 108.17,107.65 L 107.20,106.76 L 106.66,106.29 L 105.31,105.26 L 103.02,103.67 L 97.13,99.84 L 75.00,100.80 L 52.86,101.76 L 49.98,104.52 L 49.18,105.28 L 48.00,106.79 L 47.76,107.14 L 47.45,107.73 L 47.30,108.37 L 47.35,108.67 L 46.78,109.23 L 45.25,109.80 L 44.53,109.91 L 43.64,109.89 L 43.29,109.83 L 43.16,109.35 L 43.18,109.03 L 43.82,107.93 L 44.03,107.60 L 44.59,106.81 L 45.65,105.39 L 46.16,104.73 L 46.86,103.68 L 47.16,103.19 L 47.48,102.41 L 47.60,102.05 L 47.57,101.48 L 47.15,100.75 L 46.98,100.58 L 46.68,99.77 L 46.55,99.30 L 46.34,98.05 L 46.15,96.71 L 46.03,93.42 L 46.01,91.78 L 46.24,88.89 L 46.32,88.25 L 46.56,87.30 L 47.01,86.50 L 47.45,86.22 L 48.38,86.44 L 48.84,86.66 L 49.67,87.68 L 50.06,88.27 L 50.63,89.85 L 51.00,92.56 L 51.00,96.26 L 54.75,95.67 L 55.01,95.63 L 55.92,95.55 L 56.44,95.51 L 57.82,95.43 L 58.57,95.39 L 60.35,95.32 L 61.29,95.28 L 63.41,95.21 L 65.61,95.14 L 70.73,95.03 L 78.98,94.92 L 99.46,94.76 L 137.94,134.00 L 158.28,134.00 L 157.78,114.75 L 157.74,112.98 L 157.63,109.79 L 157.58,108.25 L 157.46,105.50 L 157.40,104.18 L 157.26,101.82 L 157.19,100.69 L 157.03,98.69 L 156.94,97.73 L 156.75,96.05 L 156.65,95.25 L 156.43,93.85 L 155.63,90.50 L 155.51,90.16 L 155.18,89.14 L 155.00,88.59 L 154.54,87.20 L 154.30,86.46 L 153.75,84.75 L 153.46,83.87 L 152.82,81.90 L 152.16,79.89 L 150.69,75.34 L 148.40,68.25 L 142.83,51.00 L 134.07,51.00 L 133.47,51.00 L 132.03,51.01 L 131.28,51.02 L 129.60,51.05 L 127.86,51.08 L 123.88,51.19 L 121.85,51.25 L 117.67,51.40 L 111.68,51.65 L 98.04,52.31 L 97.75,70.90 L 97.45,89.50 L 97.23,70.38 L 97.00,51.26 L 85.25,51.67 L 83.63,51.73 L 80.47,51.85 L 78.93,51.91 L 76.14,52.04 L 74.83,52.10 L 72.74,52.22 L 72.28,52.25 L 71.54,52.30 L 70.75,52.36 L 70.29,52.41 L 69.54,52.40 L 69.20,52.37 L 68.69,52.22 L 68.25,52.05 L 68.06,51.42 L 68.08,51.08 L 68.82,50.25 L 70.97,49.01 L 71.78,48.68 L 73.40,47.74 L 75.09,46.39 L 75.21,46.25 L 75.71,46.01 L 76.02,45.89 L 76.99,45.70 L 77.54,45.60 L 79.09,45.45 L 79.94,45.38 L 82.19,45.27 L 83.41,45.22 L 86.46,45.14 L 88.10,45.11 L 92.08,45.06 L 93.13,45.05 L 95.44,45.03 L 96.63,45.02 L 99.21,45.01 L 100.54,45.01 L 103.40,45.00 L 108.04,45.00 L 109.77,45.00 L 112.97,45.00 L 114.52,45.00 L 117.38,45.01 L 118.77,45.02 L 121.31,45.03 L 122.54,45.04 L 124.79,45.06 L 126.97,45.08 L 130.52,45.14 L 132.18,45.18 L 134.82,45.29 L 136.05,45.34 L 137.94,45.50 L 138.81,45.58 L 140.13,45.78 L 140.73,45.90 L 141.64,46.16 L 142.71,46.65 L 143.33,47.00 L 144.34,47.94 L 144.82,48.49 L 145.75,50.22 L 145.98,50.72 L 146.49,51.97 L 146.74,52.64 L 147.31,54.27 L 147.61,55.14 L 148.27,57.21 L 149.41,60.90 L 150.10,63.15 L 151.33,67.20 L 151.92,69.16 L 152.98,72.66 L 153.49,74.34 L 154.40,77.32 L 154.84,78.75 L 155.62,81.26 L 155.99,82.46 L 156.65,84.53 L 156.97,85.52 L 157.53,87.20 L 157.80,87.99 L 158.28,89.32 L 158.51,89.94 L 158.92,90.95 L 159.32,91.90 L 160.00,93.02 L 160.34,93.48 L 160.99,93.89 L 161.32,94.04 L 162.07,94.05 L 163.48,94.00 L 164.19,94.00 L 165.22,94.08 L 165.69,94.15 L 166.30,94.39 L 166.57,94.54 L 166.85,94.99 L 167.00,95.96 L 167.00,96.70 L 167.56,97.81 L 167.76,98.06 L 168.35,98.48 L 168.68,98.68 L 169.56,99.01 L 170.04,99.17 L 171.24,99.43 L 171.89,99.55 L 173.46,99.74 L 174.30,99.83 L 176.28,99.97 L 179.75,100.15 L 180.76,100.18 L 182.46,100.24 L 183.27,100.26 L 184.60,100.28 L 185.22,100.28 L 186.22,100.25 L 186.68,100.23 L 187.40,100.15 L 188.05,100.06 L 188.69,99.71 L 189.00,98.86 L 189.00,98.41 L 188.56,97.53 L 187.50,96.64 L 187.19,96.52 L 186.74,95.72 L 186.64,95.45 L 186.48,94.70 L 186.40,94.28 L 186.28,93.17 L 186.23,92.57 L 186.15,91.05 L 186.11,90.23 L 186.06,88.23 L 186.04,87.17 L 186.01,84.63 L 186.00,80.14 L 186.00,78.48 L 186.01,75.65 L 186.02,74.31 L 186.06,72.05 L 186.08,70.98 L 186.15,69.23 L 186.18,68.41 L 186.28,67.11 L 186.34,66.50 L 186.48,65.58 L 186.55,65.16 L 186.74,64.56 L 187.50,63.64 L 187.79,63.53 L 188.23,62.95 L 188.43,62.58 L 188.69,61.34 L 188.81,60.61 L 188.93,58.48 L 188.96,57.89 L 188.98,56.49 L 189.00,54.07 L 189.00,53.08 L 189.01,51.41 L 189.02,50.62 L 189.06,49.31 L 189.09,48.69 L 189.17,47.67 L 189.21,47.20 L 189.33,46.44 L 189.47,45.73 L 189.92,44.88 L 190.93,44.04 L 191.47,43.75 L 192.83,43.30 L 194.66,43.00 L 195.04,43.00 M 236.48,150.25 L 235.30,150.38 L 233.06,150.86 L 231.97,151.14 L 229.92,151.88 L 228.91,152.28 L 227.06,153.26 L 226.15,153.78 L 224.50,154.96 L 223.70,155.58 L 222.25,156.95 L 221.56,157.66 L 220.34,159.19 L 219.76,159.97 L 218.78,161.62 L 218.32,162.47 L 217.57,164.23 L 217.24,165.12 L 216.75,166.96 L 216.54,167.88 L 216.31,169.77 L 216.24,170.72 L 216.29,172.63 L 216.35,173.59 L 216.68,175.51 L 216.88,176.46 L 217.51,178.34 L 217.86,179.28 L 218.79,181.11 L 219.29,182.02 L 220.54,183.77 L 222.77,186.27 L 223.64,187.12 L 225.47,188.58 L 226.41,189.26 L 228.36,190.39 L 229.34,190.91 L 231.38,191.70 L 232.41,192.05 L 234.52,192.51 L 235.58,192.70 L 237.73,192.82 L 238.81,192.83 L 240.99,192.61 L 242.08,192.45 L 244.26,191.88 L 245.34,191.55 L 247.50,190.62 L 248.55,190.13 L 250.46,189.02 L 251.37,188.45 L 253.01,187.19 L 253.79,186.55 L 255.16,185.14 L 255.81,184.41 L 256.91,182.84 L 257.43,182.04 L 258.27,180.32 L 258.65,179.43 L 259.23,177.55 L 259.49,176.59 L 259.80,174.54 L 259.98,171.28 L 259.97,169.73 L 259.46,166.75 L 259.12,165.29 L 258.01,162.56 L 257.39,161.23 L 255.76,158.80 L 254.88,157.63 L 252.81,155.59 L 251.73,154.62 L 249.30,153.02 L 248.04,152.28 L 245.32,151.20 L 243.94,150.74 L 241.01,150.25 M 72.78,127.52 L 71.96,127.54 L 70.54,127.60 L 69.17,127.67 L 67.02,128.00 L 65.99,128.20 L 64.04,128.89 L 60.64,130.47 L 59.00,131.30 L 55.88,133.44 L 54.36,134.58 L 51.58,137.25 L 50.24,138.64 L 47.91,141.70 L 45.05,146.62 L 44.68,147.39 L 44.09,149.21 L 43.81,150.15 L 43.39,152.22 L 43.02,154.34 L 42.80,158.96 L 42.78,161.27 L 43.29,165.73 L 43.46,166.80 L 43.94,168.79 L 44.87,171.43 L 45.36,172.54 L 46.61,174.72 L 47.27,175.80 L 48.84,177.89 L 49.66,178.93 L 51.49,180.90 L 52.43,181.86 L 54.48,183.66 L 55.52,184.54 L 57.74,186.13 L 58.86,186.89 L 61.19,188.23 L 62.37,188.87 L 64.76,189.91 L 68.38,191.11 L 69.05,191.28 L 70.58,191.51 L 71.37,191.60 L 73.09,191.68 L 74.85,191.71 L 78.69,191.37 L 80.61,191.13 L 84.37,190.29 L 86.19,189.81 L 89.35,188.53 L 90.10,188.17 L 91.80,187.16 L 92.68,186.61 L 94.48,185.32 L 95.38,184.65 L 97.07,183.25 L 99.23,181.19 L 100.70,179.62 L 103.07,176.17 L 104.17,174.41 L 105.80,170.66 L 106.52,168.75 L 107.41,164.81 L 107.76,162.83 L 107.91,158.82 L 107.89,156.81 L 107.30,152.84 L 106.91,150.87 L 105.58,147.06 L 104.82,145.19 L 102.75,141.65 L 98.82,136.78 L 97.95,135.90 L 96.27,134.37 L 95.43,133.64 L 93.76,132.38 L 92.09,131.18 L 88.58,129.52 L 87.67,129.16 L 85.76,128.60 L 84.78,128.34 L 82.69,127.97 L 81.61,127.81 L 79.29,127.62 L 75.50,127.51 L 74.50,127.50 M 164.91,109.00 L 164.76,109.43 L 164.69,109.72 L 164.57,110.70 L 164.51,111.26 L 164.40,112.77 L 164.35,113.59 L 164.26,115.61 L 164.22,116.69 L 164.15,119.19 L 164.12,120.50 L 164.07,123.47 L 164.04,125.01 L 164.02,128.42 L 164.00,134.00 L 164.00,159.00 L 181.25,159.00 L 183.65,158.98 L 184.81,158.97 L 186.91,158.93 L 187.91,158.91 L 189.70,158.84 L 190.55,158.81 L 192.02,158.72 L 192.72,158.68 L 193.88,158.57 L 194.41,158.51 L 195.25,158.38 L 195.63,158.31 L 196.15,158.16 L 196.37,158.08 L 196.56,157.90 L 196.62,157.80 L 196.52,157.63 L 196.43,157.55 L 196.02,157.42 L 195.77,157.35 L 195.02,157.25 L 194.61,157.20 L 193.52,157.13 L 192.93,157.10 L 191.48,157.07 L 190.70,157.05 L 188.87,157.05 L 187.90,157.05 L 185.68,157.07 L 181.87,157.14 L 166.50,157.47 L 166.23,133.24 L 166.21,131.36 L 166.16,127.88 L 166.13,126.19 L 166.05,123.11 L 166.01,121.63 L 165.92,118.97 L 165.88,117.70 L 165.77,115.49 L 165.72,114.44 L 165.60,112.71 L 165.54,111.90 L 165.41,110.68 L 165.34,110.13 L 165.20,109.43 L 164.98,109.00 M 147.48,132.79 L 139.46,133.07 L 139.16,132.76 L 147.00,132.64 L 155.50,132.50 M 120.59,53.12 L 112.52,53.19 L 110.15,53.23 L 109.08,53.25 L 107.02,53.29 L 106.14,53.32 L 104.46,53.37 L 103.78,53.39 L 102.53,53.45 L 102.08,53.47 L 101.31,53.53 L 101.13,53.56 L 100.90,53.61 L 101.00,53.64 L 101.69,54.09 L 102.02,54.63 L 102.13,55.04 L 102.32,55.96 L 102.36,56.57 L 102.42,57.92 L 102.40,58.77 L 102.38,59.86 L 102.37,60.30 L 102.36,61.10 L 102.35,61.40 L 102.35,61.92 L 102.35,62.07 L 102.36,62.31 L 102.37,62.32 L 102.39,62.28 L 102.41,62.16 L 102.45,61.85 L 102.48,61.59 L 102.54,61.01 L 102.57,60.62 L 102.66,59.77 L 102.71,59.25 L 102.80,58.24 L 103.32,72.56 L 103.41,74.97 L 103.61,79.45 L 103.72,81.60 L 103.94,85.24 L 103.99,86.08 L 104.10,87.52 L 104.16,88.21 L 104.26,89.31 L 104.31,89.81 L 104.41,90.51 L 104.54,91.06 L 104.59,91.14 L 105.18,91.28 L 105.56,91.35 L 106.74,91.47 L 107.40,91.53 L 109.09,91.63 L 109.99,91.68 L 112.09,91.76 L 113.18,91.80 L 115.61,91.87 L 116.86,91.90 L 119.52,91.94 L 122.23,91.98 L 128.00,92.00 L 130.89,92.00 L 136.48,91.94 L 137.84,91.92 L 140.40,91.86 L 141.64,91.83 L 143.92,91.76 L 145.01,91.72 L 146.92,91.62 L 147.81,91.58 L 149.26,91.46 L 149.92,91.40 L 150.82,91.27 L 151.47,91.05 L 151.53,90.95 L 151.48,90.22 L 151.43,89.78 L 151.17,88.49 L 151.02,87.78 L 150.60,86.07 L 150.37,85.17 L 149.83,83.18 L 149.55,82.22 L 149.76,82.93 L 150.33,84.95 L 150.58,85.86 L 151.03,87.60 L 151.19,88.32 L 151.48,89.63 L 151.55,90.07 L 151.63,90.79 L 151.57,90.88 L 151.47,91.29 L 151.63,91.44 L 152.07,91.67 L 152.45,91.67 L 153.32,91.35 L 153.56,90.93 L 153.88,92.00 L 153.95,92.24 L 154.09,93.08 L 154.16,93.56 L 154.29,94.82 L 154.36,95.50 L 154.49,97.12 L 154.56,97.98 L 154.68,99.91 L 154.80,101.90 L 154.99,106.54 L 155.19,114.00 L 155.28,119.12 L 154.97,122.00 L 154.69,124.95 L 154.58,126.72 L 154.55,127.44 L 154.52,128.77 L 154.54,129.21 L 154.60,129.93 L 154.67,130.00 L 154.48,130.11 L 154.20,114.00 L 153.91,97.00 L 138.70,96.99 L 134.52,96.99 L 125.47,96.80 L 123.32,96.74 L 119.50,96.58 L 118.61,96.54 L 117.02,96.46 L 115.00,96.33 L 106.50,95.67 L 109.90,99.58 L 110.14,99.85 L 110.86,100.65 L 111.26,101.09 L 112.27,102.19 L 112.81,102.77 L 114.07,104.13 L 114.73,104.83 L 116.19,106.39 L 117.70,107.99 L 121.13,111.60 L 126.53,117.25 L 139.76,131.00 L 150.97,131.00 L 150.04,131.16 L 147.99,131.48 L 146.84,131.64 L 139.09,132.69 L 119.73,112.98 L 100.00,92.90 L 100.00,53.00 L 141.68,53.00 M 45.12,81.31 L 45.47,81.51 L 46.07,82.14 L 46.34,82.48 L 46.74,83.29 L 47.00,84.58 L 47.00,84.84 L 46.38,85.04 L 46.00,85.09 L 44.94,84.96 L 44.40,84.85 L 43.32,84.46 L 42.81,84.23 L 42.13,83.66 L 41.81,83.27 L 41.54,82.58 L 41.47,82.26 L 41.69,81.74 L 41.86,81.51 L 42.55,81.19 L 44.06,81.00 L 44.42,81.00 M 146.30,68.11 L 146.40,68.37 L 146.46,68.54 L 146.63,69.04 L 146.82,69.59 L 147.39,71.29 L 147.69,72.22 L 148.43,74.49 L 148.81,75.68 L 149.56,78.03 L 148.82,75.72 L 148.43,74.53 L 147.69,72.25 L 147.38,71.31 L 146.81,69.58 L 146.62,69.02 L 146.44,68.52 L 146.39,68.36 L 146.29,68.11 Z" fill="rgba(0,0,0,1)"/>
<path d="M 155.50,132.50 L 147.00,132.64 L 138.50,132.77 L 146.84,131.64 L 147.99,131.48 L 150.04,131.16 L 151.01,130.99 L 152.58,130.69 L 153.29,130.54 L 154.21,130.28 L 154.67,130.00 L 154.60,129.93 L 154.54,129.21 L 154.52,128.77 L 154.55,127.44 L 154.58,126.72 L 154.69,124.95 L 154.97,122.00 L 155.77,114.50 M 60.71,89.59 L 61.00,91.00 L 61.00,91.55 L 60.71,92.41 L 60.00,93.00 L 59.72,93.00 L 59.29,92.41 L 59.11,92.05 L 59.00,91.00 L 59.00,90.45 L 59.29,89.59 L 60.00,89.00 L 60.27,89.00 M 95.00,93.00 L 80.86,93.00 L 78.82,92.98 L 77.84,92.97 L 76.11,92.93 L 75.29,92.91 L 73.87,92.85 L 73.20,92.81 L 72.07,92.73 L 71.54,92.68 L 70.70,92.57 L 70.32,92.51 L 69.75,92.37 L 69.24,92.22 L 69.00,91.85 L 69.00,91.64 L 69.67,91.35 L 69.90,91.28 L 70.56,91.19 L 70.92,91.15 L 71.84,91.09 L 72.34,91.07 L 73.55,91.05 L 74.19,91.05 L 75.72,91.08 L 76.52,91.09 L 78.36,91.15 L 81.52,91.29 L 94.04,91.88 L 93.50,54.61 L 83.25,54.88 L 81.54,54.93 L 78.76,54.94 L 77.48,54.93 L 75.56,54.82 L 74.71,54.75 L 73.64,54.53 L 73.00,54.08 L 73.00,53.90 L 73.71,53.61 L 74.17,53.48 L 75.80,53.27 L 76.72,53.18 L 79.24,53.07 L 84.00,53.00 L 95.00,53.00 M 146.28,68.08 L 146.29,68.11 L 146.39,68.36 L 146.44,68.52 L 146.62,69.02 L 146.81,69.58 L 147.38,71.31 L 147.69,72.25 L 148.43,74.53 L 148.82,75.72 L 149.65,78.29 L 150.06,79.59 L 150.89,82.18 L 151.30,83.46 L 152.03,85.80 L 152.38,86.91 L 152.95,88.73 L 153.50,90.58 L 153.59,90.88 L 153.32,91.35 L 152.45,91.67 L 152.07,91.67 L 151.63,91.44 L 151.47,91.29 L 151.57,90.88 L 151.63,90.79 L 151.55,90.07 L 151.48,89.63 L 151.19,88.32 L 151.03,87.60 L 150.58,85.86 L 150.33,84.95 L 149.76,82.93 L 149.17,80.87 L 147.81,76.58 L 147.47,75.54 L 146.80,73.62 L 145.87,71.12 L 145.67,70.62 L 145.48,69.62 L 145.41,69.13 L 145.45,68.35 L 145.49,68.01 L 145.73,67.71 M 70.10,55.69 L 70.09,56.13 L 69.87,57.57 L 69.73,58.36 L 69.29,60.35 L 68.41,63.75 L 68.07,64.95 L 67.29,67.74 L 66.89,69.17 L 66.06,72.13 L 65.65,73.61 L 64.87,76.40 L 63.86,80.00 L 63.58,81.03 L 63.10,82.72 L 62.88,83.50 L 62.53,84.75 L 62.36,85.32 L 62.09,86.18 L 61.96,86.57 L 61.76,87.11 L 61.57,87.57 L 61.28,87.78 L 61.13,87.80 L 60.80,87.46 L 60.73,87.40 L 60.69,87.03 L 60.69,86.80 L 60.79,86.08 L 60.85,85.67 L 61.10,84.54 L 61.24,83.92 L 61.64,82.34 L 61.87,81.49 L 62.45,79.41 L 62.76,78.30 L 63.52,75.67 L 63.93,74.28 L 64.89,71.06 L 66.57,65.50 L 66.91,64.40 L 67.52,62.30 L 67.81,61.28 L 68.29,59.48 L 68.51,58.64 L 68.81,57.37 L 69.00,56.25 L 69.00,55.91 L 69.28,55.37 L 69.93,55.00 L 70.06,55.00 M 66.51,58.18 L 66.58,58.25 L 66.60,58.77 L 66.58,59.08 L 66.45,59.98 L 65.56,63.60 L 65.36,64.27 L 64.83,66.07 L 64.55,67.03 L 63.92,69.19 L 62.02,75.75 L 61.74,76.75 L 61.17,78.57 L 60.89,79.43 L 60.38,80.87 L 60.14,81.53 L 59.75,82.43 L 59.35,83.00 L 59.19,83.00 L 59.13,82.34 L 59.14,81.93 L 59.41,80.75 L 59.49,80.44 L 59.86,79.09 L 60.07,78.31 L 60.62,76.22 L 60.92,75.11 L 61.59,72.56 L 62.65,68.50 L 62.99,67.20 L 63.56,65.05 L 63.82,64.03 L 64.27,62.40 L 64.48,61.64 L 64.83,60.45 L 65.00,59.92 L 65.27,59.13 L 65.40,58.78 L 65.63,58.34 L 65.73,58.15 L 65.93,57.97 M 145.71,65.29 L 146.00,66.00 L 146.00,66.27 L 145.71,66.71 L 145.00,67.00 L 144.72,67.00 L 144.29,66.71 L 144.11,66.52 L 144.00,66.00 L 144.00,65.72 L 144.29,65.29 L 145.00,65.00 L 145.28,65.00 M 142.91,57.10 L 143.25,58.23 L 143.94,60.41 L 144.10,60.91 L 144.37,61.74 L 144.68,62.60 L 144.83,62.99 L 144.78,63.59 L 144.28,64.00 L 144.16,64.00 L 143.81,63.63 L 143.63,63.38 L 143.21,62.60 L 141.93,59.25 L 140.50,54.50 L 134.75,54.54 L 134.35,54.54 L 133.33,54.55 L 132.78,54.55 L 131.50,54.57 L 130.15,54.58 L 126.89,54.62 L 116.05,54.79 L 103.11,55.00 L 102.71,59.25 L 102.66,59.77 L 102.57,60.62 L 102.54,61.01 L 102.48,61.59 L 102.45,61.85 L 102.41,62.16 L 102.39,62.28 L 102.37,62.32 L 102.36,62.31 L 102.35,62.07 L 102.35,61.92 L 102.35,61.40 L 102.36,61.10 L 102.37,60.30 L 102.38,59.86 L 102.40,58.77 L 102.42,57.92 L 102.36,56.57 L 102.32,55.96 L 102.13,55.04 L 102.02,54.63 L 101.69,54.09 L 101.00,53.64 L 100.90,53.61 L 101.13,53.56 L 101.31,53.53 L 102.08,53.47 L 102.53,53.45 L 103.78,53.39 L 104.46,53.37 L 106.14,53.32 L 107.02,53.29 L 109.08,53.25 L 110.15,53.23 L 112.52,53.19 L 120.59,53.12 L 141.68,53.00 M 67.71,55.29 L 68.00,56.00 L 68.00,56.27 L 67.71,56.71 L 67.00,57.00 L 66.72,57.00 L 66.29,56.71 L 66.11,56.52 L 66.00,56.00 L 66.00,55.72 L 66.29,55.29 L 67.00,55.00 L 67.27,55.00 Z" fill="rgba(92,92,92,1)"/>
<path d="M 227.72,220.62 L 228.79,223.10 L 230.66,227.56 L 231.52,229.62 L 233.09,233.50 L 233.84,235.37 L 235.08,238.63 L 235.37,239.38 L 235.86,240.71 L 236.08,241.34 L 236.44,242.39 L 236.60,242.88 L 236.81,243.59 L 236.95,244.25 L 236.96,244.59 L 236.80,245.10 L 236.68,245.33 L 236.20,245.64 L 235.91,245.77 L 235.03,245.92 L 233.18,246.00 L 232.28,246.00 L 231.04,245.91 L 230.50,245.83 L 229.78,245.44 L 229.47,245.20 L 229.03,244.32 L 228.43,242.25 L 228.04,240.68 L 228.15,241.01 L 229.55,243.36 L 230.83,244.42 L 231.54,244.60 L 233.39,244.90 L 234.33,244.84 L 234.66,244.66 L 235.21,244.18 L 235.34,243.75 L 235.50,242.77 L 235.43,242.06 L 235.18,240.49 L 234.91,239.46 L 234.25,237.23 L 233.76,235.85 L 232.68,232.88 L 231.98,231.09 L 230.47,227.29 L 229.56,225.06 L 228.02,221.38 L 227.26,219.61 M 208.57,245.84 L 208.57,245.84 L 208.69,245.80 M 209.42,245.53 L 209.42,245.53 L 209.46,245.50 M 222.68,238.01 L 223.83,238.03 L 224.30,238.06 L 225.88,238.21 L 226.36,238.41 L 226.45,238.45 L 220.79,238.21 L 216.12,238.00 L 220.57,238.00 M 219.30,211.48 L 221.63,211.88 L 222.25,212.04 L 222.25,212.04 L 221.63,211.88 L 219.30,211.48 L 217.95,211.46 Z" fill="rgba(220,125,72,1)"/>
<path d="M 46.37,244.56 L 45.35,244.12 L 43.91,243.26 L 43.29,242.83 L 42.59,241.92 L 42.33,241.45 L 42.32,240.39 L 43.00,238.49 L 43.30,237.94 L 43.79,237.22 L 44.03,236.92 L 44.63,236.69 L 44.97,236.64 L 45.97,236.84 L 48.25,237.59 L 49.53,238.04 L 51.72,238.60 L 52.75,238.83 L 54.47,238.93 L 55.27,238.92 L 56.54,238.57 L 57.99,237.51 L 58.46,236.94 L 58.79,235.85 L 58.85,235.31 L 58.31,234.21 L 57.92,233.66 L 56.45,232.49 L 53.15,230.57 L 52.03,230.01 L 50.11,228.81 L 49.20,228.20 L 47.67,226.92 L 46.96,226.27 L 45.85,224.93 L 45.34,224.26 L 44.65,222.88 L 44.36,222.19 L 44.10,220.80 L 44.02,220.10 L 44.20,218.72 L 44.34,218.03 L 44.96,216.67 L 46.41,214.69 L 47.15,213.89 L 48.72,212.72 L 49.54,212.20 L 51.39,211.53 L 52.36,211.26 L 54.63,211.07 L 58.65,211.26 L 59.36,211.34 L 60.56,211.52 L 61.13,211.62 L 62.07,211.84 L 62.95,212.08 L 63.97,212.74 L 64.38,213.12 L 64.57,214.17 L 64.07,216.32 L 63.84,216.91 L 63.45,217.70 L 63.25,218.03 L 62.79,218.36 L 62.54,218.48 L 61.87,218.43 L 60.46,217.99 L 59.52,217.63 L 57.76,217.22 L 56.90,217.07 L 55.35,217.07 L 54.62,217.12 L 53.38,217.51 L 51.96,218.55 L 51.55,219.04 L 51.37,220.01 L 51.39,220.50 L 52.16,221.58 L 52.41,221.86 L 53.12,222.47 L 53.51,222.79 L 54.51,223.48 L 55.04,223.83 L 56.33,224.61 L 58.61,225.91 L 59.91,226.62 L 62.54,228.54 L 63.15,229.02 L 64.19,229.96 L 65.34,231.21 L 65.78,231.82 L 66.37,232.79 L 66.61,233.25 L 66.81,234.15 L 66.86,234.62 L 66.71,235.75 L 66.11,238.01 L 65.85,238.90 L 65.00,240.49 L 64.52,241.24 L 63.31,242.55 L 62.66,243.16 L 61.13,244.17 L 60.34,244.63 L 58.58,245.32 L 57.67,245.62 L 55.73,245.96 L 54.74,246.09 L 52.68,246.07 L 51.64,246.02 L 49.53,245.61 L 48.47,245.36 M 71.70,245.37 L 71.65,245.32 L 71.56,244.89 L 71.52,244.63 L 71.43,243.81 L 71.39,243.35 L 71.31,242.18 L 71.27,241.55 L 71.21,240.07 L 71.14,238.53 L 71.06,234.73 L 71.00,228.33 L 71.00,212.00 L 81.07,212.00 L 82.30,212.00 L 84.34,212.01 L 85.28,212.01 L 86.80,212.04 L 87.50,212.06 L 88.57,212.13 L 89.06,212.17 L 89.76,212.30 L 90.07,212.37 L 90.47,212.57 L 90.64,212.68 L 90.82,212.97 L 90.82,214.25 L 90.75,214.75 L 90.47,215.45 L 90.28,215.76 L 89.59,216.17 L 89.17,216.35 L 87.81,216.57 L 84.75,216.80 L 79.00,217.10 L 79.00,221.05 L 79.00,225.00 L 84.56,225.00 L 90.13,225.00 L 89.81,228.25 L 89.74,229.04 L 89.54,230.10 L 89.40,230.56 L 88.84,231.10 L 88.48,231.33 L 87.24,231.57 L 86.87,231.62 L 85.95,231.69 L 84.25,231.80 L 83.59,231.84 L 82.52,231.91 L 82.02,231.94 L 81.22,232.03 L 80.48,232.13 L 79.66,232.49 L 79.33,232.72 L 79.08,233.53 L 79.00,235.50 L 79.00,238.90 L 84.75,239.20 L 85.46,239.24 L 86.62,239.31 L 87.16,239.34 L 88.03,239.43 L 88.84,239.52 L 89.75,239.85 L 90.11,240.06 L 90.40,240.78 L 90.50,242.50 L 90.50,245.50 L 81.45,245.78 L 80.21,245.82 L 77.88,245.84 L 76.77,245.84 L 74.85,245.78 L 73.97,245.74 L 72.69,245.62 L 72.14,245.55 M 96.71,245.38 L 96.66,245.33 L 96.57,244.90 L 96.52,244.64 L 96.44,243.81 L 96.39,243.36 L 96.31,242.18 L 96.28,241.56 L 96.21,240.08 L 96.14,238.53 L 96.06,234.73 L 96.00,228.33 L 96.00,212.00 L 105.43,212.00 L 106.55,212.00 L 108.42,212.01 L 109.30,212.02 L 110.74,212.06 L 111.41,212.08 L 112.50,212.17 L 113.00,212.22 L 113.81,212.37 L 114.56,212.55 L 115.56,213.16 L 116.93,214.63 L 117.76,215.69 L 118.70,218.01 L 119.05,219.19 L 119.06,221.64 L 118.96,222.86 L 118.05,225.23 L 115.68,228.52 L 112.36,231.84 L 117.14,237.17 L 117.78,237.89 L 118.85,239.13 L 119.36,239.72 L 120.17,240.74 L 120.54,241.22 L 121.09,242.04 L 121.33,242.43 L 121.63,243.08 L 121.88,243.69 L 121.67,244.51 L 120.42,245.39 L 119.51,245.74 L 117.96,245.94 L 117.20,245.94 L 115.72,245.31 L 115.33,245.10 L 114.53,244.48 L 114.12,244.14 L 113.22,243.26 L 112.76,242.78 L 111.73,241.61 L 110.00,239.50 L 109.29,238.61 L 107.92,236.98 L 107.26,236.20 L 106.09,234.91 L 105.55,234.32 L 104.71,233.51 L 103.96,233.00 L 103.84,233.00 L 103.60,233.49 L 103.48,233.81 L 103.26,234.84 L 103.16,235.40 L 102.98,236.82 L 102.80,239.25 L 102.76,239.98 L 102.69,241.20 L 102.66,241.77 L 102.57,242.70 L 102.48,243.57 L 102.17,244.61 L 101.98,245.05 L 101.37,245.48 L 99.96,245.80 L 99.26,245.88 L 97.96,245.80 L 97.37,245.72 M 109.43,225.43 L 109.85,225.00 L 110.47,224.09 L 110.73,223.63 L 111.04,222.67 L 111.16,222.20 L 111.19,221.26 L 111.17,220.80 L 110.93,219.94 L 110.77,219.52 L 110.29,218.77 L 110.02,218.41 L 109.30,217.84 L 108.92,217.58 L 107.99,217.22 L 106.39,217.00 L 105.56,217.00 L 104.46,217.08 L 103.98,217.15 L 103.45,217.57 L 103.23,217.84 L 103.06,218.86 L 103.00,221.33 L 103.00,222.52 L 103.20,224.59 L 103.26,225.04 L 103.41,225.73 L 103.67,226.33 L 103.96,226.63 L 104.84,226.92 L 105.31,227.01 L 106.38,226.93 L 106.93,226.84 L 108.01,226.42 L 108.54,226.17 M 137.25,244.75 L 137.16,244.64 L 136.87,244.12 L 136.71,243.82 L 136.28,242.95 L 136.05,242.48 L 135.51,241.32 L 135.22,240.71 L 134.59,239.31 L 133.93,237.85 L 132.44,234.43 L 131.68,232.67 L 130.10,228.95 L 129.31,227.09 L 127.82,223.47 L 127.10,221.72 L 125.87,218.63 L 125.59,217.91 L 125.10,216.63 L 124.87,216.03 L 124.51,215.03 L 124.35,214.57 L 124.13,213.89 L 124.00,213.30 L 124.00,213.09 L 124.25,212.74 L 124.41,212.58 L 124.97,212.34 L 125.29,212.23 L 126.15,212.09 L 127.75,212.00 L 131.50,212.01 L 135.42,222.55 L 135.81,223.61 L 136.49,225.41 L 136.82,226.26 L 137.40,227.69 L 137.68,228.36 L 138.16,229.45 L 138.39,229.95 L 138.79,230.72 L 138.98,231.07 L 139.32,231.55 L 139.48,231.75 L 139.78,231.97 L 140.55,231.80 L 140.68,231.66 L 141.08,230.95 L 141.30,230.54 L 141.85,229.35 L 142.14,228.72 L 142.80,227.18 L 143.13,226.38 L 143.85,224.60 L 144.57,222.78 L 145.99,218.93 L 146.33,217.99 L 146.94,216.19 L 147.71,213.75 L 147.81,213.43 L 148.16,212.94 L 148.37,212.71 L 148.99,212.40 L 149.34,212.26 L 150.29,212.09 L 152.12,212.00 L 153.18,212.00 L 154.86,212.24 L 155.21,212.31 L 155.69,212.50 L 156.00,212.81 L 156.00,212.90 L 155.90,213.31 L 155.83,213.55 L 155.60,214.24 L 155.35,214.99 L 154.53,217.17 L 154.08,218.35 L 152.95,221.19 L 152.37,222.66 L 151.06,225.84 L 149.73,229.07 L 147.03,235.36 L 146.40,236.82 L 145.26,239.35 L 143.87,242.25 L 143.38,243.21 L 142.28,244.60 L 141.71,245.20 L 140.54,245.84 L 139.95,246.06 L 138.81,245.91 L 138.25,245.73 M 179.67,245.33 L 179.62,245.29 L 179.53,244.87 L 179.49,244.60 L 179.41,243.79 L 179.37,243.33 L 179.29,242.16 L 179.26,241.54 L 179.20,240.06 L 179.14,238.52 L 179.05,234.73 L 179.00,228.33 L 179.00,212.00 L 183.25,211.87 L 184.63,211.83 L 187.04,211.79 L 188.19,211.77 L 190.17,211.80 L 191.11,211.82 L 192.72,211.92 L 193.49,211.98 L 194.78,212.16 L 196.01,212.36 L 197.75,213.06 L 199.75,214.62 L 200.18,215.09 L 200.87,216.18 L 201.19,216.74 L 201.64,217.96 L 202.04,219.19 L 202.14,221.85 L 202.08,223.18 L 201.28,225.75 L 201.02,226.37 L 200.34,227.52 L 199.08,229.08 L 198.46,229.69 L 197.39,230.57 L 196.86,230.96 L 195.76,231.46 L 195.18,231.67 L 193.79,231.89 L 191.08,232.00 L 186.00,232.00 L 186.00,237.96 L 186.00,239.18 L 185.92,241.00 L 185.86,241.81 L 185.63,242.98 L 185.48,243.49 L 185.03,244.20 L 184.07,244.96 L 183.50,245.26 L 182.56,245.66 L 182.12,245.82 L 181.38,245.95 L 181.02,245.98 L 180.43,245.84 L 180.15,245.74 M 192.39,225.71 L 193.01,225.25 L 193.66,223.90 L 193.78,223.52 L 193.88,222.59 L 193.83,220.96 L 193.75,220.16 L 193.55,219.06 L 193.43,218.58 L 192.98,217.98 L 192.70,217.73 L 191.81,217.45 L 189.75,217.19 L 186.00,216.88 L 186.00,221.27 L 186.00,222.48 L 186.20,224.57 L 186.26,225.03 L 186.41,225.73 L 186.67,226.33 L 186.93,226.60 L 187.74,226.88 L 188.18,226.98 L 189.21,226.95 L 189.74,226.89 L 190.84,226.54 L 191.38,226.34 M 204.00,244.03 L 204.00,243.85 L 204.14,243.20 L 204.23,242.83 L 204.53,241.84 L 204.69,241.30 L 205.13,240.02 L 205.37,239.35 L 205.93,237.83 L 206.51,236.27 L 207.93,232.66 L 208.67,230.81 L 210.27,226.95 L 211.08,225.02 L 212.68,221.34 L 213.47,219.57 L 214.89,216.49 L 215.22,215.78 L 215.83,214.54 L 216.12,213.96 L 216.62,213.03 L 216.86,212.60 L 217.23,212.02 L 217.62,211.59 L 217.95,211.46 L 219.30,211.48 L 221.63,211.88 L 222.25,212.04 L 223.28,212.68 L 223.53,212.88 L 224.04,213.45 L 224.29,213.77 L 224.83,214.61 L 225.11,215.08 L 225.72,216.26 L 226.04,216.90 L 226.77,218.48 L 227.15,219.33 L 228.02,221.38 L 229.56,225.06 L 230.47,227.29 L 231.98,231.09 L 232.68,232.88 L 233.76,235.85 L 234.25,237.23 L 234.91,239.46 L 235.18,240.49 L 235.43,242.06 L 235.50,242.77 L 235.34,243.75 L 235.21,244.18 L 234.66,244.66 L 234.33,244.84 L 233.39,244.90 L 231.54,244.60 L 230.83,244.42 L 229.55,243.36 L 228.15,241.01 L 227.90,240.27 L 227.43,239.30 L 227.17,238.88 L 226.36,238.41 L 225.88,238.21 L 224.30,238.06 L 223.83,238.03 L 222.68,238.01 L 220.57,238.00 L 214.04,238.00 L 212.00,242.00 L 211.58,242.83 L 210.85,244.02 L 210.49,244.55 L 209.78,245.24 L 209.41,245.54 L 208.57,245.84 L 206.98,246.00 L 206.41,246.00 L 205.55,245.91 L 205.16,245.84 L 204.63,245.58 L 204.40,245.43 L 204.14,244.98 L 204.04,244.72 M 224.00,230.62 L 224.00,230.40 L 223.88,229.75 L 223.80,229.40 L 223.54,228.54 L 223.27,227.65 L 222.49,225.66 L 222.09,224.69 L 221.30,223.10 L 221.11,222.77 L 220.80,222.30 L 220.44,222.00 L 220.33,222.00 L 220.00,222.36 L 219.82,222.59 L 219.39,223.32 L 218.95,224.11 L 218.00,226.28 L 217.55,227.38 L 216.87,229.41 L 216.74,229.86 L 216.60,230.56 L 216.63,231.21 L 216.74,231.38 L 217.20,231.65 L 217.46,231.77 L 218.15,231.93 L 218.88,232.05 L 220.64,232.01 L 221.51,231.94 L 222.97,231.54 L 223.28,231.43 L 223.72,231.13 L 223.90,230.98 M 240.70,245.37 L 240.65,245.32 L 240.56,244.89 L 240.52,244.63 L 240.43,243.81 L 240.39,243.35 L 240.31,242.18 L 240.27,241.55 L 240.21,240.08 L 240.14,238.53 L 240.06,234.73 L 240.00,228.33 L 240.00,212.00 L 243.47,212.00 L 246.94,212.00 L 247.22,225.25 L 247.50,238.50 L 253.31,238.80 L 259.12,239.10 L 258.81,242.30 L 258.50,245.50 L 249.95,245.79 L 248.78,245.83 L 246.58,245.84 L 245.52,245.84 L 243.71,245.78 L 242.87,245.74 L 241.65,245.62 L 241.13,245.55 M 159.38,235.55 L 159.04,234.65 L 158.95,233.31 L 158.99,233.01 L 159.22,232.52 L 159.37,232.28 L 159.84,231.91 L 160.11,231.75 L 160.83,231.50 L 161.23,231.38 L 162.21,231.25 L 162.74,231.19 L 164.01,231.15 L 166.24,231.20 L 166.98,231.24 L 168.21,231.31 L 168.79,231.34 L 169.72,231.43 L 170.58,231.52 L 171.59,231.82 L 172.01,232.00 L 172.36,232.60 L 172.50,234.00 L 172.50,234.59 L 172.36,235.40 L 172.23,235.75 L 171.59,236.18 L 171.18,236.37 L 169.72,236.57 L 169.29,236.62 L 168.21,236.69 L 166.24,236.80 L 165.01,236.86 L 163.15,236.87 L 162.32,236.86 L 161.14,236.72 L 160.62,236.62 L 159.96,236.29 L 159.68,236.10 Z" fill="rgba(232,107,37,1)"/>
</g>
</svg>