<svg width="24" height="24" viewBox="0 0 24 24" fill="none" xmlns="http://www.w3.org/2000/svg">
<mask id="path-1-outside-1_55_356" maskUnits="userSpaceOnUse" x="1" y="1" width="22" height="22" fill="black">
<rect fill="white" x="1" y="1" width="22" height="22"/>
<path d="M7.18952 2.00025C6.75762 2.00454 6.31954 2.06263 5.88288 2.17977C3.09056 2.92785 1.43108 5.80255 2.17963 8.59534C2.24772 8.84867 2.50915 8.99962 2.76295 8.932L6.90238 7.82345L8.91472 15.3323H3.90007C2.852 15.3323 2.00011 16.1856 2.00011 17.2371C2.00011 18.2885 2.852 19.1418 3.90007 19.1418H4.56339L3.47865 21.3108C3.4222 21.4238 3.41296 21.5546 3.45297 21.6745C3.49297 21.7943 3.57895 21.8934 3.69198 21.9498C3.80501 22.0063 3.93583 22.0155 4.05568 21.9755C4.17552 21.9355 4.27456 21.8495 4.33101 21.7365L5.62812 19.1418H9.93517L10.6066 21.6465C10.6393 21.7685 10.7191 21.8725 10.8285 21.9356C10.9379 21.9988 11.0679 22.0158 11.1899 21.9831C11.3119 21.9504 11.4159 21.8706 11.479 21.7612C11.5422 21.6518 11.5593 21.5218 11.5266 21.3998L10.9209 19.1418H14.5622L15.8593 21.7365C15.9158 21.8495 16.0148 21.9355 16.1347 21.9755C16.2545 22.0155 16.3853 22.0063 16.4984 21.9498C16.6114 21.8934 16.6974 21.7943 16.7374 21.6745C16.7774 21.5546 16.7681 21.4238 16.7117 21.3108L15.6093 19.1075C15.7972 19.0658 15.9784 18.9985 16.1479 18.9075C16.4246 18.7571 16.6802 18.5708 16.9079 18.3532L21.4249 13.8219C21.7805 13.4641 21.9802 12.9802 21.9802 12.4757C21.9802 11.9713 21.7805 11.4873 21.4249 11.1296C21.2486 10.9526 21.039 10.8122 20.8083 10.7164C20.5776 10.6206 20.3302 10.5713 20.0804 10.5713C19.8306 10.5713 19.5832 10.6206 19.3525 10.7164C19.1218 10.8122 18.9123 10.9526 18.7359 11.1296L14.5455 15.3323H9.90089L7.82331 7.57584L11.9618 6.46729C12.2156 6.3992 12.3665 6.13682 12.2985 5.88302C11.667 3.52688 9.52185 1.97739 7.18952 2.00025ZM17.714 2.00025C17.5878 2.00025 17.4666 2.05042 17.3773 2.13972C17.288 2.22902 17.2379 2.35014 17.2379 2.47643V3.42879C17.2379 3.55508 17.288 3.6762 17.3773 3.7655C17.4666 3.8548 17.5878 3.90497 17.714 3.90497C17.8403 3.90497 17.9615 3.8548 18.0508 3.7655C18.1401 3.6762 18.1902 3.55508 18.1902 3.42879V2.47643C18.1902 2.35014 18.1401 2.22902 18.0508 2.13972C17.9615 2.05042 17.8403 2.00025 17.714 2.00025ZM7.32475 2.95356C8.17179 2.97135 8.99462 3.23945 9.68956 3.72407C10.3845 4.20868 10.9205 4.88814 11.2299 5.67683L7.12095 6.77776L7.11523 6.77871L7.11047 6.78062L3.00199 7.88202C2.67676 5.75207 4.00007 3.67021 6.12954 3.09975C6.51908 2.99503 6.92146 2.94582 7.32475 2.95356ZM15.0208 3.11641C14.9265 3.11621 14.8343 3.14401 14.7559 3.1963C14.6774 3.24858 14.6163 3.323 14.5802 3.41009C14.5442 3.49718 14.5348 3.59303 14.5533 3.68546C14.5718 3.77789 14.6173 3.86275 14.6841 3.92925L15.3574 4.60257C15.4472 4.68931 15.5675 4.73731 15.6924 4.73622C15.8172 4.73514 15.9367 4.68506 16.0249 4.59677C16.1132 4.50848 16.1633 4.38905 16.1644 4.2642C16.1655 4.13935 16.1175 4.01906 16.0307 3.92925L15.3574 3.25594C15.3133 3.21165 15.2608 3.17653 15.203 3.15259C15.1452 3.12864 15.0833 3.11635 15.0208 3.11641ZM20.4073 3.11641C20.3448 3.11635 20.2828 3.12864 20.2251 3.15259C20.1673 3.17653 20.1148 3.21165 20.0707 3.25594L19.3973 3.92925C19.3106 4.01906 19.2626 4.13935 19.2637 4.2642C19.2648 4.38905 19.3149 4.50848 19.4031 4.59677C19.4914 4.68506 19.6109 4.73514 19.7357 4.73622C19.8606 4.73731 19.9809 4.68931 20.0707 4.60257L20.744 3.92925C20.8108 3.86275 20.8563 3.77789 20.8748 3.68546C20.8933 3.59303 20.8839 3.49718 20.8479 3.41009C20.8118 3.323 20.7507 3.24858 20.6722 3.1963C20.5938 3.14401 20.5016 3.11621 20.4073 3.11641ZM17.714 4.38115C16.6626 4.38115 15.8093 5.23446 15.8093 6.28587C15.8093 7.33727 16.6626 8.19059 17.714 8.19059C18.7654 8.19059 19.6188 7.33727 19.6188 6.28587C19.6188 5.23446 18.7654 4.38115 17.714 4.38115ZM17.714 5.33351C17.8391 5.33354 17.963 5.35821 18.0786 5.40611C18.1941 5.45401 18.2991 5.52421 18.3876 5.61269C18.476 5.70116 18.5461 5.8062 18.594 5.92178C18.6418 6.03737 18.6664 6.16125 18.6664 6.28634C18.6664 6.41144 18.6417 6.53531 18.5938 6.65087C18.5459 6.76643 18.4757 6.87143 18.3872 6.95986C18.2987 7.0483 18.1937 7.11844 18.0781 7.16628C17.9625 7.21413 17.8387 7.23874 17.7136 7.2387C17.4609 7.23864 17.2187 7.13822 17.04 6.95953C16.8614 6.78083 16.7611 6.53851 16.7612 6.28587C16.7613 6.03322 16.8617 5.79095 17.0404 5.61235C17.2191 5.43375 17.4614 5.33345 17.714 5.33351ZM13.9046 5.80969C13.7783 5.80969 13.6572 5.85986 13.5679 5.94916C13.4786 6.03846 13.4284 6.15958 13.4284 6.28587C13.4284 6.41216 13.4786 6.53328 13.5679 6.62258C13.6572 6.71188 13.7783 6.76205 13.9046 6.76205H14.857C14.9833 6.76205 15.1044 6.71188 15.1937 6.62258C15.283 6.53328 15.3331 6.41216 15.3331 6.28587C15.3331 6.15958 15.283 6.03846 15.1937 5.94916C15.1044 5.85986 14.9833 5.80969 14.857 5.80969H13.9046ZM20.5711 5.80969C20.4448 5.80969 20.3237 5.85986 20.2344 5.94916C20.1451 6.03846 20.0949 6.15958 20.0949 6.28587C20.0949 6.41216 20.1451 6.53328 20.2344 6.62258C20.3237 6.71188 20.4448 6.76205 20.5711 6.76205H21.5235C21.6498 6.76205 21.7709 6.71188 21.8602 6.62258C21.9495 6.53328 21.9997 6.41216 21.9997 6.28587C21.9997 6.15958 21.9495 6.03846 21.8602 5.94916C21.7709 5.85986 21.6498 5.80969 21.5235 5.80969H20.5711ZM15.6941 7.82964C15.6316 7.82958 15.5696 7.84187 15.5118 7.86581C15.4541 7.88976 15.4016 7.92488 15.3574 7.96916L14.6841 8.64248C14.5948 8.73177 14.5447 8.85287 14.5447 8.97914C14.5447 9.10541 14.5948 9.22651 14.6841 9.3158C14.7734 9.40509 14.8945 9.45525 15.0208 9.45525C15.147 9.45525 15.2681 9.40509 15.3574 9.3158L16.0307 8.64248C16.0973 8.57589 16.1427 8.49105 16.161 8.39869C16.1794 8.30634 16.17 8.21061 16.1339 8.12361C16.0979 8.03661 16.0369 7.96225 15.9586 7.90993C15.8803 7.8576 15.7883 7.82966 15.6941 7.82964ZM19.734 7.82964C19.6398 7.82966 19.5478 7.8576 19.4695 7.90993C19.3912 7.96225 19.3302 8.03661 19.2942 8.12361C19.2581 8.21061 19.2487 8.30634 19.2671 8.39869C19.2854 8.49105 19.3308 8.57589 19.3973 8.64248L20.0707 9.3158C20.1149 9.36001 20.1674 9.39508 20.2251 9.41901C20.2829 9.44293 20.3448 9.45525 20.4073 9.45525C20.4698 9.45525 20.5318 9.44293 20.5895 9.41901C20.6473 9.39508 20.6998 9.36001 20.744 9.3158C20.7882 9.27159 20.8233 9.2191 20.8472 9.16134C20.8711 9.10358 20.8834 9.04166 20.8834 8.97914C20.8834 8.91662 20.8711 8.85471 20.8472 8.79694C20.8233 8.73918 20.7882 8.68669 20.744 8.64248L20.0707 7.96916C20.0265 7.92488 19.974 7.88976 19.9162 7.86581C19.8585 7.84187 19.7965 7.82958 19.734 7.82964ZM17.714 8.66677C17.5878 8.66677 17.4666 8.71694 17.3773 8.80624C17.288 8.89554 17.2379 9.01666 17.2379 9.14295V10.0953C17.2379 10.2216 17.288 10.3427 17.3773 10.432C17.4666 10.5213 17.5878 10.5715 17.714 10.5715C17.8403 10.5715 17.9615 10.5213 18.0508 10.432C18.1401 10.3427 18.1902 10.2216 18.1902 10.0953V9.14295C18.1902 9.01666 18.1401 8.89554 18.0508 8.80624C17.9615 8.71694 17.8403 8.66677 17.714 8.66677ZM20.0802 11.5238C20.3226 11.5238 20.5659 11.6167 20.7506 11.8019C20.9288 11.9809 21.0288 12.2232 21.0288 12.4757C21.0288 12.7283 20.9288 12.9705 20.7506 13.1495L16.2336 17.6809C16.1484 17.7661 15.9384 17.9399 15.7003 18.0666C15.5793 18.1308 15.4522 18.1894 15.3331 18.1894H3.90007C3.37675 18.1894 2.95247 17.7623 2.95247 17.2371C2.95247 16.7118 3.37675 16.2847 3.90007 16.2847H14.7436C14.8699 16.2847 14.991 16.2345 15.0803 16.1452L19.4102 11.8019C19.498 11.7137 19.6025 11.6437 19.7174 11.596C19.8324 11.5483 19.9557 11.5238 20.0802 11.5238Z"/>
</mask>
<path d="M7.18952 2.00025C6.75762 2.00454 6.31954 2.06263 5.88288 2.17977C3.09056 2.92785 1.43108 5.80255 2.17963 8.59534C2.24772 8.84867 2.50915 8.99962 2.76295 8.932L6.90238 7.82345L8.91472 15.3323H3.90007C2.852 15.3323 2.00011 16.1856 2.00011 17.2371C2.00011 18.2885 2.852 19.1418 3.90007 19.1418H4.56339L3.47865 21.3108C3.4222 21.4238 3.41296 21.5546 3.45297 21.6745C3.49297 21.7943 3.57895 21.8934 3.69198 21.9498C3.80501 22.0063 3.93583 22.0155 4.05568 21.9755C4.17552 21.9355 4.27456 21.8495 4.33101 21.7365L5.62812 19.1418H9.93517L10.6066 21.6465C10.6393 21.7685 10.7191 21.8725 10.8285 21.9356C10.9379 21.9988 11.0679 22.0158 11.1899 21.9831C11.3119 21.9504 11.4159 21.8706 11.479 21.7612C11.5422 21.6518 11.5593 21.5218 11.5266 21.3998L10.9209 19.1418H14.5622L15.8593 21.7365C15.9158 21.8495 16.0148 21.9355 16.1347 21.9755C16.2545 22.0155 16.3853 22.0063 16.4984 21.9498C16.6114 21.8934 16.6974 21.7943 16.7374 21.6745C16.7774 21.5546 16.7681 21.4238 16.7117 21.3108L15.6093 19.1075C15.7972 19.0658 15.9784 18.9985 16.1479 18.9075C16.4246 18.7571 16.6802 18.5708 16.9079 18.3532L21.4249 13.8219C21.7805 13.4641 21.9802 12.9802 21.9802 12.4757C21.9802 11.9713 21.7805 11.4873 21.4249 11.1296C21.2486 10.9526 21.039 10.8122 20.8083 10.7164C20.5776 10.6206 20.3302 10.5713 20.0804 10.5713C19.8306 10.5713 19.5832 10.6206 19.3525 10.7164C19.1218 10.8122 18.9123 10.9526 18.7359 11.1296L14.5455 15.3323H9.90089L7.82331 7.57584L11.9618 6.46729C12.2156 6.3992 12.3665 6.13682 12.2985 5.88302C11.667 3.52688 9.52185 1.97739 7.18952 2.00025ZM17.714 2.00025C17.5878 2.00025 17.4666 2.05042 17.3773 2.13972C17.288 2.22902 17.2379 2.35014 17.2379 2.47643V3.42879C17.2379 3.55508 17.288 3.6762 17.3773 3.7655C17.4666 3.8548 17.5878 3.90497 17.714 3.90497C17.8403 3.90497 17.9615 3.8548 18.0508 3.7655C18.1401 3.6762 18.1902 3.55508 18.1902 3.42879V2.47643C18.1902 2.35014 18.1401 2.22902 18.0508 2.13972C17.9615 2.05042 17.8403 2.00025 17.714 2.00025ZM7.32475 2.95356C8.17179 2.97135 8.99462 3.23945 9.68956 3.72407C10.3845 4.20868 10.9205 4.88814 11.2299 5.67683L7.12095 6.77776L7.11523 6.77871L7.11047 6.78062L3.00199 7.88202C2.67676 5.75207 4.00007 3.67021 6.12954 3.09975C6.51908 2.99503 6.92146 2.94582 7.32475 2.95356ZM15.0208 3.11641C14.9265 3.11621 14.8343 3.14401 14.7559 3.1963C14.6774 3.24858 14.6163 3.323 14.5802 3.41009C14.5442 3.49718 14.5348 3.59303 14.5533 3.68546C14.5718 3.77789 14.6173 3.86275 14.6841 3.92925L15.3574 4.60257C15.4472 4.68931 15.5675 4.73731 15.6924 4.73622C15.8172 4.73514 15.9367 4.68506 16.0249 4.59677C16.1132 4.50848 16.1633 4.38905 16.1644 4.2642C16.1655 4.13935 16.1175 4.01906 16.0307 3.92925L15.3574 3.25594C15.3133 3.21165 15.2608 3.17653 15.203 3.15259C15.1452 3.12864 15.0833 3.11635 15.0208 3.11641ZM20.4073 3.11641C20.3448 3.11635 20.2828 3.12864 20.2251 3.15259C20.1673 3.17653 20.1148 3.21165 20.0707 3.25594L19.3973 3.92925C19.3106 4.01906 19.2626 4.13935 19.2637 4.2642C19.2648 4.38905 19.3149 4.50848 19.4031 4.59677C19.4914 4.68506 19.6109 4.73514 19.7357 4.73622C19.8606 4.73731 19.9809 4.68931 20.0707 4.60257L20.744 3.92925C20.8108 3.86275 20.8563 3.77789 20.8748 3.68546C20.8933 3.59303 20.8839 3.49718 20.8479 3.41009C20.8118 3.323 20.7507 3.24858 20.6722 3.1963C20.5938 3.14401 20.5016 3.11621 20.4073 3.11641ZM17.714 4.38115C16.6626 4.38115 15.8093 5.23446 15.8093 6.28587C15.8093 7.33727 16.6626 8.19059 17.714 8.19059C18.7654 8.19059 19.6188 7.33727 19.6188 6.28587C19.6188 5.23446 18.7654 4.38115 17.714 4.38115ZM17.714 5.33351C17.8391 5.33354 17.963 5.35821 18.0786 5.40611C18.1941 5.45401 18.2991 5.52421 18.3876 5.61269C18.476 5.70116 18.5461 5.8062 18.594 5.92178C18.6418 6.03737 18.6664 6.16125 18.6664 6.28634C18.6664 6.41144 18.6417 6.53531 18.5938 6.65087C18.5459 6.76643 18.4757 6.87143 18.3872 6.95986C18.2987 7.0483 18.1937 7.11844 18.0781 7.16628C17.9625 7.21413 17.8387 7.23874 17.7136 7.2387C17.4609 7.23864 17.2187 7.13822 17.04 6.95953C16.8614 6.78083 16.7611 6.53851 16.7612 6.28587C16.7613 6.03322 16.8617 5.79095 17.0404 5.61235C17.2191 5.43375 17.4614 5.33345 17.714 5.33351ZM13.9046 5.80969C13.7783 5.80969 13.6572 5.85986 13.5679 5.94916C13.4786 6.03846 13.4284 6.15958 13.4284 6.28587C13.4284 6.41216 13.4786 6.53328 13.5679 6.62258C13.6572 6.71188 13.7783 6.76205 13.9046 6.76205H14.857C14.9833 6.76205 15.1044 6.71188 15.1937 6.62258C15.283 6.53328 15.3331 6.41216 15.3331 6.28587C15.3331 6.15958 15.283 6.03846 15.1937 5.94916C15.1044 5.85986 14.9833 5.80969 14.857 5.80969H13.9046ZM20.5711 5.80969C20.4448 5.80969 20.3237 5.85986 20.2344 5.94916C20.1451 6.03846 20.0949 6.15958 20.0949 6.28587C20.0949 6.41216 20.1451 6.53328 20.2344 6.62258C20.3237 6.71188 20.4448 6.76205 20.5711 6.76205H21.5235C21.6498 6.76205 21.7709 6.71188 21.8602 6.62258C21.9495 6.53328 21.9997 6.41216 21.9997 6.28587C21.9997 6.15958 21.9495 6.03846 21.8602 5.94916C21.7709 5.85986 21.6498 5.80969 21.5235 5.80969H20.5711ZM15.6941 7.82964C15.6316 7.82958 15.5696 7.84187 15.5118 7.86581C15.4541 7.88976 15.4016 7.92488 15.3574 7.96916L14.6841 8.64248C14.5948 8.73177 14.5447 8.85287 14.5447 8.97914C14.5447 9.10541 14.5948 9.22651 14.6841 9.3158C14.7734 9.40509 14.8945 9.45525 15.0208 9.45525C15.147 9.45525 15.2681 9.40509 15.3574 9.3158L16.0307 8.64248C16.0973 8.57589 16.1427 8.49105 16.161 8.39869C16.1794 8.30634 16.17 8.21061 16.1339 8.12361C16.0979 8.03661 16.0369 7.96225 15.9586 7.90993C15.8803 7.8576 15.7883 7.82966 15.6941 7.82964ZM19.734 7.82964C19.6398 7.82966 19.5478 7.8576 19.4695 7.90993C19.3912 7.96225 19.3302 8.03661 19.2942 8.12361C19.2581 8.21061 19.2487 8.30634 19.2671 8.39869C19.2854 8.49105 19.3308 8.57589 19.3973 8.64248L20.0707 9.3158C20.1149 9.36001 20.1674 9.39508 20.2251 9.41901C20.2829 9.44293 20.3448 9.45525 20.4073 9.45525C20.4698 9.45525 20.5318 9.44293 20.5895 9.41901C20.6473 9.39508 20.6998 9.36001 20.744 9.3158C20.7882 9.27159 20.8233 9.2191 20.8472 9.16134C20.8711 9.10358 20.8834 9.04166 20.8834 8.97914C20.8834 8.91662 20.8711 8.85471 20.8472 8.79694C20.8233 8.73918 20.7882 8.68669 20.744 8.64248L20.0707 7.96916C20.0265 7.92488 19.974 7.88976 19.9162 7.86581C19.8585 7.84187 19.7965 7.82958 19.734 7.82964ZM17.714 8.66677C17.5878 8.66677 17.4666 8.71694 17.3773 8.80624C17.288 8.89554 17.2379 9.01666 17.2379 9.14295V10.0953C17.2379 10.2216 17.288 10.3427 17.3773 10.432C17.4666 10.5213 17.5878 10.5715 17.714 10.5715C17.8403 10.5715 17.9615 10.5213 18.0508 10.432C18.1401 10.3427 18.1902 10.2216 18.1902 10.0953V9.14295C18.1902 9.01666 18.1401 8.89554 18.0508 8.80624C17.9615 8.71694 17.8403 8.66677 17.714 8.66677ZM20.0802 11.5238C20.3226 11.5238 20.5659 11.6167 20.7506 11.8019C20.9288 11.9809 21.0288 12.2232 21.0288 12.4757C21.0288 12.7283 20.9288 12.9705 20.7506 13.1495L16.2336 17.6809C16.1484 17.7661 15.9384 17.9399 15.7003 18.0666C15.5793 18.1308 15.4522 18.1894 15.3331 18.1894H3.90007C3.37675 18.1894 2.95247 17.7623 2.95247 17.2371C2.95247 16.7118 3.37675 16.2847 3.90007 16.2847H14.7436C14.8699 16.2847 14.991 16.2345 15.0803 16.1452L19.4102 11.8019C19.498 11.7137 19.6025 11.6437 19.7174 11.596C19.8324 11.5483 19.9557 11.5238 20.0802 11.5238Z" fill="#101317"/>
<path d="M7.18952 2.00025C6.75762 2.00454 6.31954 2.06263 5.88288 2.17977C3.09056 2.92785 1.43108 5.80255 2.17963 8.59534C2.24772 8.84867 2.50915 8.99962 2.76295 8.932L6.90238 7.82345L8.91472 15.3323H3.90007C2.852 15.3323 2.00011 16.1856 2.00011 17.2371C2.00011 18.2885 2.852 19.1418 3.90007 19.1418H4.56339L3.47865 21.3108C3.4222 21.4238 3.41296 21.5546 3.45297 21.6745C3.49297 21.7943 3.57895 21.8934 3.69198 21.9498C3.80501 22.0063 3.93583 22.0155 4.05568 21.9755C4.17552 21.9355 4.27456 21.8495 4.33101 21.7365L5.62812 19.1418H9.93517L10.6066 21.6465C10.6393 21.7685 10.7191 21.8725 10.8285 21.9356C10.9379 21.9988 11.0679 22.0158 11.1899 21.9831C11.3119 21.9504 11.4159 21.8706 11.479 21.7612C11.5422 21.6518 11.5593 21.5218 11.5266 21.3998L10.9209 19.1418H14.5622L15.8593 21.7365C15.9158 21.8495 16.0148 21.9355 16.1347 21.9755C16.2545 22.0155 16.3853 22.0063 16.4984 21.9498C16.6114 21.8934 16.6974 21.7943 16.7374 21.6745C16.7774 21.5546 16.7681 21.4238 16.7117 21.3108L15.6093 19.1075C15.7972 19.0658 15.9784 18.9985 16.1479 18.9075C16.4246 18.7571 16.6802 18.5708 16.9079 18.3532L21.4249 13.8219C21.7805 13.4641 21.9802 12.9802 21.9802 12.4757C21.9802 11.9713 21.7805 11.4873 21.4249 11.1296C21.2486 10.9526 21.039 10.8122 20.8083 10.7164C20.5776 10.6206 20.3302 10.5713 20.0804 10.5713C19.8306 10.5713 19.5832 10.6206 19.3525 10.7164C19.1218 10.8122 18.9123 10.9526 18.7359 11.1296L14.5455 15.3323H9.90089L7.82331 7.57584L11.9618 6.46729C12.2156 6.3992 12.3665 6.13682 12.2985 5.88302C11.667 3.52688 9.52185 1.97739 7.18952 2.00025ZM17.714 2.00025C17.5878 2.00025 17.4666 2.05042 17.3773 2.13972C17.288 2.22902 17.2379 2.35014 17.2379 2.47643V3.42879C17.2379 3.55508 17.288 3.6762 17.3773 3.7655C17.4666 3.8548 17.5878 3.90497 17.714 3.90497C17.8403 3.90497 17.9615 3.8548 18.0508 3.7655C18.1401 3.6762 18.1902 3.55508 18.1902 3.42879V2.47643C18.1902 2.35014 18.1401 2.22902 18.0508 2.13972C17.9615 2.05042 17.8403 2.00025 17.714 2.00025ZM7.32475 2.95356C8.17179 2.97135 8.99462 3.23945 9.68956 3.72407C10.3845 4.20868 10.9205 4.88814 11.2299 5.67683L7.12095 6.77776L7.11523 6.77871L7.11047 6.78062L3.00199 7.88202C2.67676 5.75207 4.00007 3.67021 6.12954 3.09975C6.51908 2.99503 6.92146 2.94582 7.32475 2.95356ZM15.0208 3.11641C14.9265 3.11621 14.8343 3.14401 14.7559 3.1963C14.6774 3.24858 14.6163 3.323 14.5802 3.41009C14.5442 3.49718 14.5348 3.59303 14.5533 3.68546C14.5718 3.77789 14.6173 3.86275 14.6841 3.92925L15.3574 4.60257C15.4472 4.68931 15.5675 4.73731 15.6924 4.73622C15.8172 4.73514 15.9367 4.68506 16.0249 4.59677C16.1132 4.50848 16.1633 4.38905 16.1644 4.2642C16.1655 4.13935 16.1175 4.01906 16.0307 3.92925L15.3574 3.25594C15.3133 3.21165 15.2608 3.17653 15.203 3.15259C15.1452 3.12864 15.0833 3.11635 15.0208 3.11641ZM20.4073 3.11641C20.3448 3.11635 20.2828 3.12864 20.2251 3.15259C20.1673 3.17653 20.1148 3.21165 20.0707 3.25594L19.3973 3.92925C19.3106 4.01906 19.2626 4.13935 19.2637 4.2642C19.2648 4.38905 19.3149 4.50848 19.4031 4.59677C19.4914 4.68506 19.6109 4.73514 19.7357 4.73622C19.8606 4.73731 19.9809 4.68931 20.0707 4.60257L20.744 3.92925C20.8108 3.86275 20.8563 3.77789 20.8748 3.68546C20.8933 3.59303 20.8839 3.49718 20.8479 3.41009C20.8118 3.323 20.7507 3.24858 20.6722 3.1963C20.5938 3.14401 20.5016 3.11621 20.4073 3.11641ZM17.714 4.38115C16.6626 4.38115 15.8093 5.23446 15.8093 6.28587C15.8093 7.33727 16.6626 8.19059 17.714 8.19059C18.7654 8.19059 19.6188 7.33727 19.6188 6.28587C19.6188 5.23446 18.7654 4.38115 17.714 4.38115ZM17.714 5.33351C17.8391 5.33354 17.963 5.35821 18.0786 5.40611C18.1941 5.45401 18.2991 5.52421 18.3876 5.61269C18.476 5.70116 18.5461 5.8062 18.594 5.92178C18.6418 6.03737 18.6664 6.16125 18.6664 6.28634C18.6664 6.41144 18.6417 6.53531 18.5938 6.65087C18.5459 6.76643 18.4757 6.87143 18.3872 6.95986C18.2987 7.0483 18.1937 7.11844 18.0781 7.16628C17.9625 7.21413 17.8387 7.23874 17.7136 7.2387C17.4609 7.23864 17.2187 7.13822 17.04 6.95953C16.8614 6.78083 16.7611 6.53851 16.7612 6.28587C16.7613 6.03322 16.8617 5.79095 17.0404 5.61235C17.2191 5.43375 17.4614 5.33345 17.714 5.33351ZM13.9046 5.80969C13.7783 5.80969 13.6572 5.85986 13.5679 5.94916C13.4786 6.03846 13.4284 6.15958 13.4284 6.28587C13.4284 6.41216 13.4786 6.53328 13.5679 6.62258C13.6572 6.71188 13.7783 6.76205 13.9046 6.76205H14.857C14.9833 6.76205 15.1044 6.71188 15.1937 6.62258C15.283 6.53328 15.3331 6.41216 15.3331 6.28587C15.3331 6.15958 15.283 6.03846 15.1937 5.94916C15.1044 5.85986 14.9833 5.80969 14.857 5.80969H13.9046ZM20.5711 5.80969C20.4448 5.80969 20.3237 5.85986 20.2344 5.94916C20.1451 6.03846 20.0949 6.15958 20.0949 6.28587C20.0949 6.41216 20.1451 6.53328 20.2344 6.62258C20.3237 6.71188 20.4448 6.76205 20.5711 6.76205H21.5235C21.6498 6.76205 21.7709 6.71188 21.8602 6.62258C21.9495 6.53328 21.9997 6.41216 21.9997 6.28587C21.9997 6.15958 21.9495 6.03846 21.8602 5.94916C21.7709 5.85986 21.6498 5.80969 21.5235 5.80969H20.5711ZM15.6941 7.82964C15.6316 7.82958 15.5696 7.84187 15.5118 7.86581C15.4541 7.88976 15.4016 7.92488 15.3574 7.96916L14.6841 8.64248C14.5948 8.73177 14.5447 8.85287 14.5447 8.97914C14.5447 9.10541 14.5948 9.22651 14.6841 9.3158C14.7734 9.40509 14.8945 9.45525 15.0208 9.45525C15.147 9.45525 15.2681 9.40509 15.3574 9.3158L16.0307 8.64248C16.0973 8.57589 16.1427 8.49105 16.161 8.39869C16.1794 8.30634 16.17 8.21061 16.1339 8.12361C16.0979 8.03661 16.0369 7.96225 15.9586 7.90993C15.8803 7.8576 15.7883 7.82966 15.6941 7.82964ZM19.734 7.82964C19.6398 7.82966 19.5478 7.8576 19.4695 7.90993C19.3912 7.96225 19.3302 8.03661 19.2942 8.12361C19.2581 8.21061 19.2487 8.30634 19.2671 8.39869C19.2854 8.49105 19.3308 8.57589 19.3973 8.64248L20.0707 9.3158C20.1149 9.36001 20.1674 9.39508 20.2251 9.41901C20.2829 9.44293 20.3448 9.45525 20.4073 9.45525C20.4698 9.45525 20.5318 9.44293 20.5895 9.41901C20.6473 9.39508 20.6998 9.36001 20.744 9.3158C20.7882 9.27159 20.8233 9.2191 20.8472 9.16134C20.8711 9.10358 20.8834 9.04166 20.8834 8.97914C20.8834 8.91662 20.8711 8.85471 20.8472 8.79694C20.8233 8.73918 20.7882 8.68669 20.744 8.64248L20.0707 7.96916C20.0265 7.92488 19.974 7.88976 19.9162 7.86581C19.8585 7.84187 19.7965 7.82958 19.734 7.82964ZM17.714 8.66677C17.5878 8.66677 17.4666 8.71694 17.3773 8.80624C17.288 8.89554 17.2379 9.01666 17.2379 9.14295V10.0953C17.2379 10.2216 17.288 10.3427 17.3773 10.432C17.4666 10.5213 17.5878 10.5715 17.714 10.5715C17.8403 10.5715 17.9615 10.5213 18.0508 10.432C18.1401 10.3427 18.1902 10.2216 18.1902 10.0953V9.14295C18.1902 9.01666 18.1401 8.89554 18.0508 8.80624C17.9615 8.71694 17.8403 8.66677 17.714 8.66677ZM20.0802 11.5238C20.3226 11.5238 20.5659 11.6167 20.7506 11.8019C20.9288 11.9809 21.0288 12.2232 21.0288 12.4757C21.0288 12.7283 20.9288 12.9705 20.7506 13.1495L16.2336 17.6809C16.1484 17.7661 15.9384 17.9399 15.7003 18.0666C15.5793 18.1308 15.4522 18.1894 15.3331 18.1894H3.90007C3.37675 18.1894 2.95247 17.7623 2.95247 17.2371C2.95247 16.7118 3.37675 16.2847 3.90007 16.2847H14.7436C14.8699 16.2847 14.991 16.2345 15.0803 16.1452L19.4102 11.8019C19.498 11.7137 19.6025 11.6437 19.7174 11.596C19.8324 11.5483 19.9557 11.5238 20.0802 11.5238Z" stroke="#101317" stroke-width="0.4" mask="url(#path-1-outside-1_55_356)"/>
</svg>
