<svg width="40" height="40" viewBox="0 0 40 40" fill="none" xmlns="http://www.w3.org/2000/svg">
<g clip-path="url(#clip0_84_3816)">
<path d="M39.8741 17.7796C39.8109 17.2174 39.1551 16.7945 38.5881 16.7945C36.7555 16.7945 35.1291 15.7188 34.447 14.054C33.7507 12.3492 34.2 10.3615 35.5653 9.10888C35.7724 8.91932 35.9002 8.6584 35.9228 8.37854C35.9454 8.09868 35.8613 7.82064 35.6873 7.60027C34.7563 6.41662 33.6933 5.34305 32.5189 4.40038C32.0634 4.03503 31.3941 4.08589 30.9989 4.52337C29.8068 5.8436 27.6654 6.33419 26.0106 5.6438C24.2893 4.91951 23.2027 3.1746 23.3095 1.30169C23.3263 1.01829 23.2339 0.739218 23.0513 0.521867C22.8686 0.304516 22.6097 0.165412 22.3276 0.133169C20.8335 -0.039817 19.3263 -0.0448336 17.8279 0.121406C17.549 0.152366 17.2921 0.287471 17.1086 0.499697C16.925 0.711924 16.8283 0.985623 16.8379 1.26605C16.9028 3.12063 15.804 4.83475 14.0992 5.53309C12.4643 6.20099 10.3378 5.71403 9.14816 4.4054C8.95876 4.1981 8.6981 4.06992 8.41829 4.04648C8.13847 4.02303 7.86012 4.10605 7.63886 4.27894C6.44156 5.21791 5.356 6.29122 4.40351 7.4778C4.22626 7.69867 4.13992 7.97883 4.16206 8.26116C4.18421 8.5435 4.31318 8.80676 4.5227 8.9973C5.91506 10.2582 6.36396 12.2631 5.64105 13.9878C4.95084 15.632 3.24364 16.6912 1.28942 16.6912C0.655255 16.6708 0.203935 17.0968 0.133876 17.6736C-0.0414188 19.1842 -0.0442625 20.7099 0.1254 22.2212C0.18854 22.7858 0.863703 23.2051 1.43698 23.2051C3.17894 23.1609 4.85033 24.2386 5.55248 25.9454C6.25117 27.6502 5.80141 29.6371 4.43378 30.8914C4.00599 31.2846 3.95132 31.9414 4.31252 32.3979C5.24235 33.5813 6.30362 34.6553 7.47591 35.599C7.69712 35.7771 7.97803 35.8638 8.2611 35.8413C8.54416 35.8189 8.80793 35.6891 8.99836 35.4785C10.1951 34.1551 12.3361 33.6654 13.9841 34.3572C15.7105 35.0796 16.7966 36.8243 16.6905 38.6977C16.6737 38.981 16.766 39.26 16.9485 39.4773C17.131 39.6946 17.3898 39.8338 17.6717 39.8663C18.4363 39.9557 19.2049 40 19.9759 40C20.7076 40 21.4395 39.96 22.1714 39.8785C22.4504 39.8476 22.7074 39.7124 22.8909 39.5C23.0744 39.2876 23.1709 39.0137 23.161 38.7332C23.0941 36.8795 24.1953 35.1652 25.898 34.4682C27.5438 33.796 29.6608 34.288 30.8511 35.5947C31.0408 35.8015 31.3014 35.9293 31.5811 35.9527C31.8608 35.9761 32.139 35.8934 32.3604 35.721C33.5576 34.7818 34.6431 33.7085 35.5958 32.522C35.7736 32.3012 35.8603 32.0208 35.8382 31.7382C35.816 31.4556 35.6867 31.1921 35.4766 31.0018C34.0846 29.7417 33.6332 27.736 34.3562 26.013C35.0356 24.391 36.6794 23.3018 38.4473 23.3018L38.6946 23.3084C39.2686 23.3549 39.796 22.913 39.8654 22.3274C40.0415 20.8168 40.0444 19.2909 39.8741 17.7796ZM19.9999 31.5302C13.6318 31.5302 8.46971 26.3682 8.46971 20.0002C8.46971 13.6323 13.632 8.47021 19.9999 8.47021C26.3678 8.47021 31.5301 13.6323 31.5301 20.0002C31.5301 22.1617 30.9342 24.1834 29.8992 25.9122L24.8504 20.8633C25.2203 19.9901 25.4102 19.0512 25.4088 18.1029C25.4088 16.2148 24.6735 14.4398 23.3382 13.1048C22.0032 11.7699 20.2282 11.0347 18.3404 11.0347C17.7104 11.0347 17.0834 11.1185 16.4767 11.2837C16.3442 11.3212 16.2237 11.3922 16.1267 11.4899C16.0297 11.5876 15.9595 11.7086 15.923 11.8414C15.8507 12.1136 15.9321 12.3927 16.1449 12.6056C16.1449 12.6056 18.6375 15.1174 19.4714 15.9512C19.5588 16.0385 19.5586 16.247 19.5463 16.322L19.5385 16.3769C19.4545 17.2937 19.2924 18.3942 19.1587 18.8172C19.1407 18.835 19.1237 18.85 19.1054 18.8684C19.0862 18.8876 19.0685 18.9061 19.05 18.9251C18.6215 19.0626 17.5041 19.2266 16.5727 19.31L16.5729 19.305L16.531 19.3156C16.5179 19.3169 16.5046 19.3175 16.4914 19.3175C16.3907 19.3175 16.2427 19.2893 16.1081 19.1549C15.24 18.2868 12.8452 15.9091 12.8452 15.9091C12.6304 15.695 12.41 15.65 12.2631 15.65C11.9208 15.65 11.6142 15.8974 11.5177 16.2521C10.8585 18.6918 11.5573 21.316 13.342 23.1008C14.6773 24.4359 16.4525 25.1711 18.3406 25.1711C19.2889 25.1724 20.2276 24.9825 21.1008 24.6127L26.2044 29.7163C24.3528 30.9032 22.1992 31.5328 19.9999 31.5302Z" fill="#0C1B54"/>
</g>
<defs>
<clipPath id="clip0_84_3816">
<rect width="40" height="40" fill="white"/>
</clipPath>
</defs>
</svg>
