<svg width="301" height="311" viewBox="0 0 301 311" fill="none" xmlns="http://www.w3.org/2000/svg">
<path d="M277.797 62.1735C279.463 61.4379 280.876 60.23 281.862 58.6994C282.849 57.1688 283.365 55.3826 283.347 53.5618C283.347 48.4187 279.472 44.2355 274.651 44.2144C269.83 44.1934 265.906 48.3416 265.885 53.4848C265.851 55.3205 266.361 57.1253 267.351 58.6716C268.341 60.2178 269.767 61.4363 271.449 62.1735C258.016 64.1986 258.626 78.8013 258.626 78.8013L290.389 78.9484C290.389 78.9484 291.117 64.1845 277.797 62.1735Z" fill="#ACAFB5" fill-opacity="0.2"/>
<path d="M90.1132 7.6095L69.3513 0.266113L48.7926 7.51141C46.172 8.73063 43.8877 9.45937 43.8877 11.8698V23.8589C43.8619 32.2792 46.2103 40.5363 50.6635 47.6828C55.1456 54.9671 61.7468 60.7076 69.5826 64.1354C77.991 61.4447 84.2553 54.2835 88.0952 48.1523C92.5431 41.0038 94.8889 32.7476 94.864 24.3283V13.5445C94.836 10.111 92.9861 8.43634 90.1132 7.6095Z" fill="#ACAFB5" fill-opacity="0.1"/>
<path d="M76.225 26.9629C76.23 25.893 75.9361 24.8429 75.3765 23.931C74.8169 23.0191 74.0138 22.2816 73.0577 21.8014C72.1015 21.3213 71.0303 21.1177 69.9647 21.2135C68.8991 21.3094 67.8814 21.7008 67.0262 22.3438C66.1711 22.9868 65.5124 23.8558 65.1245 24.8529C64.7366 25.8501 64.6348 26.9357 64.8305 27.9876C65.0263 29.0394 65.5119 30.0157 66.2326 30.8065C66.9533 31.5973 67.8804 32.1712 68.9097 32.4634V41.0611H72.0488V32.4634C73.2488 32.1263 74.306 31.4066 75.0598 30.4139C75.8135 29.4211 76.2227 28.2094 76.225 26.9629Z" fill="#ACAFB5" fill-opacity="0.2"/>
<path d="M266.635 118.721L270.173 120.64L268.583 123.303L265.009 121.201L265.079 125.132H262.024V121.166L258.485 123.282L256.923 120.619L260.461 118.7L256.923 116.752L258.485 114.089L262.052 116.275V112.309H265.107L265.037 116.275L268.611 114.131L270.201 116.794L266.635 118.721Z" fill="#ACAFB5" fill-opacity="0.2"/>
<path d="M281.378 118.72L284.916 120.64L283.325 123.303L279.752 121.201L279.822 125.132H276.767L276.802 121.166L273.228 123.31L271.666 120.647L275.204 118.727L271.666 116.779L273.228 114.117L276.802 116.261L276.767 112.295H279.822L279.752 116.261L283.325 114.117L284.916 116.779L281.378 118.72Z" fill="#ACAFB5" fill-opacity="0.2"/>
<path d="M296.12 118.721L299.666 120.64L298.075 123.303L294.502 121.201L294.565 125.132H291.51L291.545 121.166L287.971 123.31L286.409 120.648L289.954 118.728L286.437 116.773L287.999 114.11L291.573 116.254L291.538 112.288H294.593L294.53 116.254L298.103 114.11L299.694 116.773L296.12 118.721Z" fill="#ACAFB5" fill-opacity="0.2"/>
<path d="M146.113 286.448V308.212H177.939H213.045V286.448H146.113Z" fill="#ACAFB5" fill-opacity="0.1"/>
<path d="M143.304 280.359V286.448H215.385V280.359H177.939H143.304Z" fill="#ACAFB5" fill-opacity="0.1"/>
<path d="M179.341 308.212H213.045V286.448H215.385V280.359H177.939V285.88L179.341 308.212Z" fill="#ACAFB5" fill-opacity="0.05"/>
<path d="M169.047 289.952H155.475V293.231H169.047V289.952Z" fill="#ACAFB5" fill-opacity="0.1"/>
<path d="M171.157 297.33H153.723V304.246H171.157V297.33Z" fill="#ACAFB5" fill-opacity="0.1"/>
<path d="M156.407 258.623V280.387H188.24H223.345V258.623H156.407Z" fill="#ACAFB5" fill-opacity="0.1"/>
<path d="M153.597 252.534V258.623H225.685V252.534H188.24H153.597Z" fill="#ACAFB5" fill-opacity="0.1"/>
<path d="M189.641 280.387H223.345V258.623H225.685V252.534H188.24V258.063L189.641 280.387Z" fill="#ACAFB5" fill-opacity="0.05"/>
<path d="M179.341 262.134H165.768V265.413H179.341V262.134Z" fill="#ACAFB5" fill-opacity="0.1"/>
<path d="M181.457 269.505H164.023V276.421H181.457V269.505Z" fill="#ACAFB5" fill-opacity="0.1"/>
<path d="M300.5 308.38C300.5 308.479 233.337 308.563 150.507 308.563C67.6766 308.563 0.5 308.479 0.5 308.38C0.5 308.282 67.6486 308.198 150.507 308.198C233.365 308.198 300.5 308.268 300.5 308.38Z" fill="#101317"/>
<path d="M254.758 151.815H150.339C147.87 151.815 145.869 153.816 145.869 156.285V210.338C145.869 212.807 147.87 214.808 150.339 214.808H254.758C257.227 214.808 259.229 212.807 259.229 210.338V156.285C259.229 153.816 257.227 151.815 254.758 151.815Z" fill="#ACAFB5" fill-opacity="0.1"/>
<path d="M254.765 214.808C254.765 214.808 255.066 214.808 255.641 214.703C256.493 214.518 257.274 214.093 257.89 213.477C258.34 213.023 258.686 212.478 258.906 211.879C259.032 211.533 259.117 211.173 259.158 210.807C259.158 210.429 259.158 210.022 259.158 209.602C259.158 207.92 259.158 205.979 259.158 203.8C259.158 195.062 259.123 182.435 259.102 166.831C259.102 164.876 259.102 162.879 259.102 160.84V157.742C259.102 156.698 259.207 155.64 258.78 154.673C258.485 153.941 257.996 153.303 257.365 152.829C256.734 152.355 255.985 152.062 255.199 151.983C254.681 151.948 254.106 151.983 253.56 151.983H246.798H217.494H150.353C149.638 151.981 148.934 152.159 148.305 152.499C147.676 152.839 147.142 153.331 146.751 153.931C146.354 154.524 146.113 155.209 146.051 155.921C146.016 156.621 146.051 157.392 146.051 158.121V184.033C146.051 189.639 146.051 195.151 146.051 200.57V208.586C146.051 209.244 146.051 209.91 146.051 210.555C146.083 211.185 146.25 211.802 146.541 212.362C146.84 212.913 147.253 213.392 147.754 213.768C148.255 214.144 148.83 214.408 149.442 214.542C150.065 214.642 150.697 214.675 151.327 214.64H178.703H204.237L241.206 214.696L251.254 214.731L241.206 214.766L204.237 214.822H178.703H151.327C150.673 214.856 150.018 214.821 149.372 214.717C148.711 214.574 148.09 214.29 147.55 213.884C147.011 213.477 146.566 212.958 146.247 212.362C145.925 211.761 145.741 211.096 145.707 210.415C145.707 209.714 145.707 209.097 145.707 208.431C145.707 205.79 145.707 203.113 145.707 200.415V184.033C145.707 178.427 145.707 172.717 145.707 166.901V158.142C145.707 157.399 145.707 156.684 145.707 155.914C145.759 155.147 146 154.406 146.408 153.755C146.834 153.108 147.411 152.574 148.09 152.2C148.776 151.835 149.54 151.64 150.318 151.632H217.459H246.763H253.525C254.085 151.632 254.618 151.632 255.192 151.632C255.754 151.691 256.301 151.853 256.804 152.109C257.804 152.616 258.588 153.467 259.011 154.505C259.216 155.013 259.325 155.555 259.334 156.103C259.334 156.628 259.334 157.154 259.334 157.679V160.777C259.334 162.813 259.334 164.81 259.334 166.768C259.334 182.372 259.285 194.999 259.271 203.737C259.271 205.916 259.271 207.857 259.271 209.539C259.271 209.959 259.271 210.358 259.271 210.751C259.226 211.125 259.136 211.492 259.004 211.844C258.778 212.453 258.422 213.005 257.96 213.463C257.329 214.083 256.53 214.504 255.662 214.675C255.445 214.715 255.224 214.739 255.003 214.745L254.765 214.808Z" fill="#101317"/>
<path d="M185.367 174.076V174.861H182.088V170.657H185.283V171.442H183.062V172.331H185.024V173.095H183.062V174.076H185.367Z" fill="white"/>
<path d="M190.034 170.628V174.833H189.228L187.126 172.261V174.833H186.159V170.628H186.937L189.039 173.2V170.628H190.034Z" fill="white"/>
<path d="M191.919 171.427H190.56V170.628H194.252V171.427H192.893V174.861H191.919V171.427Z" fill="white"/>
<path d="M198.057 174.076V174.861H194.778V170.657H197.98V171.442H195.752V172.331H197.721V173.095H195.752V174.076H198.057Z" fill="white"/>
<path d="M201.54 174.861L200.72 173.684H199.823V174.861H198.849V170.657H200.685C201.813 170.657 202.521 171.238 202.521 172.191C202.529 172.476 202.45 172.757 202.295 172.996C202.14 173.235 201.915 173.421 201.652 173.53L202.598 174.889L201.54 174.861ZM200.622 171.428H199.823V172.899H200.622C201.217 172.899 201.519 172.626 201.519 172.163C201.519 171.701 201.217 171.428 200.622 171.428Z" fill="white"/>
<path d="M204.735 172.745C204.762 172.288 204.923 171.85 205.198 171.484C205.472 171.118 205.849 170.841 206.279 170.687C206.71 170.533 207.177 170.51 207.621 170.619C208.065 170.728 208.467 170.965 208.778 171.301L208.147 171.883C208.016 171.728 207.853 171.603 207.669 171.517C207.485 171.431 207.285 171.386 207.082 171.385C206.739 171.41 206.419 171.564 206.185 171.815C205.95 172.067 205.82 172.398 205.82 172.741C205.82 173.085 205.95 173.416 206.185 173.667C206.419 173.919 206.739 174.072 207.082 174.097C207.286 174.1 207.487 174.057 207.672 173.971C207.856 173.885 208.019 173.758 208.147 173.6L208.778 174.181C208.469 174.52 208.067 174.76 207.623 174.872C207.178 174.983 206.711 174.961 206.279 174.807C205.847 174.654 205.47 174.376 205.195 174.009C204.92 173.642 204.76 173.202 204.735 172.745Z" fill="white"/>
<path d="M209.086 172.745C209.061 172.281 209.175 171.821 209.415 171.423C209.654 171.025 210.007 170.708 210.429 170.513C210.85 170.319 211.32 170.255 211.778 170.33C212.236 170.405 212.661 170.616 212.998 170.936C213.335 171.255 213.568 171.669 213.668 172.122C213.767 172.576 213.728 173.048 213.556 173.479C213.383 173.911 213.086 174.28 212.701 174.54C212.317 174.8 211.863 174.939 211.399 174.938C211.1 174.955 210.802 174.911 210.521 174.809C210.241 174.706 209.985 174.547 209.768 174.342C209.551 174.136 209.379 173.888 209.262 173.614C209.144 173.339 209.085 173.043 209.086 172.745ZM212.723 172.745C212.717 172.484 212.635 172.231 212.486 172.017C212.337 171.803 212.129 171.637 211.886 171.541C211.644 171.445 211.378 171.423 211.123 171.477C210.868 171.532 210.635 171.66 210.453 171.846C210.27 172.033 210.147 172.268 210.098 172.525C210.049 172.781 210.077 173.046 210.178 173.286C210.279 173.526 210.449 173.731 210.666 173.876C210.883 174.02 211.138 174.097 211.399 174.097C211.576 174.101 211.752 174.069 211.917 174.002C212.081 173.935 212.23 173.835 212.354 173.708C212.478 173.581 212.575 173.43 212.638 173.265C212.702 173.099 212.731 172.922 212.723 172.745Z" fill="white"/>
<path d="M214.461 170.628H216.367C216.924 170.628 217.459 170.85 217.853 171.244C218.247 171.638 218.469 172.173 218.469 172.731C218.469 173.288 218.247 173.823 217.853 174.217C217.459 174.611 216.924 174.833 216.367 174.833H214.447L214.461 170.628ZM216.331 174.055C216.679 174.055 217.012 173.917 217.258 173.671C217.504 173.425 217.642 173.092 217.642 172.745C217.642 172.397 217.504 172.064 217.258 171.818C217.012 171.572 216.679 171.434 216.331 171.434H215.442V174.055H216.331Z" fill="white"/>
<path d="M222.736 174.076V174.861H219.457V170.657H222.673V171.442H220.431V172.331H222.4V173.095H220.431V174.076H222.736Z" fill="white"/>
<path d="M169.293 181.623H159C157.471 181.623 156.232 182.862 156.232 184.39V200.415C156.232 201.944 157.471 203.183 159 203.183H169.293C170.822 203.183 172.061 201.944 172.061 200.415V184.39C172.061 182.862 170.822 181.623 169.293 181.623Z" fill="#ACAFB5" fill-opacity="0.05"/>
<path d="M189.06 181.623H178.767C177.238 181.623 175.999 182.862 175.999 184.39V200.415C175.999 201.944 177.238 203.183 178.767 203.183H189.06C190.589 203.183 191.828 201.944 191.828 200.415V184.39C191.828 182.862 190.589 181.623 189.06 181.623Z" fill="#ACAFB5" fill-opacity="0.05"/>
<path d="M208.827 181.623H198.534C197.005 181.623 195.766 182.862 195.766 184.39V200.415C195.766 201.944 197.005 203.183 198.534 203.183H208.827C210.355 203.183 211.595 201.944 211.595 200.415V184.39C211.595 182.862 210.355 181.623 208.827 181.623Z" fill="#ACAFB5" fill-opacity="0.05"/>
<path d="M228.587 181.623H218.293C216.765 181.623 215.526 182.862 215.526 184.39V200.415C215.526 201.944 216.765 203.183 218.293 203.183H228.587C230.115 203.183 231.355 201.944 231.355 200.415V184.39C231.355 182.862 230.115 181.623 228.587 181.623Z" fill="#ACAFB5" fill-opacity="0.05"/>
<path d="M248.354 181.623H238.06C236.532 181.623 235.293 182.862 235.293 184.39V200.415C235.293 201.944 236.532 203.183 238.06 203.183H248.354C249.882 203.183 251.121 201.944 251.121 200.415V184.39C251.121 182.862 249.882 181.623 248.354 181.623Z" fill="#ACAFB5" fill-opacity="0.05"/>
<path d="M167.597 194.053C167.597 195.588 166.406 196.59 164.795 196.59C162.58 196.59 161.41 194.999 161.41 192.386C161.41 189.541 162.931 188.069 165.152 188.069C165.817 188.039 166.478 188.189 167.065 188.504L166.813 188.994C166.305 188.716 165.73 188.582 165.152 188.609C163.267 188.609 162.027 189.849 162.027 192.294C162.027 192.632 162.05 192.969 162.097 193.303C162.294 192.762 162.663 192.299 163.148 191.987C163.632 191.674 164.206 191.529 164.781 191.573C166.462 191.573 167.597 192.554 167.597 194.053ZM166.981 194.053C166.981 192.855 166.119 192.07 164.696 192.07C164.409 192.038 164.118 192.066 163.842 192.151C163.566 192.237 163.31 192.378 163.091 192.567C162.872 192.756 162.695 192.988 162.569 193.248C162.444 193.509 162.374 193.792 162.363 194.081C162.363 195.069 163.19 196.05 164.767 196.05C165.046 196.081 165.33 196.052 165.598 195.965C165.866 195.879 166.112 195.737 166.321 195.548C166.53 195.359 166.697 195.129 166.811 194.871C166.925 194.614 166.982 194.335 166.981 194.053Z" fill="#3085FE"/>
<path d="M187.147 194.214H185.381V196.548H184.779V194.214H179.979V193.773L184.547 188.132H185.248L180.764 193.675H184.807V191.622H185.395V193.675H187.161L187.147 194.214Z" fill="#3085FE"/>
<path d="M207.531 197.746C205.091 197.989 202.634 197.989 200.194 197.746C202.634 197.503 205.091 197.503 207.531 197.746Z" fill="#3085FE"/>
<path d="M153.065 159.824C154.013 159.824 154.782 159.055 154.782 158.107C154.782 157.159 154.013 156.39 153.065 156.39C152.117 156.39 151.348 157.159 151.348 158.107C151.348 159.055 152.117 159.824 153.065 159.824Z" fill="#101317"/>
<path d="M159.729 158.107C159.729 158.446 159.628 158.778 159.439 159.061C159.251 159.343 158.982 159.563 158.669 159.693C158.355 159.823 158.01 159.857 157.677 159.791C157.344 159.724 157.038 159.561 156.798 159.321C156.558 159.081 156.394 158.775 156.328 158.442C156.262 158.109 156.296 157.764 156.426 157.45C156.556 157.136 156.776 156.868 157.058 156.679C157.34 156.491 157.672 156.39 158.012 156.39C158.467 156.39 158.904 156.571 159.226 156.893C159.548 157.215 159.729 157.652 159.729 158.107Z" fill="#101317"/>
<path d="M162.868 159.824C163.816 159.824 164.584 159.055 164.584 158.107C164.584 157.159 163.816 156.39 162.868 156.39C161.92 156.39 161.151 157.159 161.151 158.107C161.151 159.055 161.92 159.824 162.868 159.824Z" fill="#101317"/>
<path d="M259.404 162.942C259.404 163.04 234.017 163.124 202.717 163.124C171.416 163.124 146.03 163.04 146.03 162.942C146.03 162.844 171.402 162.76 202.717 162.76C234.031 162.76 259.404 162.837 259.404 162.942Z" fill="#ACAFB5" fill-opacity="0.1"/>
<path d="M238.586 13.4746H113.412C110.873 13.4746 108.815 15.5326 108.815 18.0712V133.232C108.815 135.771 110.873 137.829 113.412 137.829H238.586C241.124 137.829 243.182 135.771 243.182 133.232V18.0712C243.182 15.5326 241.124 13.4746 238.586 13.4746Z" fill="#ACAFB5" fill-opacity="0.1"/>
<path d="M238.586 137.829H238.915C239.24 137.802 239.562 137.741 239.875 137.647C240.486 137.46 241.051 137.147 241.534 136.728C242.017 136.309 242.406 135.794 242.678 135.215C243.055 134.347 243.205 133.397 243.112 132.454C243.112 131.41 243.112 130.261 243.112 129.021C243.112 126.54 243.112 123.675 243.112 120.451C243.112 107.558 243.077 88.9196 243.049 65.8523C243.049 54.3257 243.049 41.706 243.049 28.1474C243.049 24.7653 243.049 21.3248 243.049 17.826C242.997 16.9705 242.697 16.1487 242.187 15.4598C241.678 14.7708 240.979 14.2444 240.176 13.9441C239.342 13.6801 238.463 13.5848 237.591 13.6638H212.582H113.426C112.373 13.6699 111.358 14.0499 110.56 14.7359C109.736 15.4319 109.197 16.4073 109.046 17.4756C108.998 18.0114 108.982 18.5495 108.997 19.0873V62.2297C108.997 78.8154 108.997 94.8125 108.997 110.053C108.997 117.677 108.997 125.102 108.997 132.328C108.997 132.777 108.997 133.239 108.997 133.667C109.038 134.097 109.139 134.519 109.299 134.921C109.623 135.725 110.176 136.417 110.889 136.911C111.595 137.404 112.432 137.677 113.293 137.696H126.263H163.968L218.567 137.759H233.407L218.567 137.794L163.968 137.85H126.263H113.286C112.36 137.827 111.461 137.533 110.7 137.005C109.94 136.477 109.35 135.738 109.004 134.879C108.832 134.448 108.721 133.995 108.675 133.533C108.64 133.057 108.675 132.623 108.675 132.167C108.675 124.94 108.675 117.515 108.675 109.892C108.675 94.6513 108.675 78.6542 108.675 62.0685C108.675 53.7722 108.675 45.338 108.675 36.7661V19.0522C108.656 18.498 108.674 17.9432 108.731 17.3915C108.885 16.2519 109.454 15.2091 110.329 14.4626C111.187 13.7115 112.285 13.2895 113.426 13.2714H212.582H237.549C238.459 13.1928 239.377 13.2977 240.246 13.5797C241.106 13.9013 241.853 14.4649 242.399 15.2022C242.945 15.9396 243.266 16.8192 243.322 17.7349C243.322 21.2384 243.322 24.6859 243.322 28.0773C243.322 41.636 243.322 54.2557 243.322 65.7823C243.322 88.8355 243.28 107.488 243.266 120.381C243.266 123.604 243.266 126.47 243.266 128.951C243.266 130.191 243.266 131.34 243.266 132.384C243.355 133.343 243.196 134.308 242.804 135.187C242.452 135.924 241.91 136.553 241.234 137.01C240.558 137.467 239.772 137.735 238.957 137.787L238.586 137.829Z" fill="#101317"/>
<path d="M118.968 22.093C118.968 22.5534 118.832 23.0034 118.576 23.3861C118.32 23.7688 117.956 24.067 117.531 24.2429C117.105 24.4187 116.637 24.4644 116.186 24.3741C115.734 24.2837 115.32 24.0615 114.995 23.7354C114.67 23.4094 114.448 22.9942 114.36 22.5425C114.271 22.0908 114.318 21.6228 114.495 21.1978C114.672 20.7729 114.971 20.41 115.355 20.1553C115.738 19.9005 116.189 19.7652 116.649 19.7666C116.954 19.7666 117.256 19.8268 117.538 19.9438C117.82 20.0608 118.076 20.2323 118.292 20.4484C118.507 20.6645 118.678 20.921 118.794 21.2032C118.91 21.4854 118.969 21.7878 118.968 22.093Z" fill="#101317"/>
<path d="M123.418 24.4126C124.699 24.4126 125.737 23.3742 125.737 22.0933C125.737 20.8123 124.699 19.7739 123.418 19.7739C122.137 19.7739 121.098 20.8123 121.098 22.0933C121.098 23.3742 122.137 24.4126 123.418 24.4126Z" fill="#101317"/>
<path d="M130.201 24.4126C131.482 24.4126 132.52 23.3742 132.52 22.0933C132.52 20.8123 131.482 19.7739 130.201 19.7739C128.92 19.7739 127.881 20.8123 127.881 22.0933C127.881 23.3742 128.92 24.4126 130.201 24.4126Z" fill="#101317"/>
<path d="M243.182 28.6866C243.182 28.7917 213.101 28.8688 175.999 28.8688C138.896 28.8688 108.815 28.7917 108.815 28.6866C108.815 28.5815 138.889 28.5044 175.999 28.5044C213.108 28.5044 243.182 28.5815 243.182 28.6866Z" fill="#101317"/>
<path d="M194.981 75.5291C194.981 75.5291 195.03 75.452 195.142 75.3119L195.233 75.1927L195.324 75.0316C195.402 74.9012 195.47 74.7654 195.527 74.6252C195.527 74.5481 195.598 74.464 195.626 74.3729L195.71 74.0786C195.74 73.9705 195.764 73.8605 195.78 73.7493C195.78 73.6302 195.822 73.511 195.829 73.3849C195.875 72.8021 195.846 72.2159 195.745 71.6402C195.45 70.0644 194.911 68.5443 194.147 67.1346C193.162 65.2532 192.011 63.4639 190.707 61.7882C189.137 59.7503 187.425 57.8256 185.584 56.0284C183.477 53.9599 181.227 52.0423 178.851 50.2897C177.596 49.3647 176.272 48.4678 174.878 47.627C173.456 46.7585 171.979 45.9837 170.456 45.3077C168.891 44.5932 167.244 44.0754 165.551 43.7661C164.686 43.612 163.802 43.5908 162.931 43.703C162.493 43.7652 162.066 43.8878 161.662 44.0674C161.266 44.2619 160.908 44.5253 160.604 44.8452C160.314 45.1808 160.091 45.5684 159.946 45.9873C159.814 46.4098 159.741 46.8483 159.728 47.2907C159.717 48.1702 159.837 49.0465 160.086 49.8903C160.588 51.541 161.294 53.1228 162.188 54.599C163.03 56.0351 163.966 57.4138 164.991 58.7262C165.986 60.0155 167.03 61.2347 168.088 62.3768C170.1 64.5387 172.264 66.5548 174.562 68.4099C176.557 70.0359 178.664 71.5182 180.869 72.8454C182.682 73.9482 184.591 74.8862 186.572 75.6482C188.062 76.2425 189.633 76.6063 191.232 76.7273C191.814 76.756 192.397 76.716 192.97 76.6082C193.096 76.6082 193.208 76.5451 193.32 76.5171C193.43 76.4883 193.537 76.4532 193.643 76.412L193.923 76.2929L194.168 76.1667C194.302 76.0942 194.428 76.0097 194.546 75.9145L194.694 75.8094L194.806 75.7043C194.932 75.5781 195.002 75.5221 195.002 75.5221L194.813 75.7113L194.701 75.8164L194.56 75.9285C194.441 76.0253 194.312 76.1098 194.175 76.1807L193.944 76.3349L193.657 76.454C193.554 76.4973 193.449 76.5325 193.341 76.5591C193.224 76.5992 193.105 76.632 192.984 76.6572C192.408 76.7752 191.819 76.8176 191.232 76.7833C189.629 76.6744 188.052 76.3175 186.558 75.7253C184.57 74.9641 182.654 74.0261 180.834 72.9225C178.629 71.595 176.522 70.1128 174.527 68.487C172.223 66.6342 170.054 64.6179 168.039 62.4539C166.981 61.3118 165.937 60.0925 164.935 58.8032C163.913 57.4842 162.977 56.1009 162.132 54.6621C161.237 53.179 160.531 51.5902 160.03 49.9323C159.775 49.0778 159.652 48.1893 159.665 47.2977C159.68 46.8481 159.756 46.4027 159.89 45.9733C160.049 45.539 160.286 45.1376 160.59 44.7891C160.901 44.4562 161.272 44.1851 161.683 43.9903C162.096 43.8061 162.532 43.6788 162.98 43.612C163.863 43.4996 164.758 43.5208 165.635 43.675C167.34 43.987 168.999 44.5095 170.575 45.2306C172.101 45.9075 173.581 46.6846 175.004 47.5569C176.405 48.3978 177.73 49.2947 178.984 50.2266C181.364 51.9823 183.614 53.9072 185.718 55.9864C187.562 57.7866 189.276 59.7161 190.847 61.7602C192.147 63.4406 193.294 65.2346 194.273 67.1206C195.035 68.5378 195.572 70.0649 195.864 71.6472C195.961 72.2281 195.985 72.8191 195.934 73.4059C195.923 73.5262 195.904 73.6456 195.878 73.7633C195.867 73.8753 195.843 73.9858 195.808 74.0926L195.724 74.3939C195.694 74.4802 195.659 74.5645 195.619 74.6462C195.566 74.79 195.495 74.9265 195.408 75.0526C195.384 75.1094 195.353 75.1634 195.317 75.2138L195.226 75.3329L194.981 75.5291Z" fill="#3085FE"/>
<path d="M201.336 60.1695V59.9032V59.756C201.336 59.7 201.336 59.6439 201.301 59.5739C201.277 59.423 201.237 59.275 201.182 59.1324C201.182 59.0553 201.126 58.9643 201.091 58.8802L200.951 58.5999C200.905 58.4983 200.849 58.4019 200.783 58.3126C200.722 58.2074 200.654 58.1067 200.58 58.0113C200.231 57.5429 199.821 57.1234 199.36 56.764C198.086 55.7855 196.668 55.0102 195.156 54.4657C193.17 53.7149 191.12 53.145 189.032 52.763C186.489 52.2857 183.916 51.9907 181.331 51.8801C178.38 51.7363 175.423 51.7996 172.481 52.0693C170.933 52.2165 169.349 52.4337 167.744 52.735C166.105 53.0306 164.488 53.4356 162.903 53.9472C161.255 54.4462 159.677 55.1526 158.208 56.0493C157.459 56.5087 156.786 57.0806 156.211 57.745C155.927 58.082 155.691 58.457 155.51 58.8591C155.337 59.2676 155.242 59.7049 155.23 60.1484C155.244 60.591 155.336 61.0276 155.503 61.4377C155.686 61.8385 155.922 62.2132 156.204 62.5519C156.783 63.2167 157.458 63.7907 158.208 64.2546C159.68 65.1472 161.257 65.8534 162.903 66.3567C164.49 66.8618 166.107 67.2666 167.744 67.5689C169.349 67.8702 170.933 68.0804 172.481 68.2276C175.423 68.5029 178.38 68.5684 181.331 68.4238C183.917 68.3204 186.492 68.0395 189.039 67.5829C191.127 67.2009 193.177 66.6311 195.163 65.8802C196.672 65.3301 198.09 64.5553 199.367 63.5819C199.826 63.2207 200.236 62.8014 200.587 62.3346C200.661 62.2368 200.729 62.1338 200.79 62.0263C200.856 61.937 200.912 61.8406 200.958 61.739L201.098 61.4658C201.133 61.3747 201.161 61.2906 201.189 61.2065C201.245 61.0641 201.285 60.9161 201.308 60.7651C201.308 60.702 201.308 60.6459 201.343 60.5899V60.4427V60.1695C201.343 60.1695 201.343 60.2606 201.343 60.4427V60.5899C201.343 60.6459 201.343 60.702 201.343 60.7721C201.322 60.9228 201.284 61.0708 201.231 61.2135C201.231 61.2976 201.175 61.3817 201.14 61.4728L201.007 61.7531C200.957 61.8547 200.901 61.953 200.839 62.0474C200.777 62.1515 200.709 62.2521 200.636 62.3487C200.287 62.8217 199.877 63.2459 199.416 63.6099C198.144 64.5966 196.725 65.3791 195.212 65.9293C193.225 66.6885 191.173 67.2655 189.081 67.653C186.536 68.1319 183.96 68.4316 181.373 68.5499C178.42 68.6995 175.461 68.6387 172.516 68.3677C170.961 68.2206 169.37 68.0104 167.765 67.7091C166.123 67.406 164.502 67.0011 162.91 66.4968C161.256 65.9965 159.671 65.2902 158.194 64.3947C157.435 63.9288 156.753 63.3499 156.169 62.678C155.885 62.3307 155.649 61.9465 155.468 61.5358C155.279 61.1175 155.181 60.6636 155.181 60.2045C155.181 59.7454 155.279 59.2915 155.468 58.8732C155.652 58.4639 155.887 58.08 156.169 57.731C156.759 57.0599 157.446 56.4813 158.208 56.0143C159.689 55.12 161.275 54.4139 162.931 53.9122C164.518 53.4014 166.138 52.9964 167.779 52.6999C169.391 52.3986 170.975 52.1884 172.53 52.0413C175.455 51.7568 178.396 51.6795 181.331 51.8101C183.919 51.9271 186.494 52.2291 189.039 52.714C191.131 53.0979 193.183 53.6726 195.17 54.4307C196.683 54.9808 198.102 55.7633 199.374 56.75C199.834 57.1158 200.243 57.5398 200.594 58.0113C200.668 58.1091 200.736 58.2121 200.797 58.3196C200.861 58.413 200.917 58.5114 200.965 58.6139L201.098 58.8872C201.133 58.9783 201.161 59.0694 201.189 59.1464C201.242 59.2916 201.28 59.4419 201.301 59.5949C201.301 59.658 201.301 59.721 201.301 59.7701V59.9242C201.336 60.0784 201.336 60.1695 201.336 60.1695Z" fill="#3085FE"/>
<path d="M192.914 41.0613L192.683 40.9141L192.556 40.8301C192.505 40.8003 192.451 40.7745 192.395 40.753C192.262 40.68 192.121 40.6213 191.975 40.5778C191.891 40.5778 191.807 40.5147 191.716 40.4937L191.414 40.4307C191.306 40.4069 191.196 40.3906 191.085 40.3816C190.964 40.3744 190.842 40.3744 190.721 40.3816C190.135 40.3742 189.552 40.4401 188.983 40.5778C187.432 40.9895 185.953 41.6345 184.596 42.4907C182.786 43.5984 181.081 44.8697 179.502 46.2885C177.576 47.9951 175.773 49.8355 174.107 51.7961C172.186 54.0389 170.428 56.4156 168.845 58.9082C168.018 60.2186 167.205 61.62 166.462 63.0214C165.692 64.4983 165.02 66.0245 164.451 67.59C163.848 69.2047 163.446 70.8873 163.253 72.6C163.159 73.4746 163.199 74.3582 163.372 75.2207C163.468 75.6525 163.621 76.0695 163.827 76.4609C164.044 76.8474 164.332 77.1897 164.675 77.4699C165.032 77.7295 165.434 77.9219 165.86 78.0375C166.288 78.1414 166.729 78.1861 167.17 78.1706C168.049 78.1217 168.916 77.9398 169.741 77.6311C171.354 77.0196 172.884 76.2099 174.296 75.2207C175.67 74.2795 176.98 73.2496 178.22 72.1376C179.439 71.0515 180.581 69.9303 181.646 68.7952C183.662 66.6374 185.524 64.3404 187.217 61.9213C188.702 59.8202 190.037 57.6168 191.211 55.3276C192.19 53.4448 192.997 51.4771 193.621 49.4487C194.112 47.9197 194.365 46.3246 194.371 44.719C194.369 44.1363 194.289 43.5566 194.133 42.9952C194.133 42.8691 194.056 42.757 194.021 42.6449C193.986 42.5328 193.944 42.4347 193.895 42.3366L193.762 42.0633C193.713 41.9792 193.657 41.9021 193.614 41.8321C193.535 41.7005 193.441 41.5783 193.334 41.4677L193.222 41.3276L193.11 41.2295L192.914 41.0473L193.117 41.2224L193.229 41.3205C193.272 41.3617 193.312 41.4062 193.348 41.4537C193.454 41.5653 193.548 41.6874 193.628 41.818C193.678 41.8951 193.734 41.9652 193.783 42.0493L193.916 42.3296C193.97 42.4279 194.014 42.5311 194.049 42.6379C194.084 42.75 194.133 42.8621 194.161 42.9882C194.323 43.5511 194.408 44.1333 194.413 44.719C194.416 46.3288 194.168 47.9293 193.678 49.4627C193.056 51.4967 192.254 53.4712 191.281 55.3627C190.107 57.6565 188.772 59.8645 187.287 61.9703C185.598 64.3971 183.736 66.699 181.716 68.8583C180.651 70.0004 179.509 71.1285 178.283 72.2146C177.041 73.3285 175.728 74.3608 174.352 75.3048C172.934 76.3014 171.397 77.116 169.776 77.7292C168.942 78.0408 168.066 78.2251 167.177 78.2757C166.724 78.2909 166.272 78.2462 165.831 78.1426C165.393 78.0189 164.98 77.8171 164.612 77.547C164.258 77.259 163.961 76.9073 163.736 76.51C163.524 76.1098 163.367 75.6834 163.267 75.2417C163.097 74.3694 163.059 73.4765 163.155 72.593C163.344 70.8699 163.749 69.1774 164.36 67.555C164.929 65.9872 165.601 64.4587 166.371 62.9793C167.121 61.5219 167.927 60.1345 168.76 58.8172C170.353 56.3256 172.118 53.9491 174.044 51.705C175.713 49.7448 177.521 47.9065 179.453 46.2045C181.041 44.7872 182.753 43.5161 184.568 42.4066C185.932 41.5541 187.418 40.9161 188.976 40.5147C189.546 40.3736 190.133 40.3077 190.721 40.3185C190.847 40.3185 190.966 40.3185 191.085 40.3185C191.198 40.327 191.31 40.3434 191.421 40.3676L191.723 40.4307L191.982 40.5217C192.128 40.5674 192.269 40.6285 192.402 40.7039C192.458 40.7255 192.512 40.7512 192.563 40.781L192.69 40.8721L192.914 41.0613Z" fill="#3085FE"/>
<path d="M154.95 69.692C155.069 69.8117 155.15 69.964 155.182 70.1297C155.215 70.2954 155.198 70.4671 155.133 70.623C155.068 70.7789 154.958 70.9122 154.818 71.0059C154.677 71.0996 154.512 71.1497 154.344 71.1497C154.175 71.1497 154.01 71.0996 153.869 71.0059C153.729 70.9122 153.619 70.7789 153.554 70.623C153.489 70.4671 153.472 70.2954 153.505 70.1297C153.537 69.964 153.618 69.8117 153.737 69.692C153.817 69.6121 153.911 69.5487 154.015 69.5055C154.119 69.4622 154.231 69.4399 154.344 69.4399C154.456 69.4399 154.568 69.4622 154.672 69.5055C154.776 69.5487 154.87 69.6121 154.95 69.692Z" fill="#3085FE"/>
<path d="M203.291 43.1425C203.293 43.3132 203.243 43.4806 203.149 43.6232C203.056 43.7659 202.921 43.8774 202.764 43.9437C202.607 44.01 202.433 44.0281 202.266 43.9956C202.098 43.9632 201.944 43.8817 201.822 43.7614C201.701 43.6412 201.618 43.4876 201.585 43.3202C201.551 43.1529 201.567 42.9792 201.633 42.8213C201.698 42.6634 201.808 42.5284 201.95 42.4334C202.092 42.3384 202.259 42.2876 202.429 42.2876C202.542 42.2867 202.654 42.3081 202.759 42.3507C202.863 42.3932 202.958 42.456 203.038 42.5355C203.119 42.615 203.182 42.7095 203.226 42.8137C203.269 42.9179 203.291 43.0296 203.291 43.1425Z" fill="#3085FE"/>
<path d="M160.359 72.5087C160.359 72.5517 160.346 72.5937 160.322 72.6294C160.299 72.6651 160.265 72.693 160.225 72.7094C160.185 72.7258 160.142 72.7301 160.099 72.7218C160.057 72.7134 160.019 72.6927 159.988 72.6623C159.958 72.6319 159.937 72.5932 159.929 72.5511C159.92 72.509 159.925 72.4653 159.941 72.4256C159.958 72.3859 159.985 72.352 160.021 72.3281C160.057 72.3042 160.099 72.2915 160.142 72.2915C160.199 72.2915 160.255 72.3144 160.295 72.3551C160.336 72.3959 160.359 72.4511 160.359 72.5087Z" fill="#3085FE"/>
<path d="M165.005 48.5029C165.005 48.5458 164.992 48.5878 164.968 48.6235C164.944 48.6593 164.91 48.6871 164.871 48.7035C164.831 48.72 164.787 48.7243 164.745 48.7159C164.703 48.7075 164.664 48.6868 164.634 48.6565C164.604 48.6261 164.583 48.5874 164.574 48.5452C164.566 48.5031 164.57 48.4594 164.587 48.4197C164.603 48.38 164.631 48.3461 164.667 48.3223C164.703 48.2984 164.745 48.2856 164.788 48.2856C164.845 48.2856 164.9 48.3085 164.941 48.3493C164.982 48.39 165.005 48.4453 165.005 48.5029Z" fill="#3085FE"/>
<path d="M198.982 60.1694C198.982 60.227 198.959 60.2822 198.918 60.323C198.878 60.3637 198.822 60.3866 198.765 60.3866C198.707 60.3866 198.652 60.3637 198.611 60.323C198.57 60.2822 198.547 60.227 198.547 60.1694C198.547 60.1118 198.57 60.0565 198.611 60.0158C198.652 59.975 198.707 59.9521 198.765 59.9521C198.822 59.9521 198.878 59.975 198.918 60.0158C198.959 60.0565 198.982 60.1118 198.982 60.1694Z" fill="#3085FE"/>
<path d="M202.009 50.0234C202.009 50.081 201.986 50.1362 201.945 50.177C201.905 50.2177 201.849 50.2406 201.792 50.2406C201.734 50.2406 201.679 50.2177 201.638 50.177C201.597 50.1362 201.575 50.081 201.575 50.0234C201.575 49.9658 201.597 49.9105 201.638 49.8698C201.679 49.829 201.734 49.8062 201.792 49.8062C201.849 49.8062 201.905 49.829 201.945 49.8698C201.986 49.9105 202.009 49.9658 202.009 50.0234Z" fill="#3085FE"/>
<path d="M187.336 64.9552H184.646V50.3035C184.646 48.6439 183.986 47.0524 182.813 45.8789C181.639 44.7054 180.048 44.0462 178.388 44.0462C176.729 44.0462 175.137 44.7054 173.964 45.8789C172.79 47.0524 172.131 48.6439 172.131 50.3035V64.9552H169.419V50.3035C169.419 47.9303 170.362 45.6544 172.04 43.9763C173.718 42.2982 175.994 41.3555 178.367 41.3555C180.74 41.3555 183.016 42.2982 184.694 43.9763C186.372 45.6544 187.315 47.9303 187.315 50.3035L187.336 64.9552Z" fill="#3085FE"/>
<g opacity="0.3">
<path d="M187.336 64.9552H184.646V50.3035C184.646 48.6439 183.986 47.0524 182.813 45.8789C181.639 44.7054 180.048 44.0462 178.388 44.0462C176.729 44.0462 175.137 44.7054 173.964 45.8789C172.79 47.0524 172.131 48.6439 172.131 50.3035V64.9552H169.419V50.3035C169.419 47.9303 170.362 45.6544 172.04 43.9763C173.718 42.2982 175.994 41.3555 178.367 41.3555C180.74 41.3555 183.016 42.2982 184.694 43.9763C186.372 45.6544 187.315 47.9303 187.315 50.3035L187.336 64.9552Z" fill="black"/>
</g>
<path d="M188.871 58.4385H167.906C167.035 58.4385 166.329 59.1443 166.329 60.0151V72.3335C166.329 73.2042 167.035 73.91 167.906 73.91H188.871C189.741 73.91 190.447 73.2042 190.447 72.3335V60.0151C190.447 59.1443 189.741 58.4385 188.871 58.4385Z" fill="#3085FE"/>
<g opacity="0.3">
<path d="M180.406 64.1636C180.409 63.7873 180.307 63.4178 180.111 63.0966C179.915 62.7754 179.633 62.5155 179.297 62.346C178.961 62.1766 178.584 62.1045 178.21 62.1378C177.835 62.1711 177.477 62.3085 177.176 62.5345C176.875 62.7606 176.644 63.0662 176.507 63.4169C176.371 63.7676 176.335 64.1494 176.405 64.5192C176.474 64.889 176.645 65.2321 176.899 65.5098C177.153 65.7875 177.479 65.9886 177.842 66.0905V69.1035H178.935V66.0905C179.357 65.9742 179.729 65.7228 179.995 65.3748C180.261 65.0268 180.405 64.6014 180.406 64.1636Z" fill="black"/>
</g>
<path d="M167.618 72.4455C167.562 72.4455 167.513 69.867 167.513 66.6858C167.513 63.5046 167.562 60.9189 167.618 60.9189C167.674 60.9189 167.716 63.4975 167.716 66.6858C167.716 69.874 167.667 72.4455 167.618 72.4455Z" fill="#FAFAFA"/>
<path d="M176.812 66.7418C176.812 66.7418 176.713 66.7418 176.573 66.6087C176.375 66.4608 176.2 66.2836 176.055 66.0831C175.8 65.7528 175.621 65.3696 175.533 64.9615C175.445 64.5535 175.449 64.1308 175.545 63.7246C175.641 63.3183 175.827 62.9386 176.088 62.6132C176.35 62.2878 176.681 62.025 177.057 61.8439C177.276 61.7262 177.513 61.6435 177.758 61.5986C177.848 61.5817 177.941 61.5817 178.031 61.5986C177.721 61.7037 177.419 61.8301 177.127 61.977C176.785 62.1657 176.486 62.4238 176.25 62.7347C176.013 63.0457 175.844 63.4026 175.754 63.7826C175.664 64.1627 175.654 64.5574 175.725 64.9415C175.796 65.3256 175.946 65.6906 176.167 66.0131C176.362 66.2729 176.577 66.5166 176.812 66.7418Z" fill="#FAFAFA"/>
<path d="M214.194 87.1748H139.94C136.334 87.1748 133.41 90.0986 133.41 93.7054V94.5042C133.41 98.1109 136.334 101.035 139.94 101.035H214.194C217.801 101.035 220.725 98.1109 220.725 94.5042V93.7054C220.725 90.0986 217.801 87.1748 214.194 87.1748Z" fill="#ACAFB5" fill-opacity="0.1"/>
<path d="M214.832 106.178H140.578C136.971 106.178 134.048 109.102 134.048 112.708V113.507C134.048 117.114 136.971 120.038 140.578 120.038H214.832C218.439 120.038 221.362 117.114 221.362 113.507V112.708C221.362 109.102 218.439 106.178 214.832 106.178Z" fill="#ACAFB5" fill-opacity="0.1"/>
<path d="M147.207 93.9923V91.9883H148.041V93.9643C148.041 94.665 148.335 94.9242 148.839 94.9242C149.344 94.9242 149.638 94.644 149.638 93.9643V91.9883H150.458V93.9923C150.458 94.4234 150.287 94.8369 149.982 95.1418C149.677 95.4467 149.264 95.6179 148.832 95.6179C148.401 95.6179 147.988 95.4467 147.683 95.1418C147.378 94.8369 147.207 94.4234 147.207 93.9923Z" fill="#ACAFB5" fill-opacity="0.2"/>
<path d="M150.956 95.3168L151.215 94.7422C151.505 94.9151 151.837 95.0071 152.175 95.0085C152.546 95.0085 152.679 94.9104 152.679 94.7562C152.679 94.3078 151.019 94.7562 151.019 93.6701C151.019 93.1446 151.488 92.7732 152.294 92.7732C152.661 92.7673 153.025 92.8515 153.352 93.0185L153.086 93.5861C152.845 93.4486 152.571 93.3784 152.294 93.3829C151.937 93.3829 151.782 93.495 151.782 93.6351C151.782 94.1046 153.443 93.6351 153.443 94.7352C153.443 95.2467 152.974 95.6111 152.147 95.6111C151.731 95.6203 151.32 95.5188 150.956 95.3168Z" fill="#ACAFB5" fill-opacity="0.2"/>
<path d="M156.624 94.42H154.522C154.565 94.5923 154.669 94.7432 154.814 94.845C154.96 94.9467 155.137 94.9924 155.314 94.9736C155.443 94.9793 155.571 94.9586 155.692 94.9128C155.812 94.867 155.922 94.7971 156.015 94.7073L156.442 95.1698C156.296 95.3209 156.119 95.4386 155.923 95.5148C155.727 95.591 155.517 95.6239 155.307 95.6112C155.109 95.6362 154.907 95.6185 154.717 95.5594C154.526 95.5002 154.35 95.4009 154.201 95.2682C154.051 95.1355 153.932 94.9724 153.851 94.7899C153.77 94.6073 153.729 94.4096 153.73 94.2098C153.73 94.0197 153.769 93.8316 153.843 93.6568C153.918 93.4821 154.028 93.3243 154.165 93.1932C154.303 93.0621 154.466 92.9604 154.644 92.8943C154.822 92.8281 155.012 92.7989 155.202 92.8084C155.389 92.8037 155.575 92.8365 155.749 92.9048C155.923 92.9732 156.082 93.0757 156.215 93.2063C156.349 93.3369 156.456 93.4929 156.528 93.6653C156.601 93.8376 156.638 94.0228 156.638 94.2098C156.638 94.2659 156.624 94.3499 156.624 94.42ZM154.522 93.9505H155.874C155.834 93.8021 155.746 93.6711 155.624 93.5776C155.502 93.4842 155.352 93.4336 155.198 93.4336C155.044 93.4336 154.895 93.4842 154.773 93.5776C154.651 93.6711 154.562 93.8021 154.522 93.9505Z" fill="#ACAFB5" fill-opacity="0.2"/>
<path d="M158.909 92.7733V93.516H158.726C158.628 93.5155 158.531 93.5357 158.441 93.5752C158.351 93.6147 158.27 93.6727 158.204 93.7454C158.138 93.8181 158.088 93.9038 158.057 93.9971C158.027 94.0904 158.016 94.1891 158.026 94.2868V95.5831H157.227V92.8293H157.991V93.1517C158.103 93.0211 158.245 92.9188 158.404 92.853C158.564 92.7873 158.737 92.76 158.909 92.7733Z" fill="#ACAFB5" fill-opacity="0.2"/>
<path d="M162.174 93.9927V95.5693H161.375V94.1188C161.375 93.6704 161.172 93.4672 160.815 93.4672C160.457 93.4672 160.156 93.7054 160.156 94.2099V95.5693H159.357V92.8155H160.121V93.1518C160.239 93.0313 160.381 92.9367 160.538 92.874C160.695 92.8113 160.863 92.7818 161.032 92.7875C161.19 92.7771 161.348 92.8017 161.496 92.8595C161.644 92.9173 161.777 93.0069 161.886 93.122C161.995 93.237 162.077 93.3747 162.127 93.5252C162.177 93.6757 162.193 93.8353 162.174 93.9927Z" fill="#ACAFB5" fill-opacity="0.2"/>
<path d="M165.334 93.9995V95.569H164.584V95.2537C164.492 95.3877 164.365 95.4943 164.217 95.5621C164.069 95.63 163.905 95.6566 163.743 95.6391C163.099 95.6391 162.713 95.2817 162.713 94.8053C162.713 94.3288 163.057 93.9784 163.898 93.9784H164.514C164.514 93.6421 164.311 93.4389 163.877 93.4389C163.592 93.4379 163.314 93.5288 163.085 93.6982L162.797 93.1376C163.152 92.9085 163.567 92.7913 163.989 92.8013C164.844 92.7732 165.334 93.1516 165.334 93.9995ZM164.535 94.7002V94.4199H163.989C163.61 94.4199 163.498 94.56 163.498 94.7422C163.498 94.9244 163.666 95.0785 163.947 95.0785C164.069 95.0822 164.189 95.0478 164.291 94.98C164.393 94.9121 164.471 94.8144 164.514 94.7002H164.535Z" fill="#ACAFB5" fill-opacity="0.2"/>
<path d="M170.708 93.9924V95.569H169.91V94.1185C169.91 93.6701 169.713 93.4669 169.391 93.4669C169.069 93.4669 168.782 93.6981 168.782 94.1676V95.569H168.018V94.1185C168.018 93.6701 167.829 93.4669 167.492 93.4669C167.156 93.4669 166.89 93.6981 166.89 94.1676V95.569H166.056V92.8152H166.82V93.1515C166.928 93.0316 167.061 92.9368 167.21 92.8738C167.359 92.8109 167.52 92.7813 167.681 92.7872C167.859 92.779 168.037 92.8166 168.196 92.8963C168.356 92.976 168.492 93.0953 168.592 93.2426C168.711 93.0944 168.863 92.9761 169.036 92.897C169.209 92.8179 169.397 92.7803 169.587 92.7872C169.744 92.7775 169.902 92.8027 170.048 92.8611C170.194 92.9195 170.326 93.0096 170.433 93.1248C170.54 93.2401 170.62 93.3776 170.668 93.5277C170.716 93.6777 170.729 93.8364 170.708 93.9924Z" fill="#ACAFB5" fill-opacity="0.2"/>
<path d="M174.142 94.42H172.04C172.075 94.5949 172.177 94.7495 172.322 94.8524C172.468 94.9553 172.648 94.9986 172.825 94.9736C172.953 94.9789 173.082 94.958 173.202 94.9122C173.323 94.8665 173.432 94.7968 173.525 94.7073L173.946 95.1698C173.8 95.3216 173.623 95.4398 173.427 95.5161C173.231 95.5923 173.02 95.6248 172.811 95.6112C172.613 95.6351 172.412 95.6166 172.222 95.557C172.033 95.4973 171.857 95.3979 171.709 95.2653C171.56 95.1327 171.442 94.97 171.361 94.788C171.28 94.606 171.24 94.4089 171.241 94.2098C171.241 94.0197 171.279 93.8316 171.354 93.6568C171.429 93.4821 171.538 93.3243 171.676 93.1932C171.814 93.0621 171.976 92.9604 172.155 92.8943C172.333 92.8281 172.523 92.7989 172.712 92.8084C173.084 92.8084 173.441 92.956 173.703 93.2189C173.966 93.4817 174.114 93.8381 174.114 94.2098C174.156 94.2659 174.149 94.3499 174.142 94.42ZM172.04 93.9505H173.399C173.376 93.7846 173.291 93.6335 173.161 93.5281C173.031 93.4226 172.865 93.3707 172.698 93.383C172.539 93.3801 172.384 93.4365 172.263 93.5414C172.143 93.6463 172.066 93.792 172.047 93.9505H172.04Z" fill="#ACAFB5" fill-opacity="0.2"/>
<path d="M179.425 94.1678C179.425 95.0857 179.005 95.6112 178.374 95.6112C178.225 95.6211 178.076 95.583 177.95 95.5023C177.824 95.4215 177.727 95.3026 177.673 95.1628C177.58 95.3086 177.45 95.4269 177.296 95.5058C177.142 95.5846 176.97 95.621 176.798 95.6112C176.477 95.5779 176.18 95.4269 175.964 95.1875C175.749 94.9481 175.629 94.6372 175.629 94.3149C175.629 93.9926 175.749 93.6818 175.964 93.4424C176.18 93.203 176.477 93.052 176.798 93.0186C176.946 93.0117 177.094 93.0391 177.23 93.0987C177.366 93.1582 177.487 93.2483 177.582 93.362V93.0607H178.283V94.7143C178.283 94.9596 178.388 95.0437 178.528 95.0437C178.668 95.0437 178.907 94.7704 178.907 94.1818C178.91 93.9373 178.861 93.6949 178.765 93.4703C178.668 93.2457 178.525 93.0439 178.345 92.8781C178.166 92.7122 177.953 92.586 177.721 92.5076C177.49 92.4293 177.244 92.4004 177.001 92.423C176.508 92.423 176.036 92.6187 175.688 92.9669C175.34 93.3151 175.144 93.7874 175.144 94.2799C175.144 94.7724 175.34 95.2447 175.688 95.5929C176.036 95.9411 176.508 96.1368 177.001 96.1368C177.349 96.1363 177.694 96.0598 178.01 95.9125L178.171 96.382C177.804 96.5498 177.404 96.6336 177.001 96.6273C176.682 96.6447 176.363 96.597 176.064 96.4871C175.764 96.3771 175.49 96.2073 175.259 95.988C175.027 95.7686 174.842 95.5043 174.716 95.2112C174.59 94.9182 174.525 94.6025 174.525 94.2834C174.525 93.9643 174.59 93.6486 174.716 93.3556C174.842 93.0625 175.027 92.7982 175.259 92.5788C175.49 92.3595 175.764 92.1897 176.064 92.0797C176.363 91.9698 176.682 91.9221 177.001 91.9395C177.309 91.9144 177.619 91.9533 177.912 92.0538C178.204 92.1543 178.473 92.3142 178.7 92.5235C178.928 92.7327 179.11 92.9869 179.235 93.2698C179.359 93.5528 179.424 93.8585 179.425 94.1678ZM177.596 94.3149C177.606 94.2252 177.597 94.1344 177.569 94.0486C177.541 93.9628 177.495 93.8841 177.434 93.8176C177.373 93.7512 177.298 93.6987 177.215 93.6636C177.132 93.6285 177.042 93.6117 176.952 93.6142C176.766 93.6142 176.588 93.6881 176.456 93.8195C176.325 93.9509 176.251 94.1291 176.251 94.3149C176.251 94.5008 176.325 94.679 176.456 94.8104C176.588 94.9418 176.766 95.0156 176.952 95.0156C177.042 95.0182 177.132 95.0014 177.215 94.9663C177.298 94.9312 177.373 94.8787 177.434 94.8122C177.495 94.7458 177.541 94.667 177.569 94.5812C177.597 94.4954 177.606 94.4046 177.596 94.3149Z" fill="#ACAFB5" fill-opacity="0.2"/>
<path d="M184.645 93.9924V95.569H183.847V94.1185C183.847 93.67 183.65 93.4668 183.328 93.4668C183.006 93.4668 182.719 93.6981 182.719 94.1675V95.569H181.92V94.1185C181.92 93.67 181.731 93.4668 181.394 93.4668C181.058 93.4668 180.792 93.6981 180.792 94.1675V95.569H179.993V92.8152H180.757V93.1515C180.865 93.0315 180.998 92.9368 181.147 92.8738C181.296 92.8109 181.457 92.7813 181.618 92.7871C181.797 92.779 181.974 92.8166 182.133 92.8963C182.293 92.976 182.429 93.0952 182.529 93.2426C182.647 93.095 182.798 92.9769 182.969 92.8978C183.141 92.8187 183.329 92.7808 183.517 92.7871C183.675 92.7764 183.833 92.8008 183.98 92.8587C184.127 92.9166 184.26 93.0065 184.368 93.1219C184.476 93.2373 184.557 93.3753 184.605 93.5258C184.653 93.6764 184.667 93.8357 184.645 93.9924Z" fill="#ACAFB5" fill-opacity="0.2"/>
<path d="M187.799 93.9995V95.569H187.056V95.2537C186.963 95.3877 186.836 95.4943 186.688 95.5621C186.54 95.63 186.377 95.6566 186.215 95.6391C185.57 95.6391 185.185 95.2817 185.185 94.8053C185.185 94.3288 185.528 93.9784 186.369 93.9784H187C187 93.6421 186.797 93.4389 186.369 93.4389C186.084 93.4353 185.805 93.5265 185.577 93.6982L185.29 93.1376C185.642 92.9098 186.055 92.7927 186.474 92.8013C187.315 92.7732 187.799 93.1516 187.799 93.9995ZM187 94.7002V94.4199H186.453C186.082 94.4199 185.963 94.56 185.963 94.7422C185.963 94.9244 186.131 95.0785 186.411 95.0785C186.537 95.0867 186.662 95.0544 186.768 94.9863C186.874 94.9182 186.955 94.8179 187 94.7002Z" fill="#ACAFB5" fill-opacity="0.2"/>
<path d="M188.429 91.9885C188.43 91.9256 188.444 91.8635 188.47 91.8061C188.496 91.7487 188.533 91.6974 188.58 91.6552C188.627 91.6131 188.682 91.5811 188.741 91.5613C188.801 91.5415 188.864 91.5342 188.927 91.54C189.013 91.5495 189.094 91.5836 189.161 91.6383C189.228 91.6929 189.278 91.7658 189.305 91.8481C189.331 91.9305 189.333 92.0187 189.311 92.1022C189.288 92.1857 189.242 92.261 189.178 92.3189C189.114 92.3768 189.034 92.4149 188.949 92.4286C188.863 92.4423 188.776 92.431 188.697 92.3961C188.618 92.3612 188.55 92.3041 188.503 92.2318C188.455 92.1595 188.43 92.075 188.429 91.9885ZM188.527 92.8153H189.319V95.5691H188.527V92.8153Z" fill="#ACAFB5" fill-opacity="0.2"/>
<path d="M190.069 91.75H190.868V95.5478H190.069V91.75Z" fill="#ACAFB5" fill-opacity="0.2"/>
<path d="M191.414 95.1137C191.414 94.9818 191.467 94.8552 191.56 94.7619C191.653 94.6686 191.78 94.6162 191.912 94.6162C192.044 94.6162 192.17 94.6686 192.264 94.7619C192.357 94.8552 192.409 94.9818 192.409 95.1137C192.409 95.2457 192.357 95.3722 192.264 95.4655C192.17 95.5588 192.044 95.6112 191.912 95.6112C191.78 95.6112 191.653 95.5588 191.56 95.4655C191.467 95.3722 191.414 95.2457 191.414 95.1137Z" fill="#ACAFB5" fill-opacity="0.2"/>
<path d="M192.711 94.1958C192.71 94 192.75 93.8062 192.828 93.6269C192.907 93.4476 193.022 93.2867 193.167 93.1547C193.312 93.0226 193.482 92.9224 193.668 92.8603C193.854 92.7983 194.05 92.7758 194.245 92.7944C194.497 92.7731 194.75 92.8286 194.97 92.9537C195.19 93.0788 195.368 93.2675 195.478 93.4951L194.862 93.8245C194.791 93.7201 194.694 93.6357 194.581 93.5794C194.468 93.5232 194.343 93.4969 194.217 93.5032C194.091 93.5095 193.968 93.5481 193.861 93.6154C193.755 93.6826 193.667 93.7762 193.607 93.8871C193.546 93.998 193.516 94.1226 193.518 94.2488C193.519 94.375 193.554 94.4986 193.617 94.6078C193.681 94.7169 193.771 94.8079 193.88 94.8719C193.989 94.936 194.112 94.971 194.238 94.9736C194.367 94.9739 194.493 94.9387 194.603 94.872C194.713 94.8052 194.803 94.7095 194.862 94.5952L195.478 94.9316C195.366 95.1579 195.189 95.3456 194.969 95.4704C194.749 95.5953 194.497 95.6516 194.245 95.6323C194.047 95.6512 193.848 95.6279 193.659 95.5638C193.471 95.4997 193.299 95.3962 193.154 95.2604C193.009 95.1245 192.894 94.9593 192.818 94.7758C192.741 94.5922 192.705 94.3946 192.711 94.1958Z" fill="#ACAFB5" fill-opacity="0.2"/>
<path d="M195.703 94.1955C195.68 93.8923 195.749 93.5895 195.901 93.3263C196.053 93.0631 196.281 92.8518 196.555 92.7198C196.829 92.5879 197.136 92.5415 197.437 92.5866C197.737 92.6317 198.017 92.7663 198.24 92.9728C198.463 93.1793 198.619 93.4482 198.687 93.7444C198.755 94.0406 198.732 94.3505 198.622 94.6336C198.511 94.9168 198.318 95.1601 198.068 95.3319C197.817 95.5037 197.52 95.596 197.216 95.5969C197.023 95.6124 196.829 95.5876 196.645 95.5242C196.462 95.4607 196.294 95.36 196.152 95.2282C196.01 95.0965 195.896 94.9367 195.819 94.759C195.742 94.5812 195.702 94.3893 195.703 94.1955ZM197.917 94.1955C197.905 94.0602 197.853 93.9315 197.769 93.8248C197.685 93.7182 197.572 93.6383 197.443 93.5948C197.315 93.5513 197.176 93.5461 197.045 93.5798C196.913 93.6136 196.794 93.6848 196.703 93.7848C196.611 93.8849 196.55 94.0094 196.528 94.1434C196.506 94.2773 196.523 94.4148 196.577 94.5392C196.631 94.6636 196.721 94.7696 196.834 94.8441C196.948 94.9187 197.08 94.9587 197.216 94.9592C197.314 94.9596 197.41 94.9396 197.5 94.9005C197.589 94.8615 197.669 94.8041 197.735 94.7322C197.801 94.6603 197.852 94.5754 197.883 94.483C197.914 94.3906 197.926 94.2926 197.917 94.1955Z" fill="#ACAFB5" fill-opacity="0.2"/>
<path d="M203.915 93.9924V95.569H203.116V94.1185C203.116 93.67 202.913 93.4668 202.591 93.4668C202.268 93.4668 201.981 93.6981 201.981 94.1675V95.569H201.182V94.1185C201.182 93.67 200.993 93.4668 200.664 93.4668C200.334 93.4668 200.061 93.6981 200.061 94.1675V95.569H199.262V92.8152H200.019V93.1515C200.129 93.0314 200.263 92.9366 200.413 92.8736C200.563 92.8107 200.725 92.7812 200.888 92.7871C201.065 92.7781 201.242 92.8154 201.4 92.8953C201.559 92.9751 201.694 93.0948 201.792 93.2426C201.911 93.0952 202.063 92.9775 202.236 92.8985C202.409 92.8195 202.597 92.7814 202.787 92.7871C202.944 92.7764 203.103 92.8008 203.25 92.8587C203.397 92.9166 203.529 93.0065 203.637 93.1219C203.745 93.2373 203.826 93.3753 203.874 93.5258C203.922 93.6764 203.936 93.8357 203.915 93.9924Z" fill="#ACAFB5" fill-opacity="0.2"/>
<path d="M157.907 113.185L159.203 113.885L158.621 114.859L157.311 114.089V115.532H156.19V114.075L154.922 114.873L154.347 113.899L155.65 113.199L154.347 112.498L154.922 111.524L156.232 112.309V110.858H157.353V112.309L158.663 111.524L159.245 112.498L157.907 113.185Z" fill="#ACAFB5" fill-opacity="0.2"/>
<path d="M163.309 113.185L164.605 113.885L164.024 114.873L162.713 114.103V115.546H161.599V114.089L160.31 114.873L159.735 113.899L161.032 113.199L159.735 112.498L160.31 111.524L161.62 112.309V110.858H162.734V112.309L164.045 111.524L164.626 112.498L163.309 113.185Z" fill="#ACAFB5" fill-opacity="0.2"/>
<path d="M168.719 113.185L170.015 113.885L169.419 114.873L168.116 114.103V115.546H166.995V114.089L165.719 114.873L165.152 113.899L166.448 113.199L165.152 112.498L165.719 111.524L167.03 112.309V110.858H168.151V112.309L169.454 111.524L170.043 112.498L168.719 113.185Z" fill="#ACAFB5" fill-opacity="0.2"/>
<path d="M174.107 113.185L175.403 113.885L174.822 114.859L173.511 114.089V115.532H172.39V114.075L171.122 114.873L170.547 113.899L171.851 113.199L170.547 112.498L171.122 111.524L172.432 112.309V110.858H173.553V112.309L174.864 111.524L175.445 112.498L174.107 113.185Z" fill="#ACAFB5" fill-opacity="0.2"/>
<path d="M179.509 113.185L180.806 113.886L180.224 114.86L178.914 114.089V115.532H177.828V114.075L176.524 114.874L175.95 113.9L177.246 113.199L175.95 112.498L176.524 111.524L177.828 112.281V110.831H178.942V112.281L180.252 111.496L180.834 112.47L179.509 113.185Z" fill="#ACAFB5" fill-opacity="0.2"/>
<path d="M184.912 113.185L186.208 113.885L185.626 114.859L184.316 114.089V115.532H183.195V114.075L181.92 114.873L181.352 113.899L182.648 113.199L181.352 112.498L181.92 111.524L183.23 112.309V110.858H184.351V112.309L185.662 111.524L186.243 112.498L184.912 113.185Z" fill="#ACAFB5" fill-opacity="0.2"/>
<path d="M190.307 113.185L191.604 113.885L191.022 114.859L189.712 114.089V115.532H188.59V114.075L187.322 114.873L186.748 113.899L188.051 113.199L186.748 112.498L187.322 111.524L188.633 112.309V110.858H189.74V112.309L191.05 111.524L191.632 112.498L190.307 113.185Z" fill="#ACAFB5" fill-opacity="0.2"/>
<path d="M195.71 113.185L197.006 113.885L196.424 114.859L195.114 114.089V115.532H194V114.075L192.725 114.873L192.15 113.899L193.446 113.199L192.15 112.498L192.725 111.524L194.035 112.309V110.858H195.149V112.309L196.459 111.524L197.041 112.498L195.71 113.185Z" fill="#ACAFB5" fill-opacity="0.2"/>
<path d="M132.071 74.478H77.4863C77.113 74.478 76.7434 74.5517 76.3987 74.6947C76.0539 74.8378 75.7408 75.0474 75.4772 75.3117C75.2135 75.5759 75.0047 75.8896 74.8625 76.2347C74.7203 76.5798 74.6475 76.9496 74.6484 77.3229V102.184C74.6437 102.558 74.7139 102.929 74.8549 103.275C74.9958 103.622 75.2047 103.937 75.4691 104.201C75.7336 104.466 76.0483 104.674 76.3948 104.815C76.7412 104.956 77.1123 105.026 77.4863 105.022H100.385L105.248 111.265L109.305 105.022H132.071C132.444 105.022 132.813 104.948 133.157 104.806C133.502 104.663 133.814 104.454 134.078 104.191C134.341 103.927 134.55 103.614 134.693 103.27C134.836 102.926 134.909 102.557 134.909 102.184V77.3229C134.909 76.5696 134.61 75.8471 134.078 75.3137C133.546 74.7804 132.825 74.4799 132.071 74.478Z" fill="#202327"/>
<path d="M132.071 74.4778H132.338C132.604 74.5008 132.865 74.5598 133.115 74.653C133.525 74.7997 133.894 75.0396 134.195 75.3537C134.624 75.8157 134.888 76.4072 134.944 77.0354C135 79.7401 134.986 83.6781 135.007 88.6671C135.007 91.1616 135.007 93.9154 135.007 96.9004C135.007 98.3999 135.007 99.9485 135.007 101.56C135.026 101.972 135.008 102.385 134.951 102.793C134.865 103.218 134.688 103.62 134.433 103.971C134.171 104.33 133.831 104.626 133.44 104.837C133.048 105.048 132.614 105.168 132.17 105.19H109.27L109.411 105.12C108.135 107.075 106.762 109.198 105.361 111.356L105.227 111.559L105.073 111.37L100.21 105.134L100.351 105.204H78.3273C77.9279 105.204 77.5566 105.204 77.1291 105.204C76.5073 105.13 75.9236 104.865 75.4581 104.446C74.9927 104.027 74.6683 103.474 74.5295 102.863C74.4597 102.47 74.4338 102.071 74.4524 101.672V91.4069C74.4524 88.4219 74.4524 85.4952 74.4524 82.627V77.3227C74.4527 76.9535 74.5216 76.5876 74.6556 76.2436C74.9155 75.5599 75.413 74.9927 76.0571 74.646C76.3788 74.4814 76.7279 74.3769 77.0871 74.3377C77.4326 74.3204 77.7787 74.3204 78.1241 74.3377H84.0871H91.6407H105.192L124.812 74.3937L130.145 74.4288L124.812 74.4638L105.192 74.5199H91.6407H78.1802C77.8439 74.5199 77.4795 74.5199 77.1782 74.5199C76.8599 74.5564 76.551 74.6514 76.2673 74.8001C75.6878 75.097 75.2367 75.5954 74.999 76.2016C74.8788 76.5073 74.817 76.833 74.8168 77.1615V78.2126C74.8168 79.614 74.8168 81.0154 74.8168 82.4659V91.2457C74.8168 94.226 74.8168 97.2624 74.8168 100.355V101.518C74.7946 101.891 74.8158 102.264 74.8799 102.632C75.0034 103.169 75.2898 103.654 75.7001 104.022C76.1103 104.39 76.6241 104.621 77.1712 104.685C77.5285 104.72 77.942 104.685 78.3273 104.685H100.47L100.526 104.755L105.389 110.992H105.101L109.158 104.755L109.207 104.678H109.306H132.191C132.593 104.665 132.988 104.559 133.344 104.37C133.7 104.18 134.008 103.912 134.244 103.585C134.481 103.271 134.644 102.906 134.72 102.52C134.774 102.128 134.793 101.731 134.776 101.336C134.776 99.7242 134.776 98.1757 134.776 96.6762C134.776 93.6912 134.776 90.9374 134.776 88.4429C134.776 83.4679 134.776 79.5299 134.811 76.8182C134.749 76.232 134.504 75.6804 134.11 75.2416C133.823 74.9202 133.466 74.6686 133.066 74.5059C132.738 74.4492 132.403 74.4398 132.071 74.4778Z" fill="#ACAFB5" fill-opacity="0.2"/>
<path d="M94.5555 81.499V82.417H93.9599V81.492L92.9509 79.8384H93.5885L94.2892 80.9875L94.9899 79.8384H95.5785L94.5555 81.499Z" fill="white"/>
<path d="M95.5505 81.1207C95.5379 80.8412 95.6093 80.5643 95.7554 80.3257C95.9015 80.0871 96.1158 79.8977 96.3705 79.7819C96.6252 79.6661 96.9087 79.6292 97.1846 79.6759C97.4605 79.7227 97.716 79.8509 97.9184 80.0442C98.1207 80.2374 98.2606 80.4868 98.32 80.7602C98.3793 81.0337 98.3555 81.3186 98.2516 81.5784C98.1476 81.8381 97.9683 82.0608 97.7366 82.2178C97.505 82.3748 97.2317 82.4588 96.9519 82.4591C96.7709 82.4676 96.5901 82.4393 96.4204 82.3759C96.2506 82.3125 96.0955 82.2152 95.9645 82.0901C95.8335 81.965 95.7292 81.8145 95.6581 81.6479C95.5869 81.4813 95.5503 81.3019 95.5505 81.1207ZM97.7787 81.1207C97.7773 80.9603 97.7285 80.8038 97.6384 80.6711C97.5482 80.5383 97.4208 80.4352 97.2721 80.3748C97.1235 80.3143 96.9603 80.2992 96.8031 80.3314C96.6459 80.3635 96.5017 80.4415 96.3887 80.5555C96.2758 80.6694 96.199 80.8142 96.1682 80.9717C96.1374 81.1292 96.1539 81.2923 96.2157 81.4404C96.2774 81.5885 96.3816 81.715 96.5151 81.804C96.6486 81.893 96.8055 81.9405 96.9659 81.9406C97.0741 81.9435 97.1816 81.9242 97.2821 81.884C97.3825 81.8437 97.4736 81.7833 97.5497 81.7065C97.6259 81.6297 97.6855 81.5381 97.7249 81.4373C97.7643 81.3366 97.7826 81.2288 97.7787 81.1207Z" fill="white"/>
<path d="M98.8228 81.2748V79.8384H99.4254V81.2398C99.4254 81.7303 99.6426 81.9405 100 81.9405C100.357 81.9405 100.582 81.7373 100.582 81.2398V79.8384H101.177V81.2888C101.177 81.6011 101.053 81.9005 100.832 82.1212C100.612 82.342 100.312 82.466 100 82.466C99.6878 82.466 99.3883 82.342 99.1676 82.1212C98.9468 81.9005 98.8228 81.6011 98.8228 81.2888V81.2748Z" fill="white"/>
<path d="M103.426 82.417L102.929 81.7163H102.375V82.417H101.773V79.8384H102.894C103.595 79.8384 104.022 80.1957 104.022 80.7773C104.03 80.9524 103.983 81.1256 103.887 81.2726C103.792 81.4196 103.653 81.533 103.489 81.5971L104.071 82.431L103.426 82.417ZM102.866 80.3149H102.375V81.2398H102.866C103.23 81.2398 103.412 81.0646 103.412 80.7843C103.412 80.5041 103.23 80.3079 102.852 80.3079L102.866 80.3149Z" fill="white"/>
<path d="M105.388 81.1207C105.391 80.8333 105.481 80.5536 105.648 80.3194C105.815 80.0853 106.049 79.908 106.32 79.8116C106.591 79.7152 106.884 79.7044 107.162 79.7807C107.439 79.8569 107.686 80.0165 107.869 80.2378L107.484 80.5951C107.404 80.4973 107.304 80.4188 107.19 80.3654C107.075 80.312 106.951 80.2851 106.825 80.2868C106.618 80.3059 106.425 80.4016 106.285 80.5552C106.145 80.7088 106.067 80.9092 106.067 81.1172C106.067 81.3251 106.145 81.5255 106.285 81.6791C106.425 81.8327 106.618 81.9285 106.825 81.9475C106.95 81.9505 107.075 81.925 107.189 81.8728C107.303 81.8206 107.404 81.7431 107.484 81.6462L107.869 81.9965C107.686 82.2174 107.44 82.3768 107.163 82.4533C106.887 82.5297 106.594 82.5195 106.323 82.424C106.053 82.3285 105.818 82.1523 105.651 81.9192C105.484 81.6862 105.392 81.4074 105.388 81.1207Z" fill="white"/>
<path d="M108.058 81.1207C108.045 80.8412 108.117 80.5643 108.263 80.3257C108.409 80.0871 108.623 79.8977 108.878 79.7819C109.133 79.6661 109.416 79.6292 109.692 79.6759C109.968 79.7227 110.224 79.8509 110.426 80.0442C110.628 80.2374 110.768 80.4868 110.828 80.7602C110.887 81.0337 110.863 81.3186 110.759 81.5784C110.655 81.8381 110.476 82.0608 110.244 82.2178C110.013 82.3748 109.739 82.4588 109.459 82.4591C109.278 82.4676 109.098 82.4393 108.928 82.3759C108.758 82.3125 108.603 82.2152 108.472 82.0901C108.341 81.965 108.237 81.8145 108.166 81.6479C108.094 81.4813 108.058 81.3019 108.058 81.1207ZM110.286 81.1207C110.284 80.9606 110.234 80.8048 110.143 80.673C110.052 80.5412 109.924 80.4392 109.775 80.3798C109.626 80.3205 109.463 80.3064 109.307 80.3393C109.15 80.3722 109.006 80.4507 108.894 80.5649C108.782 80.6791 108.706 80.824 108.675 80.9813C108.645 81.1385 108.662 81.3012 108.724 81.4489C108.786 81.5967 108.89 81.7228 109.023 81.8115C109.157 81.9002 109.313 81.9475 109.473 81.9476C109.582 81.9506 109.69 81.9311 109.791 81.8904C109.892 81.8498 109.984 81.7887 110.06 81.7111C110.136 81.6336 110.196 81.5411 110.235 81.4395C110.274 81.3379 110.291 81.2294 110.286 81.1207Z" fill="white"/>
<path d="M111.351 79.8381H112.536C112.717 79.8192 112.901 79.8386 113.074 79.8951C113.248 79.9517 113.408 80.044 113.543 80.1662C113.679 80.2884 113.787 80.4378 113.861 80.6046C113.936 80.7713 113.974 80.9518 113.974 81.1344C113.974 81.3169 113.936 81.4974 113.861 81.6642C113.787 81.831 113.679 81.9803 113.543 82.1025C113.408 82.2247 113.248 82.3171 113.074 82.3736C112.901 82.4301 112.717 82.4496 112.536 82.4307H111.351V79.8381ZM112.501 81.9402C112.714 81.9402 112.919 81.8553 113.07 81.7042C113.221 81.553 113.306 81.3481 113.306 81.1344C113.306 80.9207 113.221 80.7157 113.07 80.5646C112.919 80.4135 112.714 80.3286 112.501 80.3286H111.961V81.9402H112.501Z" fill="white"/>
<path d="M116.432 81.9405V82.424H114.421V79.8384H116.382V80.3149H115.016V80.8824H116.221V81.3519H115.016V81.9405H116.432Z" fill="white"/>
<path d="M126.746 85.1426H82.8187C81.4449 85.1426 80.3312 86.2563 80.3312 87.6301V96.9074C80.3312 98.2812 81.4449 99.3949 82.8187 99.3949H126.746C128.12 99.3949 129.233 98.2812 129.233 96.9074V87.6301C129.233 86.2563 128.12 85.1426 126.746 85.1426Z" fill="#ACAFB5" fill-opacity="0.05"/>
<path d="M90.2392 93.1518C90.2404 93.4452 90.1803 93.7356 90.0626 94.0043C89.9449 94.273 89.7723 94.5141 89.5558 94.7121C89.3393 94.9101 89.0838 95.0606 88.8057 95.1539C88.5275 95.2472 88.2329 95.2813 87.9408 95.2539C86.133 95.2539 85.1731 93.9506 85.1731 91.7924C85.1731 89.4521 86.4133 88.2539 88.2421 88.2539C88.7848 88.2303 89.3241 88.3512 89.8047 88.6042L89.6015 89.0106C89.1859 88.7829 88.7156 88.6738 88.2421 88.6953C86.6936 88.6953 85.6776 89.7113 85.6776 91.7153C85.6754 91.992 85.6941 92.2684 85.7336 92.5422C85.8982 92.1012 86.202 91.7258 86.599 91.4729C86.996 91.2201 87.4646 91.1035 87.9338 91.1408C89.3423 91.0917 90.2392 91.8975 90.2392 93.1518ZM89.7347 93.1518C89.7347 92.1638 89.0339 91.5262 87.8638 91.5262C87.6288 91.5021 87.3913 91.5262 87.166 91.597C86.9406 91.6677 86.732 91.7837 86.553 91.9378C86.3739 92.092 86.2282 92.281 86.1247 92.4933C86.0211 92.7056 85.962 92.9369 85.9508 93.1728C85.9508 93.9786 86.6515 94.7914 87.9268 94.7914C88.1582 94.8205 88.3932 94.7996 88.6159 94.7302C88.8385 94.6608 89.0438 94.5446 89.2177 94.3892C89.3917 94.2338 89.5303 94.043 89.6243 93.8296C89.7183 93.6161 89.7655 93.385 89.7627 93.1518H89.7347Z" fill="#3085FE"/>
<path d="M99.4254 93.2639H97.982V95.1769H97.4845V93.2639H93.5535V92.8996L97.3023 88.2749H97.8628L94.1841 92.8155H97.4985V91.1338H97.982V92.8155H99.4254V93.2639Z" fill="#3085FE"/>
<path d="M107.091 93.2286C107.091 94.3778 106.264 95.2256 104.674 95.2256C104.226 95.2429 103.78 95.1692 103.362 95.009C102.944 94.8488 102.563 94.6055 102.242 94.2937L102.494 93.9083C102.781 94.1907 103.122 94.4115 103.496 94.5573C103.871 94.7031 104.272 94.7708 104.674 94.7561C105.914 94.7561 106.58 94.1675 106.58 93.2286C106.58 92.2897 105.949 91.7011 104.569 91.7011H104.134V91.3367L106.173 88.7231H102.494V88.2466H106.825V88.5969L104.723 91.2526C106.355 91.3157 107.091 92.1075 107.091 93.2286Z" fill="#3085FE"/>
<path d="M115.465 88.2466V88.5969L112.501 95.1485H111.947L114.883 88.695H111.008V90.0194H110.518V88.2466H115.465Z" fill="#3085FE"/>
<path d="M118.968 91.7501C118.968 89.5919 120.082 88.2466 121.666 88.2466C123.249 88.2466 124.37 89.5849 124.37 91.7501C124.37 93.9153 123.256 95.2536 121.666 95.2536C120.075 95.2536 118.968 93.8522 118.968 91.7501ZM123.873 91.7501C123.873 89.8302 122.976 88.7161 121.673 88.7161C120.369 88.7161 119.473 89.8302 119.473 91.7501C119.473 93.67 120.369 94.7842 121.673 94.7842C122.976 94.7842 123.873 93.642 123.873 91.7501Z" fill="#3085FE"/>
<path d="M269.2 272.196C278.372 268.3 288.995 260.641 293.724 251.245C283.546 255.469 274.962 262.802 269.2 272.196Z" fill="#101317"/>
<path d="M271.155 257.614C280.327 253.725 290.95 246.066 295.679 236.67C285.499 240.888 276.914 248.219 271.155 257.614Z" fill="#101317"/>
<path d="M273.824 243.439C283.004 239.543 293.619 231.884 298.349 222.495C288.17 226.714 279.585 234.045 273.824 243.439Z" fill="#101317"/>
<path d="M277.132 228.598C285.785 223.483 295.434 214.374 299.05 204.438C289.434 210.04 281.785 218.479 277.153 228.598" fill="#101317"/>
<path d="M280.691 217.239C286.998 208.992 292.877 196.716 292.799 186.079C285.79 195.051 281.579 205.889 280.691 217.239Z" fill="#101317"/>
<path d="M278.926 222.642C277.65 211.487 273.32 197.466 265.948 189.099C267.193 201.24 271.675 212.825 278.926 222.642Z" fill="#101317"/>
<path d="M275.962 234.841C273.719 223.343 268.044 209.118 259.677 201.053C261.968 213.575 267.593 225.248 275.962 234.841Z" fill="#101317"/>
<path d="M272.556 249.717C270.321 238.198 264.631 223.994 256.307 215.929C258.597 228.451 264.223 240.124 272.591 249.717" fill="#101317"/>
<path d="M269.823 267.985C267.574 256.486 261.898 242.262 253.539 234.197C255.83 246.719 261.455 258.392 269.823 267.985Z" fill="#101317"/>
<path d="M281.119 215.074C281.085 215.128 281.061 215.187 281.049 215.249C281 215.383 280.944 215.551 280.873 215.761C280.719 216.244 280.502 216.91 280.236 217.751C279.682 219.482 278.939 221.997 278.064 225.122C277.188 228.247 276.221 231.982 275.226 236.151C274.231 240.321 273.25 244.938 272.325 249.801C271.4 254.664 270.678 259.331 270.069 263.577C269.459 267.823 269.025 271.663 268.709 274.886C268.394 278.11 268.17 280.73 268.058 282.545C268.001 283.428 267.959 284.122 267.924 284.647C267.924 284.871 267.924 285.047 267.924 285.194C267.915 285.254 267.915 285.316 267.924 285.376C267.946 285.318 267.958 285.256 267.959 285.194C267.959 285.054 267.959 284.871 268.016 284.654C268.065 284.15 268.135 283.456 268.219 282.552C268.373 280.751 268.632 278.138 268.982 274.914C269.333 271.691 269.816 267.865 270.419 263.626C271.022 259.387 271.82 254.734 272.703 249.871C273.586 245.008 274.609 240.405 275.569 236.229C276.529 232.052 277.482 228.318 278.33 225.185C279.178 222.053 279.878 219.531 280.39 217.793L280.965 215.782C281.021 215.572 281.063 215.397 281.105 215.256C281.117 215.197 281.122 215.135 281.119 215.074Z" fill="#101317"/>
<path d="M264.715 278.264C268.604 270.122 271.435 258.644 269.529 249.724C265.181 258.566 263.508 268.485 264.715 278.264Z" fill="#ACAFB5" fill-opacity="0.1"/>
<path d="M258.262 267.718C262.151 259.569 264.981 248.099 263.069 239.179C258.719 248.02 257.048 257.94 258.262 267.718Z" fill="#ACAFB5" fill-opacity="0.1"/>
<path d="M252.46 256.99C256.349 248.841 259.18 237.371 257.267 228.451C252.917 237.292 251.246 247.212 252.46 256.99Z" fill="#ACAFB5" fill-opacity="0.1"/>
<path d="M246.742 245.422C249.636 236.803 251.087 225.045 248.144 216.448C244.879 225.766 244.392 235.832 246.742 245.422Z" fill="#ACAFB5" fill-opacity="0.1"/>
<path d="M242.993 235.948C242.706 226.776 240.008 215.285 234.312 208.509C234.439 218.311 237.459 227.857 242.993 235.948Z" fill="#ACAFB5" fill-opacity="0.1"/>
<path d="M244.738 240.496C237.99 234.134 227.732 227.806 218.511 226.979C225.723 233.981 234.851 238.685 244.738 240.496Z" fill="#ACAFB5" fill-opacity="0.1"/>
<path d="M249.3 250.152C241.739 244.154 230.5 238.534 220.788 238.513C228.929 245.131 238.853 249.182 249.3 250.152Z" fill="#ACAFB5" fill-opacity="0.1"/>
<path d="M254.975 261.791C247.415 255.8 236.183 250.173 226.471 250.152C234.61 256.769 244.531 260.82 254.975 261.791Z" fill="#ACAFB5" fill-opacity="0.1"/>
<path d="M262.9 275.188C255.34 269.19 244.101 263.57 234.389 263.542C242.528 270.165 252.452 274.219 262.9 275.188Z" fill="#ACAFB5" fill-opacity="0.1"/>
<path d="M242.139 234.288C242.139 234.288 242.139 234.337 242.181 234.435L242.335 234.869L242.965 236.516C243.519 237.917 244.367 240.019 245.439 242.528C247.597 247.566 250.799 254.44 254.772 261.825C256.762 265.504 258.759 268.965 260.623 272.07C262.487 275.174 264.26 277.935 265.78 280.219C267.301 282.503 268.583 284.332 269.452 285.579L270.489 286.981L270.762 287.345C270.825 287.429 270.86 287.471 270.867 287.464C270.845 287.416 270.819 287.369 270.79 287.324L270.545 286.939C270.3 286.581 269.978 286.091 269.564 285.474C268.695 284.206 267.462 282.356 265.984 280.058C264.505 277.759 262.76 274.985 260.896 271.88C259.033 268.776 257.064 265.308 255.074 261.629C251.101 254.314 247.898 247.447 245.663 242.402C244.556 239.893 243.68 237.854 243.092 236.439L242.391 234.813L242.202 234.393C242.184 234.356 242.163 234.321 242.139 234.288Z" fill="#101317"/>
<path d="M246.203 279.252H284.853V286.7H280.88L277.538 307.946H253.644L250.204 286.7H246.203V279.252Z" fill="#3085FE"/>
<path d="M246.203 286.546C246.203 286.448 254.793 286.364 265.388 286.364C275.983 286.364 284.573 286.448 284.573 286.546C284.573 286.645 275.99 286.722 265.388 286.722C254.786 286.722 246.203 286.645 246.203 286.546Z" fill="#101317"/>
<path d="M24.8001 307.958H18.5288L16.2024 279.713H23.5879L24.8001 307.958Z" fill="#101317"/>
<path d="M79.1748 307.958H85.4461L87.7725 279.713H80.387L79.1748 307.958Z" fill="#101317"/>
<path d="M92.0818 283.294L11.3325 285.186L8.88003 233.032C8.82216 231.822 9.01057 230.613 9.43383 229.478C9.85709 228.343 10.5064 227.306 11.3424 226.429C12.1784 225.553 13.1836 224.855 14.2973 224.378C15.4109 223.902 16.6097 223.656 17.821 223.657H86.6233C87.8512 223.657 89.0661 223.909 90.1923 224.399C91.3185 224.888 92.3321 225.604 93.17 226.501C94.0079 227.399 94.6522 228.46 95.0628 229.617C95.4735 230.774 95.6418 232.003 95.5573 233.228L92.0818 283.294Z" fill="#3085FE"/>
<path d="M96.223 232.857H95.9987H95.3331L92.7895 232.899H83.4281C75.5241 232.899 64.6071 232.829 52.555 233.109C40.4959 233.509 29.5649 233.439 21.6679 233.319C17.7159 233.256 14.5137 233.179 12.3065 233.109L9.76293 233.025H9.10426C9.02983 233.035 8.95447 233.035 8.88004 233.025H9.10426H9.76293H12.3065L21.6679 233.116C29.5719 233.172 40.4889 233.2 52.548 232.794C64.6071 232.521 75.5241 232.647 83.4281 232.703L92.7895 232.78L95.3331 232.815H95.9987L96.223 232.857Z" fill="#101317"/>
<path d="M38.3307 224.469C36.5157 224.735 34.7496 225.266 33.0894 226.046C31.4817 226.93 30.0151 228.05 28.738 229.367C28.9952 228.879 29.3341 228.438 29.74 228.064C31.6026 226.148 34.0464 224.901 36.691 224.518C37.2304 224.406 37.7855 224.389 38.3307 224.469Z" fill="#101317"/>
<path d="M71.5441 129.643L81.4101 147.672L95.8446 139.586L102.852 141.905C102.852 141.905 85.1658 161.119 82.2859 162.121C79.406 163.123 73.9546 163.284 70.8434 159.381C68.0406 155.828 59.7443 137.19 59.7443 137.19L71.5441 129.643Z" fill="#FFBE9D"/>
<path d="M112.179 117.873C112.052 117.717 111.887 117.597 111.701 117.523C111.514 117.45 111.312 117.425 111.113 117.452L104.254 118.377C103.955 118.422 103.67 118.53 103.418 118.694C103.165 118.859 102.951 119.075 102.789 119.33L88.4877 141.297L89.5808 141.907L97.1904 141.668L112.396 118.146L112.179 117.873Z" fill="#101317"/>
<path d="M107.309 120.724C107.364 120.811 107.444 120.879 107.54 120.917C107.635 120.956 107.74 120.964 107.84 120.939C107.94 120.915 108.03 120.859 108.096 120.781C108.163 120.703 108.204 120.606 108.212 120.503C108.221 120.401 108.197 120.298 108.144 120.21C108.091 120.122 108.012 120.053 107.917 120.012C107.823 119.971 107.718 119.962 107.617 119.984C107.517 120.006 107.426 120.059 107.358 120.136C107.277 120.21 107.227 120.311 107.218 120.421C107.209 120.53 107.241 120.638 107.309 120.724Z" fill="white"/>
<path d="M112.396 118.146C111.96 118.268 111.514 118.355 111.064 118.405L107.421 118.973L104.905 119.337C104.692 119.356 104.486 119.423 104.301 119.532C104.117 119.641 103.959 119.79 103.84 119.968L103.027 121.229C101.899 122.96 100.673 124.859 99.3836 126.835C96.784 130.815 94.4156 134.409 92.6779 137.002L90.6108 140.099C90.3704 140.483 90.101 140.849 89.805 141.192C90.0023 140.779 90.2369 140.385 90.5057 140.015L92.4677 136.89C94.1423 134.255 96.4687 130.64 99.0683 126.66C100.372 124.677 101.612 122.785 102.74 121.054C103.027 120.626 103.308 120.206 103.574 119.793C103.723 119.578 103.918 119.399 104.145 119.268C104.371 119.137 104.624 119.058 104.884 119.036L107.414 118.714L111.078 118.279C111.513 118.2 111.954 118.156 112.396 118.146Z" fill="#455A64"/>
<path d="M104.765 125.985C104.765 125.985 104.155 125.88 103.819 127.555C103.482 129.229 102.417 134.036 102.417 134.036L99.208 132.334L95.1859 132.859C95.1859 132.859 94.31 133.665 94.9547 134.106C95.5993 134.548 98.1359 134.996 98.1359 134.996L100.007 137.694L94.6324 135.101C94.6324 135.101 92.8386 135.571 93.3641 136.664C93.8896 137.757 97.5123 141.183 97.5123 141.183L94.8216 140.98L91.6404 139.032C91.6404 139.032 90.6594 139.081 91.0237 139.915C91.3881 140.749 94.7235 143.776 94.7235 143.776L98.7595 145.738C98.7595 145.738 100.967 145.563 101.177 144.911C101.32 144.399 101.409 143.873 101.443 143.342C101.443 143.342 102.613 143.026 102.845 142.459C102.973 141.981 103 141.482 102.922 140.994C102.922 140.994 104.758 141.317 104.989 140.294C105.149 139.019 105.097 137.726 104.835 136.468C104.652 135.676 105.619 128.354 105.535 128.136C105.451 127.919 105.921 125.502 104.765 125.985Z" fill="#FFBE9D"/>
<path d="M101.282 144.925C100.963 145.117 100.602 145.227 100.231 145.248C98.4405 145.508 96.6184 145.074 95.1369 144.035C94.5833 143.636 94.3101 143.335 94.3451 143.272C94.3801 143.209 95.6975 144.274 97.6594 144.729C99.6214 145.185 101.261 144.799 101.282 144.925Z" fill="#EB996E"/>
<path d="M100.329 143.475C100.266 143.566 99.5443 143.194 98.7805 142.564C98.0168 141.933 97.5123 141.309 97.5893 141.232C97.6664 141.155 98.29 141.632 99.0468 142.248C99.8036 142.865 100.392 143.376 100.329 143.475Z" fill="#EB996E"/>
<path d="M102.452 139.992C102.389 140.084 101.674 139.719 100.96 139.053C100.245 138.388 99.8246 137.715 99.9087 137.652C99.9928 137.589 100.553 138.122 101.24 138.759C101.927 139.397 102.515 139.894 102.452 139.992Z" fill="#EB996E"/>
<path d="M104.687 137.183C104.575 137.232 104.169 136.482 103.531 135.648C102.894 134.814 102.27 134.247 102.34 134.134C102.41 134.022 103.181 134.513 103.854 135.396C104.315 135.887 104.607 136.513 104.687 137.183Z" fill="#EB996E"/>
<path d="M107.413 267.135C107.467 266.917 107.467 266.688 107.413 266.47C107.3 265.864 107.061 265.289 106.712 264.781C106.599 264.605 106.465 264.442 106.313 264.297C106.214 264.204 106.091 264.139 105.958 264.109C105.825 264.079 105.686 264.086 105.556 264.129C105.48 264.156 105.411 264.199 105.354 264.256C105.297 264.313 105.253 264.382 105.227 264.459C105.178 264.604 105.178 264.762 105.227 264.907C105.323 265.151 105.44 265.385 105.577 265.608C105.837 266.049 106.054 266.484 106.39 267.009C106.488 267.15 106.623 267.262 106.78 267.332C106.936 267.403 107.109 267.429 107.28 267.409C107.593 267.353 107.889 267.223 108.142 267.03C108.606 266.69 109.029 266.297 109.403 265.86C109.583 265.652 109.752 265.435 109.908 265.208C110.078 264.987 110.204 264.735 110.279 264.466C110.321 264.307 110.306 264.139 110.237 263.991C110.168 263.842 110.049 263.723 109.901 263.653C109.762 263.612 109.615 263.607 109.474 263.639C109.333 263.671 109.203 263.738 109.095 263.835C108.774 264.115 108.492 264.435 108.254 264.788C107.902 265.283 107.621 265.826 107.42 266.4C107.328 266.602 107.28 266.822 107.28 267.044C107.612 266.307 108.013 265.603 108.478 264.942C108.716 264.627 108.988 264.34 109.291 264.087C109.452 263.975 109.648 263.898 109.768 263.961C109.837 264.002 109.89 264.065 109.918 264.14C109.946 264.216 109.947 264.298 109.922 264.374C109.849 264.593 109.737 264.798 109.592 264.977C109.445 265.187 109.284 265.39 109.116 265.594C108.753 266.001 108.349 266.37 107.911 266.694C107.706 266.852 107.465 266.958 107.21 267.002C107.105 267.015 106.999 266.998 106.904 266.954C106.809 266.909 106.728 266.838 106.67 266.75C106.397 266.35 106.131 265.853 105.872 265.44C105.753 265.222 105.605 265.012 105.535 264.837C105.465 264.662 105.535 264.522 105.64 264.466C105.942 264.346 106.243 264.69 106.446 264.977C106.902 265.629 107.23 266.361 107.413 267.135Z" fill="#101317"/>
<path d="M90.1969 267.724L81.6483 286.257L67.8514 279.881L76.6943 256.947L90.1969 267.724Z" fill="#FFBE9D"/>
<path d="M83.2318 285.017L78.2358 294.547C78.2358 294.547 91.0237 307.769 89.8255 310.726L59.7652 296.313L68.0195 277.205L83.2318 285.017Z" fill="#455A64"/>
<path d="M69.5961 288.787C69.2658 288.745 68.9314 288.822 68.6528 289.005C68.3741 289.187 68.1695 289.463 68.0756 289.782C68.0122 290.111 68.078 290.452 68.2594 290.734C68.4408 291.016 68.7238 291.217 69.0496 291.295C69.4005 291.349 69.7586 291.27 70.0549 291.074C70.3512 290.879 70.5647 290.581 70.6542 290.237C70.684 289.887 70.5765 289.538 70.3543 289.265C70.1321 288.992 69.8126 288.815 69.463 288.773" fill="#E0E0E0"/>
<g opacity="0.6">
<path d="M59.7933 296.313L61.0405 293.917L89.3981 308.631C89.3981 308.631 90.4561 309.851 89.8535 310.733L59.7933 296.313Z" fill="white"/>
</g>
<path d="M78.8245 294.624C78.7544 294.771 77.9836 294.484 77.0377 294.624C76.0917 294.764 75.405 295.184 75.2999 295.058C75.1948 294.932 75.8184 294.196 76.9676 294.063C78.1167 293.93 78.9226 294.505 78.8245 294.624Z" fill="#101317"/>
<path d="M81.354 297.441C81.354 297.602 80.5622 297.546 79.7704 297.924C78.9786 298.303 78.5161 298.898 78.369 298.821C78.2219 298.744 78.5302 297.868 79.5322 297.42C80.5342 296.971 81.4171 297.301 81.354 297.441Z" fill="#101317"/>
<path d="M81.333 302.072C81.1858 302.072 81.333 301.21 82.0968 300.587C82.8605 299.963 83.7014 299.97 83.7014 300.124C83.7014 300.278 83.0777 300.503 82.4541 301.021C81.8305 301.54 81.4871 302.128 81.333 302.072Z" fill="#101317"/>
<path d="M80.2609 290.959C80.1348 291.065 79.5602 290.539 78.7053 290.196C77.8505 289.852 77.0727 289.803 77.0587 289.642C77.0447 289.481 77.9135 289.257 78.9155 289.642C79.9175 290.028 80.387 290.875 80.2609 290.959Z" fill="#101317"/>
<path d="M86.0767 282.544L108.618 226.144C108.618 226.144 108.107 216.516 106.334 213.482C104.561 210.448 50.8733 192.713 50.8733 192.713C50.8733 192.713 37.2025 189.42 28.0793 192.713C18.9562 196.007 12.1243 207.428 13.3645 213.734C14.6048 220.041 19.9722 224.714 19.9722 224.714L59.4569 225.892L80.9756 233.74L66.485 275.27L86.0767 282.544Z" fill="#101317"/>
<path d="M106.124 244.005L106.635 264.403L91.4371 264.781L89.2509 240.298L106.124 244.005Z" fill="#FFBE9D"/>
<path d="M107.539 262.581L107.259 273.337C107.259 273.337 124.566 279.552 124.777 282.74L91.4442 283.077L90.4141 262.287L107.539 262.581Z" fill="#455A64"/>
<path d="M96.9377 271.998C96.618 272.099 96.3468 272.314 96.1761 272.603C96.0054 272.891 95.9472 273.232 96.0128 273.561C96.1019 273.884 96.3113 274.16 96.598 274.334C96.8847 274.507 97.2269 274.564 97.5543 274.493C97.8922 274.384 98.1779 274.155 98.3564 273.848C98.5349 273.541 98.5937 273.18 98.5213 272.832C98.3953 272.504 98.1462 272.237 97.827 272.09C97.5078 271.942 97.1436 271.924 96.8116 272.04" fill="#E0E0E0"/>
<g opacity="0.6">
<path d="M91.4651 283.076L91.5282 280.372L123.466 281.072C123.466 281.072 124.952 281.703 124.798 282.754L91.4651 283.076Z" fill="white"/>
</g>
<path d="M107.799 273.161C107.799 273.323 106.979 273.407 106.187 273.939C105.395 274.472 104.968 275.158 104.821 275.095C104.673 275.032 104.905 274.086 105.879 273.463C106.853 272.839 107.834 273.014 107.799 273.161Z" fill="#101317"/>
<path d="M111.309 274.57C111.351 274.731 110.643 275.011 110.097 275.705C109.55 276.399 109.396 277.106 109.242 277.106C109.088 277.106 108.962 276.181 109.663 275.327C110.363 274.472 111.302 274.416 111.309 274.57Z" fill="#101317"/>
<path d="M113.362 278.739C113.215 278.774 112.984 277.961 113.362 277.064C113.741 276.167 114.532 275.81 114.602 275.943C114.673 276.076 114.203 276.56 113.902 277.295C113.6 278.031 113.495 278.718 113.362 278.739Z" fill="#101317"/>
<path d="M107.462 269.237C107.399 269.384 106.649 269.167 105.732 269.237C104.814 269.307 104.099 269.609 104.008 269.468C103.917 269.328 104.603 268.768 105.689 268.677C106.776 268.586 107.546 269.104 107.462 269.237Z" fill="#101317"/>
<path d="M97.246 187.36C97.246 187.36 106.355 186.659 107.364 196.511C108.373 206.363 109.368 252.484 109.368 252.484L88.1368 254.256L84.8435 207.148L50.9083 192.713C50.9083 192.713 91.1709 186.099 97.246 187.36Z" fill="#101317"/>
<path d="M59.7302 174.033C59.7302 174.033 65.2518 189.525 64.2007 191.249C63.1497 192.973 48.9464 200.078 48.9464 200.078L13.3926 213.735C13.3926 213.735 9.74191 207.926 9.74191 199.02C9.74191 190.114 22.1094 174.047 22.1094 174.047L59.7302 174.033Z" fill="#101317"/>
<path d="M49.1916 191.95C49.2443 191.986 49.3007 192.016 49.3598 192.041L49.8643 192.272L51.8333 193.148L59.2257 196.371L84.7384 207.351L84.6192 207.19C84.9416 211.843 85.32 216.867 85.6493 222.066C86.5182 234.223 87.317 245.428 87.9476 254.298V254.46H88.1088L103.608 253.1L107.876 252.701L108.99 252.589L109.368 252.533C109.24 252.522 109.111 252.522 108.983 252.533L107.869 252.603L103.594 252.918L88.0807 254.137L88.2559 254.284C87.6463 245.421 86.8545 234.209 86.0417 222.052C85.6773 216.853 85.341 211.829 84.9906 207.176V207.064L84.8855 207.015L59.3168 196.154L51.8823 193.043L49.8923 192.223L49.3738 192.02C49.3149 191.992 49.254 191.968 49.1916 191.95Z" fill="#455A64"/>
<path d="M20.9182 193.47C21.2607 193.417 21.5965 193.328 21.9202 193.204L24.5969 192.335C27.5182 191.348 30.5124 190.591 33.5519 190.072C36.5928 189.576 39.6971 189.616 42.7241 190.191C45.0365 190.675 46.3678 191.333 46.3958 191.256C46.1085 191.061 45.7978 190.904 45.4709 190.787C44.6027 190.421 43.7048 190.131 42.7872 189.918C39.7283 189.251 36.5708 189.17 33.4818 189.68C30.4179 190.197 27.4084 190.997 24.4918 192.069C23.3707 192.468 22.4737 192.812 21.8501 193.057C21.5286 193.169 21.2169 193.307 20.9182 193.47Z" fill="#455A64"/>
<path d="M25.9422 185.307C26.9783 185.244 28.0173 185.244 29.0533 185.307C30.0133 185.37 31.1555 185.517 32.4167 185.664C33.678 185.811 35.0724 185.987 36.5158 186.26C38.9856 186.653 41.3529 187.532 43.4809 188.845C44.33 189.437 45.1377 190.085 45.8983 190.786C45.7588 190.54 45.5841 190.316 45.3798 190.121C44.8543 189.555 44.2694 189.047 43.635 188.607C41.5078 187.201 39.1042 186.267 36.5859 185.867C35.1284 185.594 33.727 185.433 32.4588 185.3C31.1905 185.167 30.0413 185.055 29.0673 185.027C28.2998 184.993 27.5309 185.026 26.769 185.125C26.4861 185.146 26.2077 185.207 25.9422 185.307Z" fill="#455A64"/>
<path d="M41.6455 60.8348C37.5604 60.1341 33.9378 61.7107 30.5113 64.016C27.0045 66.481 24.332 69.9561 22.8498 73.9782C21.3676 78.0003 21.1462 82.3786 22.215 86.5297C22.8067 88.6394 23.8196 90.6073 25.1924 92.315C26.5653 94.0226 28.2697 95.4346 30.203 96.4657C35.5214 99.1634 42.3252 98.2245 47.09 94.6229C51.8548 91.0212 54.5665 85.0722 54.7978 79.1092C55.0185 74.9737 53.9351 70.8733 51.7006 67.3864C50.5678 65.6638 49.0922 64.193 47.3658 63.0658C45.6395 61.9386 43.6994 61.1791 41.6665 60.8348" fill="#101317"/>
<path d="M30.0138 74.744C30.6164 73.1744 30.3782 71.4297 30.6164 69.769C31.142 66.1183 34.12 63.1894 37.4833 61.767C40.6505 60.4426 44.4904 60.7299 48.3303 61.9631C50.9789 62.7659 53.3439 64.3069 55.1481 66.4056C56.2963 67.8295 57.0864 69.5079 57.4521 71.3001C57.8179 73.0923 57.7486 74.9461 57.2502 76.706L38.5694 73.9873C36.8177 75.4307 35.0239 76.9092 32.9007 77.715C32.2887 77.9835 31.6178 78.0896 30.9528 78.0233C30.6215 77.9839 30.3086 77.85 30.0514 77.6375C29.7942 77.425 29.6035 77.143 29.5023 76.8251C29.3341 76.1174 29.7546 75.4237 30.0138 74.744Z" fill="#101317"/>
<path d="M48.7297 67.1205L32.4173 70.5819C31.6612 70.6321 30.951 70.9621 30.425 71.5075C29.8991 72.0529 29.5951 72.7746 29.5724 73.5319L29.7686 108.84C29.7851 111.251 30.5926 113.59 32.0669 115.497L33.6225 117.501C37.175 122.077 44.3573 121.614 47.069 116.499C47.2349 116.209 47.3621 115.898 47.4474 115.574C47.4964 115.259 47.5805 115.049 47.5945 114.782L47.9098 111.335C48.064 108.196 48.092 105.029 48.092 105.029C48.092 105.029 54.7698 104.188 56.5005 95.5831C57.3483 91.3088 57.4044 84.2387 57.2643 78.4579C57.1171 73.2797 53.9289 66.7771 48.7297 67.1205Z" fill="#FFBE9D"/>
<path d="M54.7627 85.1144C54.7536 85.4031 54.632 85.6768 54.4238 85.8771C54.2156 86.0774 53.9375 86.1884 53.6486 86.1865C53.5067 86.1931 53.365 86.171 53.2319 86.1217C53.0987 86.0724 52.9769 85.9967 52.8735 85.8993C52.7702 85.8019 52.6876 85.6847 52.6305 85.5546C52.5735 85.4246 52.5432 85.2844 52.5415 85.1424C52.5523 84.8536 52.6742 84.5802 52.8818 84.3791C53.0894 84.1781 53.3666 84.0649 53.6556 84.0633C53.7978 84.0577 53.9397 84.0806 54.0729 84.1307C54.206 84.1809 54.3278 84.2572 54.431 84.3551C54.5342 84.4531 54.6168 84.5708 54.6737 84.7012C54.7307 84.8316 54.761 84.9721 54.7627 85.1144Z" fill="#101317"/>
<path d="M55.5756 82.0943C55.4284 82.2344 54.6156 81.5828 53.4174 81.5407C52.2192 81.4987 51.3153 82.0592 51.2032 81.9051C51.091 81.7509 51.2872 81.5828 51.6796 81.3235C52.211 80.9822 52.8357 80.8156 53.4664 80.847C54.086 80.8681 54.6826 81.0866 55.1692 81.4706C55.5265 81.7719 55.6456 82.0382 55.5756 82.0943Z" fill="#101317"/>
<path d="M44.0559 84.8413C44.0486 85.1312 43.9278 85.4067 43.7194 85.6085C43.5111 85.8103 43.2319 85.9223 42.9418 85.9204C42.8005 85.926 42.6596 85.9033 42.5272 85.8535C42.3949 85.8037 42.2739 85.7279 42.1713 85.6306C42.0688 85.5333 41.9868 85.4164 41.9302 85.2868C41.8735 85.1573 41.8435 85.0177 41.8417 84.8763C41.849 84.5876 41.9689 84.3131 42.1757 84.1115C42.3826 83.9099 42.66 83.7971 42.9488 83.7972C43.0904 83.7916 43.2317 83.8143 43.3645 83.864C43.4972 83.9137 43.6187 83.9894 43.7218 84.0866C43.8249 84.1838 43.9076 84.3007 43.9649 84.4302C44.0223 84.5598 44.0532 84.6996 44.0559 84.8413Z" fill="#101317"/>
<path d="M44.2311 81.8072C44.0839 81.9473 43.2711 81.2886 42.0729 81.2466C40.8747 81.2046 39.9708 81.7651 39.8587 81.618C39.7466 81.4708 39.9428 81.2957 40.3422 81.0294C40.8732 80.6933 41.4941 80.5271 42.122 80.5529C42.7441 80.5779 43.3424 80.7986 43.8317 81.1835C44.182 81.4778 44.3012 81.7441 44.2311 81.8072Z" fill="#101317"/>
<path d="M47.8117 90.8885C48.451 90.7238 49.1068 90.6321 49.7667 90.6153C50.075 90.6153 50.3623 90.5452 50.4254 90.342C50.4613 90.0284 50.4028 89.7111 50.2572 89.4311C49.9979 88.6813 49.7247 87.8965 49.4444 87.0697C48.3162 83.7133 47.5174 80.9595 47.6506 80.9175C47.7837 80.8754 48.8137 83.5591 49.9349 86.9155C50.2011 87.7424 50.4604 88.5271 50.7056 89.2839C50.8856 89.6594 50.9254 90.0869 50.8178 90.4891C50.7684 90.5943 50.6962 90.6872 50.6066 90.7611C50.5169 90.8351 50.4119 90.8881 50.2992 90.9165C50.1287 90.9518 49.9548 90.9683 49.7807 90.9656C49.1239 91.0272 48.4617 91.0013 47.8117 90.8885Z" fill="#101317"/>
<path d="M48.092 105.063C44.0144 104.97 40.0429 103.745 36.6215 101.525C36.6215 101.525 39.2982 107.628 47.9939 107.131L48.092 105.063Z" fill="#EB996E"/>
<path d="M47.1951 93.7472C46.9789 93.4526 46.6909 93.2181 46.3586 93.066C46.0262 92.9139 45.6605 92.8493 45.2962 92.8784C45.027 92.8926 44.7636 92.9622 44.5225 93.0827C44.2814 93.2033 44.0677 93.3723 43.8948 93.5791C43.7307 93.7698 43.6282 94.0058 43.6007 94.2559C43.5732 94.506 43.6219 94.7586 43.7406 94.9805C43.9246 95.2013 44.17 95.3624 44.4457 95.4435C44.7214 95.5246 45.015 95.522 45.2892 95.4359C45.8625 95.2596 46.394 94.9687 46.8517 94.5811C46.9917 94.4934 47.1131 94.3792 47.2091 94.2447C47.2531 94.1782 47.2766 94.1002 47.2766 94.0205C47.2766 93.9408 47.2531 93.8628 47.2091 93.7963" fill="#EB996E"/>
<path d="M44.2661 91.582C44.4623 91.582 44.4133 92.8713 45.4854 93.8383C46.5575 94.8052 47.9449 94.7142 47.9519 94.8963C47.9519 94.9734 47.6295 95.1346 47.0479 95.1276C46.2869 95.1078 45.5573 94.82 44.9879 94.3147C44.4466 93.8375 44.1103 93.1699 44.0489 92.4509C43.9929 91.8833 44.1751 91.568 44.2661 91.582Z" fill="#101317"/>
<path d="M44.1611 78.2616C44.0349 78.5839 42.8437 78.3807 41.4353 78.4928C40.0269 78.6049 38.8847 78.9483 38.7096 78.6469C38.6325 78.5068 38.8357 78.2055 39.3052 77.9112C39.9276 77.5429 40.6292 77.329 41.3512 77.2876C42.0682 77.2266 42.7894 77.3396 43.4533 77.6169C43.9929 77.8411 44.2171 78.1074 44.1611 78.2616Z" fill="#101317"/>
<path d="M55.4284 76.8604C55.2112 77.1267 54.3984 76.8114 53.4104 76.7553C52.4224 76.6993 51.5745 76.8675 51.3923 76.5802C51.3082 76.44 51.4554 76.1738 51.8268 75.9285C52.3297 75.6317 52.9127 75.4995 53.4944 75.5501C54.0743 75.5814 54.6301 75.792 55.085 76.1527C55.4214 76.447 55.5265 76.7343 55.4284 76.8604Z" fill="#101317"/>
<path d="M27.0218 72.2217C28.7175 67.2537 36.131 60.4848 41.3302 60.9543L49.5985 66.1325C49.2976 67.5544 48.6178 68.8685 47.6309 69.9355C46.6441 71.0025 45.387 71.7828 43.9929 72.1936C42.5004 72.614 40.7206 72.7051 39.7887 73.9594C38.8567 75.2137 39.3542 77.1406 38.4924 78.4579C37.2942 80.2938 34.134 80.1396 33.2231 82.1296C32.8307 82.9985 33.0058 84.0496 32.5924 84.9324C32.0459 86.0816 29.0889 87.49 27.8767 87.0836C26.6645 86.6772 26.7065 84.6101 26.3351 83.517C25.8571 82.2874 25.8225 80.9296 26.237 79.6772C26.8396 77.2177 26.216 74.59 27.0218 72.2217Z" fill="#101317"/>
<path d="M31.4643 88.1554C31.4643 87.5107 30.7636 85.9622 30.168 85.8361C28.4793 85.5067 25.4102 85.5278 25.214 89.8441C24.9477 95.744 30.9247 94.7911 30.9458 94.6229C30.9668 94.4547 31.3802 90.3836 31.4643 88.1554Z" fill="#FFBE9D"/>
<path d="M29.2781 92.3107C29.2781 92.3107 29.173 92.3738 28.9908 92.4439C28.7457 92.5425 28.4721 92.5425 28.227 92.4439C27.6104 92.1846 27.1339 91.1686 27.1479 90.1105C27.1594 89.6022 27.2813 89.1025 27.5053 88.6461C27.5701 88.4647 27.6779 88.3017 27.8194 88.1711C27.961 88.0406 28.1321 87.9462 28.3181 87.8963C28.4369 87.8692 28.5614 87.8853 28.6693 87.9419C28.7772 87.9984 28.8614 88.0916 28.9067 88.2046C28.9768 88.3728 28.9067 88.4919 28.9698 88.4989C29.0328 88.5059 29.0959 88.4078 29.0609 88.1626C29.0388 88.0152 28.9641 87.8808 28.8506 87.7842C28.7729 87.7177 28.6826 87.6673 28.5852 87.636C28.4877 87.6047 28.385 87.5932 28.2831 87.602C28.0389 87.6405 27.8086 87.7404 27.6137 87.8924C27.4188 88.0444 27.2657 88.2435 27.1689 88.4709C26.8967 88.97 26.75 89.528 26.7415 90.0965C26.7415 91.2877 27.2811 92.4299 28.1429 92.7172C28.2991 92.7696 28.4649 92.7867 28.6285 92.7673C28.7921 92.7479 28.9493 92.6925 29.0889 92.605C29.222 92.4509 29.2781 92.3177 29.2781 92.3107Z" fill="#EB996E"/>
<path d="M25.7746 70.7291C25.7746 68.8792 23.4903 67.674 21.6894 67.2256C19.8521 66.9099 17.9627 67.2709 16.3711 68.2416C15.4251 68.7601 14.4722 69.5028 14.269 70.5609C14.0658 71.619 15.0748 72.8802 16.0838 72.5019C15.5907 72.6632 15.1395 72.932 14.763 73.2889C14.3864 73.6459 14.0938 74.082 13.9063 74.5658C13.7189 75.0496 13.6412 75.569 13.6789 76.0864C13.7166 76.6039 13.8688 77.1065 14.1244 77.558C14.3801 78.0095 14.7328 78.3986 15.1572 78.6971C15.5815 78.9957 16.0669 79.1963 16.5782 79.2844C17.0895 79.3725 17.614 79.3459 18.1138 79.2066C18.6136 79.0673 19.0762 78.8188 19.4682 78.4789C18.9563 80.1902 17.873 81.6741 16.3991 82.6831C17.9238 82.9019 19.4792 82.7151 20.9087 82.1415C22.3382 81.5679 23.5913 80.6278 24.5418 79.4158C25.4924 78.2038 26.1068 76.7628 26.3232 75.2378C26.5396 73.7128 26.3504 72.1577 25.7746 70.7291Z" fill="#101317"/>
<path d="M21.6684 80.0764C21.493 79.5026 21.4172 78.903 21.4442 78.3036C21.4207 75.3886 22.3782 72.5504 24.1629 70.2455C24.4998 69.7499 24.9222 69.3181 25.4102 68.9702C24.1778 70.5437 23.1947 72.2972 22.4952 74.1695C21.4091 77.3226 21.8015 80.0834 21.6684 80.0764Z" fill="#3085FE"/>
<path d="M47.8748 64.3527C48.4144 66.7561 52.079 69.8322 53.6696 71.7031C56.7247 75.2696 57.3273 76.4538 57.2993 84.4349C58.7428 81.6811 59.8499 78.9764 59.7378 75.8723C59.6697 72.7279 58.4534 69.7171 56.3183 67.4077C55.2499 66.281 53.9339 65.4184 52.4745 64.8881C51.0151 64.3579 49.4523 64.1746 47.9098 64.3527" fill="#101317"/>
<path d="M72.897 129.995C72.897 129.995 66.5346 119.393 64.7688 117.249C63.351 115.592 61.5691 114.285 59.5626 113.43C58.7701 113.088 57.9398 112.841 57.0891 112.695L47.9379 110.669C47.9379 110.669 47.9379 116.913 41.3863 117.298C34.8347 117.684 29.3411 108.567 29.3411 108.567C29.3411 108.567 18.7675 110.207 16.245 111.51C13.7224 112.814 9.74241 114.46 7.55621 125.384L6.02167 136.091L24.24 137.773L25.9848 164.848L35.0169 171.154C35.0169 171.154 60.0671 177.664 61.6437 178.091C63.2202 178.519 63.7458 137.787 63.7458 137.787C63.7458 137.787 70.2343 133.646 72.897 129.995Z" fill="#101317"/>
<path d="M60.9004 125.438C61.048 125.686 61.1678 125.949 61.2577 126.223C61.4609 126.735 61.7272 127.485 62.0215 128.423C63.5533 133.343 64.1847 138.499 63.8854 143.643C63.8293 144.624 63.7522 145.416 63.6681 145.962C63.6496 146.247 63.6003 146.529 63.521 146.803C63.4875 146.519 63.4875 146.232 63.521 145.948C63.556 145.402 63.5981 144.61 63.6191 143.629C63.6874 141.078 63.5703 138.525 63.2687 135.991C62.9528 133.461 62.4516 130.957 61.7692 128.501C61.51 127.555 61.2787 126.791 61.1106 126.272C61.0114 126.003 60.9409 125.723 60.9004 125.438Z" fill="#455A64"/>
<path d="M60.1086 169.786L25.774 162.317L24.1904 137.792L8.93607 136.391C8.93607 136.391 9.50364 153.151 10.0852 158.112C10.9331 165.281 15.1653 175.063 17.6458 177.032C20.1263 179.001 61.6151 178.104 61.6151 178.104L60.1086 169.786Z" fill="#FFBE9D"/>
<path d="M79.5952 174.228C79.4811 174.465 79.2986 174.663 79.0713 174.795C78.8441 174.928 78.5824 174.989 78.3199 174.971C78.208 174.963 78.0975 174.942 77.9906 174.908C77.2268 174.663 77.2899 173.114 77.2899 173.114L73.6602 172.526C73.6602 172.526 68.9305 175.574 67.2488 177.592C65.5671 179.61 61.2788 177.977 61.2788 177.977L59.7933 170.227L66.485 164.18C66.485 164.18 66.0786 164.538 66.5411 163.41C67.0035 162.281 69.0986 162.709 69.0986 162.709C69.428 162.148 70.8013 161.952 70.8013 161.952L76.6733 162.653C77.2698 162.722 77.8433 162.924 78.3514 163.244C78.8595 163.564 79.2893 163.994 79.6092 164.503L82.0967 168.434C82.0967 168.434 83.407 171.236 83.1968 171.937C83.1032 172.219 82.9069 172.454 82.6471 172.597C82.3873 172.74 82.0831 172.78 81.7954 172.708C81.7954 172.708 81.5081 174.572 81.0176 174.635C80.5166 174.609 80.0248 174.49 79.5672 174.285L79.5952 174.228Z" fill="#FFBE9D"/>
<path d="M67.1157 168.665C67.1157 168.728 67.9005 168.665 69.1547 168.707C70.7835 168.786 72.3938 169.088 73.9405 169.604C74.792 169.89 75.6191 170.244 76.414 170.662C77.1147 171.061 77.8575 171.363 78.0887 171.902C78.1409 172.014 78.1626 172.138 78.1515 172.261C78.1404 172.384 78.097 172.502 78.0256 172.603C77.9194 172.768 77.7655 172.898 77.5842 172.974C77.4177 173.032 77.2418 173.059 77.0657 173.051C77.0657 173.051 77.2479 173.213 77.6262 173.114C77.8547 173.052 78.055 172.914 78.1938 172.722C78.2947 172.594 78.3607 172.443 78.3853 172.282C78.4099 172.121 78.3922 171.956 78.334 171.804C78.1846 171.467 77.9414 171.18 77.6332 170.977C77.3109 170.774 76.9746 170.557 76.6032 170.354C75.7985 169.912 74.9568 169.542 74.0877 169.247C72.5076 168.712 70.8507 168.44 69.1827 168.441C68.4862 168.406 67.7886 168.482 67.1157 168.665Z" fill="#EB996E"/>
<path d="M66.6952 172.407C66.6952 172.519 69.0916 172.407 72.0276 172.589C74.9635 172.771 77.3179 173.122 77.3389 173.01C76.849 172.817 76.3351 172.692 75.8114 172.638C74.5661 172.427 73.3098 172.287 72.0486 172.218C70.786 172.147 69.5204 172.147 68.2578 172.218C67.7307 172.209 67.2049 172.272 66.6952 172.407Z" fill="#EB996E"/>
<path d="M79.5602 174.082C79.6118 173.878 79.6377 173.668 79.6373 173.458C79.673 172.884 79.673 172.308 79.6373 171.734C79.6173 171.333 79.5634 170.935 79.4761 170.543C79.3704 170.084 79.1752 169.651 78.9015 169.268C78.323 168.381 77.5754 167.616 76.7013 167.019C75.8383 166.421 74.8945 165.949 73.8985 165.617C73.0722 165.384 72.2202 165.254 71.3619 165.232C70.6612 165.232 70.0586 165.232 69.6522 165.232C69.44 165.218 69.2268 165.239 69.0216 165.295C69.7926 165.405 70.5693 165.471 71.3479 165.491C72.1798 165.547 73.0026 165.697 73.8004 165.939C74.7563 166.288 75.663 166.759 76.4981 167.341C77.3246 167.92 78.0372 168.647 78.6002 169.485C79.0611 170.166 79.3254 170.962 79.364 171.783C79.5181 173.178 79.4831 174.082 79.5602 174.082Z" fill="#EB996E"/>
<path d="M71.0887 163.431C71.0887 163.487 71.9645 163.515 73.3659 163.676C74.7674 163.838 76.8695 163.978 78.1097 165.842C79.3031 167.232 80.2982 168.782 81.0667 170.445C81.3211 171.16 81.5087 171.896 81.6273 172.645C81.6686 172.44 81.6686 172.228 81.6273 172.022C81.5914 171.453 81.4758 170.891 81.2839 170.354C80.5736 168.625 79.5868 167.023 78.362 165.61C78.0349 165.178 77.6533 164.789 77.2268 164.454C76.8062 164.15 76.3301 163.931 75.8254 163.81C75.0122 163.591 74.1786 163.457 73.3379 163.41C72.59 163.328 71.8349 163.335 71.0887 163.431Z" fill="#EB996E"/>
<path d="M68.5171 176.345C68.6413 176.266 68.7585 176.177 68.8674 176.078L69.8484 175.287C71.0828 174.327 72.3719 173.441 73.7093 172.631H73.6252L77.2549 173.248L77.1287 173.093C77.1172 173.392 77.1407 173.69 77.1988 173.983C77.2465 174.31 77.3904 174.615 77.6122 174.859C77.7453 174.98 77.9111 175.058 78.0887 175.083C78.2578 175.115 78.4312 175.115 78.6002 175.083C78.9531 175.031 79.2747 174.852 79.5041 174.579C79.5655 174.515 79.6196 174.445 79.6653 174.369L79.7003 174.306L79.4901 174.383L79.6022 174.425C79.7564 174.488 79.9105 174.544 80.0717 174.593C80.2329 174.642 80.394 174.684 80.5692 174.719C80.6601 174.727 80.7515 174.727 80.8425 174.719C80.9581 174.726 81.0736 174.704 81.1788 174.656C81.3382 174.53 81.4595 174.363 81.5292 174.172C81.6033 174.012 81.6642 173.845 81.7114 173.675C81.8099 173.337 81.8872 172.993 81.9426 172.645L81.7324 172.792C81.9785 172.843 82.234 172.828 82.4719 172.746C82.7099 172.665 82.9215 172.521 83.0847 172.33C83.2467 172.132 83.3358 171.885 83.337 171.629C83.3174 171.392 83.2752 171.157 83.2109 170.928C82.9357 170.036 82.601 169.162 82.2088 168.315L80.8845 166.212L80.0437 164.888C79.7882 164.425 79.4802 163.992 79.1257 163.599C78.7503 163.221 78.3022 162.923 77.8084 162.723C77.3273 162.544 76.8216 162.44 76.3089 162.415L70.7803 161.791H70.7383C70.4057 161.844 70.0794 161.931 69.7643 162.05C69.4281 162.151 69.1332 162.357 68.9235 162.639L69.1267 162.576C68.8279 162.438 68.4998 162.375 68.1711 162.393C67.8425 162.412 67.5234 162.51 67.2418 162.681C66.7514 163.038 66.4176 163.57 66.3099 164.166L66.3519 164.089L61.7413 168.238L60.501 169.38C60.3481 169.504 60.2095 169.645 60.0876 169.8C60.252 169.692 60.4067 169.57 60.55 169.436L61.8464 168.35L66.5341 164.3H66.5691V164.25C66.6694 163.731 66.9621 163.268 67.3889 162.954C67.6299 162.818 67.8999 162.741 68.1766 162.73C68.4533 162.719 68.7286 162.774 68.9795 162.891L69.1057 162.94L69.1827 162.828C69.3655 162.611 69.6099 162.455 69.8834 162.38C70.1764 162.273 70.4792 162.196 70.7874 162.148H70.7383L76.2669 162.8C76.746 162.828 77.2183 162.927 77.6683 163.094C78.1156 163.274 78.5211 163.543 78.8595 163.886C79.194 164.261 79.4854 164.672 79.7284 165.112L80.5692 166.444C81.0247 167.144 81.4731 167.845 81.8935 168.546C82.2834 169.371 82.6136 170.224 82.8815 171.096C82.9435 171.299 82.9834 171.508 83.0006 171.72C83.0044 171.902 82.9422 172.078 82.8255 172.218C82.7063 172.357 82.5513 172.461 82.3772 172.519C82.2032 172.578 82.0165 172.587 81.8375 172.547H81.6483V172.722C81.5949 173.055 81.5223 173.385 81.4311 173.71C81.3716 173.999 81.2416 174.268 81.0527 174.495C81.0039 174.503 80.9543 174.503 80.9055 174.495H80.6813C80.5342 174.495 80.38 174.425 80.2259 174.383L79.7774 174.229L79.6723 174.186L79.4551 174.264V174.306C79.4211 174.366 79.3812 174.422 79.336 174.474C79.1579 174.687 78.9092 174.828 78.6353 174.873C78.5036 174.901 78.3675 174.901 78.2358 174.873C78.1122 174.861 77.995 174.813 77.8995 174.733C77.592 174.289 77.4529 173.75 77.5071 173.213V173.079H77.381L73.7373 172.512H73.6953H73.6602C72.3272 173.346 71.0514 174.268 69.8414 175.273C69.421 175.63 69.1057 175.917 68.8954 176.113C68.7614 176.177 68.6345 176.254 68.5171 176.345Z" fill="#EB996E"/>
<path d="M124.097 151.687L78.9225 152.058C77.4511 152.058 76.0567 152.759 75.8324 154.21L70.9275 187.143H47.622C47.2793 187.167 46.9586 187.321 46.7245 187.572C46.4903 187.824 46.3602 188.155 46.3602 188.499C46.3602 188.842 46.4903 189.173 46.7245 189.425C46.9586 189.676 47.2793 189.83 47.622 189.854H121.953L127.033 155.099C127.096 154.677 127.068 154.246 126.95 153.835C126.831 153.424 126.626 153.044 126.347 152.72C126.068 152.396 125.723 152.136 125.335 151.958C124.947 151.78 124.524 151.687 124.097 151.687Z" fill="#E0E0E0"/>
<path d="M124.097 151.687C124.333 151.677 124.569 151.701 124.798 151.757C125.399 151.9 125.941 152.225 126.35 152.688C126.759 153.151 127.015 153.729 127.082 154.343C127.099 154.966 127.043 155.59 126.914 156.2L126.262 160.789C125.267 167.691 123.838 177.641 122.058 189.876V189.995H121.939L49.8293 190.037H47.8883C47.5356 190.07 47.1806 190.002 46.8653 189.841C46.6242 189.708 46.423 189.514 46.2829 189.277C46.1428 189.04 46.0689 188.77 46.0689 188.495C46.0689 188.22 46.1428 187.95 46.2829 187.714C46.423 187.477 46.6242 187.282 46.8653 187.15C47.1817 186.992 47.5363 186.926 47.8883 186.961H70.8995L70.7243 187.115C72.4971 175.322 74.1578 164.321 75.6292 154.448C75.6778 153.789 75.979 153.174 76.4701 152.731C76.9603 152.318 77.5583 152.053 78.1938 151.967C78.7992 151.909 79.4077 151.888 80.0157 151.904H81.7884L88.5923 151.862L100.679 151.785L117.889 151.694H124.083C124.083 151.694 123.95 151.694 123.684 151.694H122.492L117.889 151.757L100.679 151.946L88.5923 152.073L81.7884 152.136H80.0157C79.424 152.125 78.8322 152.146 78.2429 152.199C77.6608 152.276 77.1134 152.519 76.6663 152.899C76.4483 153.095 76.2711 153.332 76.1448 153.597C76.0186 153.861 75.9458 154.148 75.9305 154.441C74.4591 164.314 72.8194 175.315 71.0256 187.108V187.262H47.9023C47.6144 187.226 47.3221 187.274 47.0615 187.402C46.8244 187.538 46.6413 187.752 46.5431 188.007C46.4448 188.262 46.4374 188.544 46.5219 188.804C46.6221 189.067 46.8103 189.287 47.0545 189.427C47.3178 189.555 47.6115 189.606 47.9023 189.574H49.8433L121.953 189.616L121.813 189.736C123.628 177.508 125.099 167.565 126.122 160.663C126.381 158.947 126.613 157.412 126.823 156.088C126.953 155.487 127.016 154.874 127.012 154.259C126.953 153.659 126.711 153.092 126.319 152.634C125.926 152.177 125.403 151.851 124.819 151.701C124.579 151.684 124.338 151.679 124.097 151.687Z" fill="#101317"/>
<path d="M99.5934 173.185C101.157 173.185 102.424 171.917 102.424 170.354C102.424 168.79 101.157 167.523 99.5934 167.523C98.0299 167.523 96.7625 168.79 96.7625 170.354C96.7625 171.917 98.0299 173.185 99.5934 173.185Z" fill="white"/>
<path d="M72.7213 189.546C72.7844 189.546 74.2208 181.173 75.9306 170.823C77.6403 160.474 78.9786 152.066 78.9156 152.059C78.8525 152.052 77.409 160.432 75.6993 170.781C73.9896 181.131 72.6653 189.539 72.7213 189.546Z" fill="#101317"/>
</svg>
