<svg width="301" height="311" viewBox="0 0 301 311" fill="none" xmlns="http://www.w3.org/2000/svg">
<path d="M277.797 62.173C279.463 61.4374 280.876 60.2295 281.862 58.6989C282.849 57.1683 283.365 55.3821 283.347 53.5614C283.347 48.4182 279.472 44.235 274.651 44.2139C269.83 44.1929 265.906 48.3411 265.885 53.4843C265.851 55.32 266.361 57.1248 267.351 58.6711C268.341 60.2173 269.767 61.4359 271.449 62.173C258.016 64.1981 258.626 78.8008 258.626 78.8008L290.389 78.9479C290.389 78.9479 291.117 64.184 277.797 62.173Z" fill="#F5F5F5"/>
<path d="M90.1132 7.60902L69.3513 0.265625L48.7926 7.51092C46.172 8.73015 43.8877 9.45888 43.8877 11.8693V23.8584C43.8619 32.2788 46.2103 40.5358 50.6635 47.6824C55.1456 54.9666 61.7468 60.7071 69.5826 64.1349C77.991 61.4442 84.2553 54.283 88.0952 48.1518C92.5431 41.0033 94.8889 32.7471 94.864 24.3278V13.544C94.836 10.1105 92.9861 8.43585 90.1132 7.60902Z" fill="#F5F5F5"/>
<path d="M76.225 26.9624C76.23 25.8925 75.9361 24.8425 75.3765 23.9305C74.8169 23.0186 74.0138 22.2811 73.0577 21.8009C72.1015 21.3208 71.0303 21.1172 69.9647 21.213C68.8991 21.3089 67.8814 21.7003 67.0262 22.3433C66.1711 22.9863 65.5124 23.8553 65.1245 24.8525C64.7366 25.8496 64.6348 26.9352 64.8305 27.9871C65.0263 29.0389 65.5119 30.0152 66.2326 30.806C66.9533 31.5968 67.8804 32.1707 68.9097 32.463V41.0606H72.0488V32.463C73.2488 32.1258 74.306 31.4061 75.0598 30.4134C75.8135 29.4206 76.2227 28.2089 76.225 26.9624Z" fill="#EBEBEB"/>
<path d="M266.635 118.72L270.173 120.64L268.583 123.302L265.009 121.2L265.079 125.131H262.024V121.165L258.485 123.281L256.923 120.619L260.461 118.699L256.923 116.751L258.485 114.088L262.052 116.274V112.308H265.107L265.037 116.274L268.611 114.13L270.201 116.793L266.635 118.72Z" fill="#E0E0E0"/>
<path d="M281.378 118.72L284.916 120.64L283.325 123.303L279.752 121.2L279.822 125.131H276.767L276.802 121.165L273.228 123.31L271.666 120.647L275.204 118.727L271.666 116.779L273.228 114.116L276.802 116.26L276.767 112.294H279.822L279.752 116.26L283.325 114.116L284.916 116.779L281.378 118.72Z" fill="#E0E0E0"/>
<path d="M296.12 118.72L299.666 120.64L298.075 123.302L294.502 121.2L294.565 125.131H291.51L291.545 121.165L287.971 123.309L286.409 120.647L289.954 118.727L286.437 116.772L287.999 114.109L291.573 116.253L291.538 112.287H294.593L294.53 116.253L298.103 114.109L299.694 116.772L296.12 118.72Z" fill="#E0E0E0"/>
<path d="M146.113 286.448V308.212H177.939H213.045V286.448H146.113Z" fill="#F5F5F5"/>
<path d="M143.304 280.359V286.448H215.385V280.359H177.939H143.304Z" fill="#EBEBEB"/>
<path d="M179.341 308.212H213.045V286.448H215.385V280.359H177.939V285.88L179.341 308.212Z" fill="#EBEBEB"/>
<path d="M169.047 289.951H155.475V293.23H169.047V289.951Z" fill="#E0E0E0"/>
<path d="M171.157 297.33H153.723V304.246H171.157V297.33Z" fill="white"/>
<path d="M156.407 258.623V280.387H188.24H223.345V258.623H156.407Z" fill="#F5F5F5"/>
<path d="M153.597 252.533V258.623H225.685V252.533H188.24H153.597Z" fill="#EBEBEB"/>
<path d="M189.641 280.386H223.345V258.623H225.685V252.533H188.24V258.062L189.641 280.386Z" fill="#EBEBEB"/>
<path d="M179.341 262.133H165.768V265.413H179.341V262.133Z" fill="#E0E0E0"/>
<path d="M181.457 269.505H164.023V276.421H181.457V269.505Z" fill="white"/>
<path d="M300.5 308.38C300.5 308.478 233.337 308.562 150.507 308.562C67.6766 308.562 0.5 308.478 0.5 308.38C0.5 308.282 67.6486 308.198 150.507 308.198C233.365 308.198 300.5 308.268 300.5 308.38Z" fill="#101317"/>
<path d="M254.758 151.814H150.339C147.87 151.814 145.869 153.816 145.869 156.285V210.337C145.869 212.806 147.87 214.808 150.339 214.808H254.758C257.227 214.808 259.229 212.806 259.229 210.337V156.285C259.229 153.816 257.227 151.814 254.758 151.814Z" fill="white"/>
<path d="M254.765 214.808C254.765 214.808 255.066 214.808 255.641 214.703C256.493 214.518 257.274 214.092 257.89 213.476C258.34 213.023 258.686 212.478 258.906 211.879C259.032 211.532 259.117 211.173 259.158 210.807C259.158 210.428 259.158 210.022 259.158 209.601C259.158 207.92 259.158 205.979 259.158 203.8C259.158 195.062 259.123 182.435 259.102 166.83C259.102 164.875 259.102 162.878 259.102 160.839V157.742C259.102 156.698 259.207 155.64 258.78 154.673C258.485 153.941 257.996 153.303 257.365 152.829C256.734 152.355 255.985 152.062 255.199 151.982C254.681 151.947 254.106 151.982 253.56 151.982H246.798H217.494H150.353C149.638 151.981 148.934 152.159 148.305 152.499C147.676 152.839 147.142 153.331 146.751 153.93C146.354 154.524 146.113 155.209 146.051 155.92C146.016 156.621 146.051 157.392 146.051 158.121V184.033C146.051 189.638 146.051 195.151 146.051 200.569V208.585C146.051 209.244 146.051 209.91 146.051 210.554C146.083 211.185 146.25 211.802 146.541 212.362C146.84 212.913 147.253 213.392 147.754 213.768C148.255 214.144 148.83 214.408 149.442 214.541C150.065 214.642 150.697 214.674 151.327 214.64H178.703H204.237L241.206 214.696L251.254 214.731L241.206 214.766L204.237 214.822H178.703H151.327C150.673 214.856 150.018 214.82 149.372 214.717C148.711 214.574 148.09 214.29 147.55 213.883C147.011 213.477 146.566 212.958 146.247 212.362C145.925 211.761 145.741 211.096 145.707 210.414C145.707 209.714 145.707 209.097 145.707 208.431C145.707 205.79 145.707 203.113 145.707 200.415V184.033C145.707 178.427 145.707 172.716 145.707 166.9V158.142C145.707 157.399 145.707 156.684 145.707 155.913C145.759 155.147 146 154.406 146.408 153.755C146.834 153.108 147.411 152.574 148.09 152.2C148.776 151.835 149.54 151.64 150.318 151.632H217.459H246.763H253.525C254.085 151.632 254.618 151.632 255.192 151.632C255.754 151.691 256.301 151.852 256.804 152.109C257.804 152.616 258.588 153.467 259.011 154.505C259.216 155.013 259.325 155.555 259.334 156.103C259.334 156.628 259.334 157.154 259.334 157.679V160.776C259.334 162.813 259.334 164.81 259.334 166.767C259.334 182.372 259.285 194.999 259.271 203.737C259.271 205.916 259.271 207.857 259.271 209.538C259.271 209.959 259.271 210.358 259.271 210.751C259.226 211.124 259.136 211.491 259.004 211.844C258.778 212.453 258.422 213.005 257.96 213.462C257.329 214.083 256.53 214.504 255.662 214.675C255.445 214.715 255.224 214.739 255.003 214.745L254.765 214.808Z" fill="#101317"/>
<path d="M185.367 174.076V174.861H182.088V170.656H185.283V171.441H183.062V172.331H185.024V173.095H183.062V174.076H185.367Z" fill="#101317"/>
<path d="M190.034 170.628V174.833H189.228L187.126 172.261V174.833H186.159V170.628H186.937L189.039 173.2V170.628H190.034Z" fill="#101317"/>
<path d="M191.919 171.427H190.56V170.628H194.252V171.427H192.893V174.861H191.919V171.427Z" fill="#101317"/>
<path d="M198.057 174.076V174.861H194.778V170.656H197.98V171.441H195.752V172.331H197.721V173.095H195.752V174.076H198.057Z" fill="#101317"/>
<path d="M201.54 174.861L200.72 173.684H199.823V174.861H198.849V170.656H200.685C201.813 170.656 202.521 171.238 202.521 172.191C202.529 172.476 202.45 172.757 202.295 172.996C202.14 173.235 201.915 173.421 201.652 173.529L202.598 174.889L201.54 174.861ZM200.622 171.427H199.823V172.899H200.622C201.217 172.899 201.519 172.625 201.519 172.163C201.519 171.701 201.217 171.427 200.622 171.427Z" fill="#101317"/>
<path d="M204.735 172.744C204.762 172.288 204.923 171.849 205.198 171.484C205.472 171.118 205.849 170.841 206.279 170.687C206.71 170.533 207.177 170.509 207.621 170.618C208.065 170.728 208.467 170.965 208.778 171.301L208.147 171.883C208.016 171.727 207.853 171.603 207.669 171.517C207.485 171.431 207.285 171.386 207.082 171.385C206.739 171.41 206.419 171.563 206.185 171.815C205.95 172.066 205.82 172.397 205.82 172.741C205.82 173.085 205.95 173.416 206.185 173.667C206.419 173.919 206.739 174.072 207.082 174.097C207.286 174.1 207.487 174.057 207.672 173.971C207.856 173.884 208.019 173.757 208.147 173.599L208.778 174.181C208.469 174.52 208.067 174.76 207.623 174.872C207.178 174.983 206.711 174.96 206.279 174.807C205.847 174.654 205.47 174.376 205.195 174.009C204.92 173.642 204.76 173.202 204.735 172.744Z" fill="#101317"/>
<path d="M209.086 172.745C209.061 172.281 209.175 171.821 209.415 171.423C209.654 171.025 210.007 170.708 210.429 170.513C210.85 170.318 211.32 170.254 211.778 170.33C212.236 170.405 212.661 170.616 212.998 170.936C213.335 171.255 213.568 171.668 213.668 172.122C213.767 172.575 213.728 173.048 213.556 173.479C213.383 173.91 213.086 174.28 212.701 174.54C212.317 174.8 211.863 174.938 211.399 174.938C211.1 174.955 210.802 174.911 210.521 174.808C210.241 174.706 209.985 174.547 209.768 174.341C209.551 174.136 209.379 173.888 209.262 173.614C209.144 173.339 209.085 173.043 209.086 172.745ZM212.723 172.745C212.717 172.484 212.635 172.231 212.486 172.017C212.337 171.802 212.129 171.637 211.886 171.541C211.644 171.445 211.378 171.423 211.123 171.477C210.868 171.531 210.635 171.66 210.453 171.846C210.27 172.032 210.147 172.268 210.098 172.524C210.049 172.78 210.077 173.045 210.178 173.286C210.279 173.526 210.449 173.731 210.666 173.876C210.883 174.02 211.138 174.097 211.399 174.097C211.576 174.101 211.752 174.068 211.917 174.002C212.081 173.935 212.23 173.835 212.354 173.708C212.478 173.581 212.575 173.43 212.638 173.265C212.702 173.099 212.731 172.922 212.723 172.745Z" fill="#101317"/>
<path d="M214.461 170.628H216.367C216.924 170.628 217.459 170.85 217.853 171.244C218.247 171.638 218.469 172.173 218.469 172.731C218.469 173.288 218.247 173.823 217.853 174.217C217.459 174.611 216.924 174.833 216.367 174.833H214.447L214.461 170.628ZM216.331 174.055C216.679 174.055 217.012 173.917 217.258 173.671C217.504 173.425 217.642 173.092 217.642 172.745C217.642 172.397 217.504 172.064 217.258 171.818C217.012 171.572 216.679 171.434 216.331 171.434H215.442V174.055H216.331Z" fill="#101317"/>
<path d="M222.736 174.076V174.861H219.457V170.656H222.673V171.441H220.431V172.331H222.4V173.095H220.431V174.076H222.736Z" fill="#101317"/>
<path d="M169.293 181.622H159C157.471 181.622 156.232 182.861 156.232 184.39V200.415C156.232 201.944 157.471 203.183 159 203.183H169.293C170.822 203.183 172.061 201.944 172.061 200.415V184.39C172.061 182.861 170.822 181.622 169.293 181.622Z" fill="#EBEBEB"/>
<path d="M189.06 181.622H178.767C177.238 181.622 175.999 182.861 175.999 184.39V200.415C175.999 201.944 177.238 203.183 178.767 203.183H189.06C190.589 203.183 191.828 201.944 191.828 200.415V184.39C191.828 182.861 190.589 181.622 189.06 181.622Z" fill="#EBEBEB"/>
<path d="M208.827 181.622H198.534C197.005 181.622 195.766 182.861 195.766 184.39V200.415C195.766 201.944 197.005 203.183 198.534 203.183H208.827C210.355 203.183 211.595 201.944 211.595 200.415V184.39C211.595 182.861 210.355 181.622 208.827 181.622Z" fill="#EBEBEB"/>
<path d="M228.587 181.622H218.293C216.765 181.622 215.526 182.861 215.526 184.39V200.415C215.526 201.944 216.765 203.183 218.293 203.183H228.587C230.115 203.183 231.355 201.944 231.355 200.415V184.39C231.355 182.861 230.115 181.622 228.587 181.622Z" fill="#EBEBEB"/>
<path d="M248.354 181.622H238.06C236.532 181.622 235.293 182.861 235.293 184.39V200.415C235.293 201.944 236.532 203.183 238.06 203.183H248.354C249.882 203.183 251.121 201.944 251.121 200.415V184.39C251.121 182.861 249.882 181.622 248.354 181.622Z" fill="#EBEBEB"/>
<path d="M167.597 194.053C167.597 195.588 166.406 196.59 164.795 196.59C162.58 196.59 161.41 194.999 161.41 192.385C161.41 189.54 162.931 188.069 165.152 188.069C165.817 188.039 166.478 188.189 167.065 188.503L166.813 188.994C166.305 188.715 165.73 188.582 165.152 188.608C163.267 188.608 162.027 189.849 162.027 192.294C162.027 192.632 162.05 192.969 162.097 193.303C162.294 192.761 162.663 192.299 163.148 191.986C163.632 191.674 164.206 191.529 164.781 191.572C166.462 191.572 167.597 192.553 167.597 194.053ZM166.981 194.053C166.981 192.855 166.119 192.07 164.696 192.07C164.409 192.038 164.118 192.066 163.842 192.151C163.566 192.237 163.31 192.378 163.091 192.567C162.872 192.756 162.695 192.987 162.569 193.248C162.444 193.509 162.374 193.792 162.363 194.081C162.363 195.069 163.19 196.05 164.767 196.05C165.046 196.081 165.33 196.052 165.598 195.965C165.866 195.879 166.112 195.736 166.321 195.548C166.53 195.359 166.697 195.129 166.811 194.871C166.925 194.613 166.982 194.335 166.981 194.053Z" fill="#3085FE"/>
<path d="M187.147 194.214H185.381V196.548H184.779V194.214H179.979V193.773L184.547 188.132H185.248L180.764 193.675H184.807V191.622H185.395V193.675H187.161L187.147 194.214Z" fill="#3085FE"/>
<path d="M207.531 197.746C205.091 197.989 202.634 197.989 200.194 197.746C202.634 197.503 205.091 197.503 207.531 197.746Z" fill="#3085FE"/>
<path d="M153.065 159.824C154.013 159.824 154.782 159.055 154.782 158.107C154.782 157.159 154.013 156.39 153.065 156.39C152.117 156.39 151.348 157.159 151.348 158.107C151.348 159.055 152.117 159.824 153.065 159.824Z" fill="#101317"/>
<path d="M159.729 158.107C159.729 158.446 159.628 158.778 159.439 159.061C159.251 159.343 158.982 159.563 158.669 159.693C158.355 159.823 158.01 159.857 157.677 159.791C157.344 159.724 157.038 159.561 156.798 159.321C156.558 159.081 156.394 158.775 156.328 158.442C156.262 158.109 156.296 157.764 156.426 157.45C156.556 157.136 156.776 156.868 157.058 156.679C157.34 156.491 157.672 156.39 158.012 156.39C158.467 156.39 158.904 156.571 159.226 156.893C159.548 157.215 159.729 157.652 159.729 158.107Z" fill="#101317"/>
<path d="M162.868 159.824C163.816 159.824 164.584 159.055 164.584 158.107C164.584 157.159 163.816 156.39 162.868 156.39C161.92 156.39 161.151 157.159 161.151 158.107C161.151 159.055 161.92 159.824 162.868 159.824Z" fill="#101317"/>
<path d="M259.404 162.942C259.404 163.04 234.017 163.124 202.717 163.124C171.416 163.124 146.03 163.04 146.03 162.942C146.03 162.844 171.402 162.76 202.717 162.76C234.031 162.76 259.404 162.837 259.404 162.942Z" fill="#101317"/>
<path d="M238.586 13.4736H113.412C110.873 13.4736 108.815 15.5316 108.815 18.0703V133.231C108.815 135.77 110.873 137.828 113.412 137.828H238.586C241.124 137.828 243.182 135.77 243.182 133.231V18.0703C243.182 15.5316 241.124 13.4736 238.586 13.4736Z" fill="white"/>
<path d="M238.586 137.828H238.915C239.24 137.801 239.562 137.74 239.875 137.646C240.486 137.459 241.051 137.146 241.534 136.727C242.017 136.308 242.406 135.793 242.678 135.214C243.055 134.346 243.205 133.396 243.112 132.454C243.112 131.41 243.112 130.26 243.112 129.02C243.112 126.54 243.112 123.674 243.112 120.451C243.112 107.558 243.077 88.9188 243.049 65.8516C243.049 54.325 243.049 41.7053 243.049 28.1466C243.049 24.7646 243.049 21.3241 243.049 17.8253C242.997 16.9698 242.697 16.1479 242.187 15.459C241.678 14.7701 240.979 14.2437 240.176 13.9433C239.342 13.6794 238.463 13.5841 237.591 13.6631H212.582H113.426C112.373 13.6692 111.358 14.0492 110.56 14.7351C109.736 15.4312 109.197 16.4066 109.046 17.4749C108.998 18.0107 108.982 18.5488 108.997 19.0865V62.229C108.997 78.8147 108.997 94.8118 108.997 110.052C108.997 117.676 108.997 125.101 108.997 132.328C108.997 132.776 108.997 133.238 108.997 133.666C109.038 134.096 109.139 134.518 109.299 134.92C109.623 135.725 110.176 136.417 110.889 136.91C111.595 137.403 112.432 137.676 113.293 137.695H126.263H163.968L218.567 137.758H233.407L218.567 137.793L163.968 137.849H126.263H113.286C112.36 137.826 111.461 137.532 110.7 137.004C109.94 136.476 109.35 135.737 109.004 134.878C108.832 134.447 108.721 133.994 108.675 133.533C108.64 133.056 108.675 132.622 108.675 132.166C108.675 124.94 108.675 117.515 108.675 109.891C108.675 94.6506 108.675 78.6535 108.675 62.0678C108.675 53.7714 108.675 45.3373 108.675 36.7653V19.0515C108.656 18.4973 108.674 17.9424 108.731 17.3908C108.885 16.2512 109.454 15.2084 110.329 14.4619C111.187 13.7108 112.285 13.2887 113.426 13.2707H212.582H237.549C238.459 13.1921 239.377 13.2969 240.246 13.579C241.106 13.9006 241.853 14.4641 242.399 15.2015C242.945 15.9389 243.266 16.8185 243.322 17.7342C243.322 21.2377 243.322 24.6852 243.322 28.0766C243.322 41.6352 243.322 54.2549 243.322 65.7815C243.322 88.8347 243.28 107.488 243.266 120.381C243.266 123.604 243.266 126.47 243.266 128.95C243.266 130.19 243.266 131.34 243.266 132.384C243.355 133.342 243.196 134.307 242.804 135.186C242.452 135.923 241.91 136.552 241.234 137.009C240.558 137.466 239.772 137.735 238.957 137.786L238.586 137.828Z" fill="#101317"/>
<path d="M118.968 22.0925C118.968 22.5529 118.832 23.0029 118.576 23.3856C118.32 23.7684 117.956 24.0665 117.531 24.2424C117.105 24.4183 116.637 24.4639 116.186 24.3736C115.734 24.2832 115.32 24.061 114.995 23.7349C114.67 23.4089 114.448 22.9937 114.36 22.542C114.271 22.0903 114.318 21.6223 114.495 21.1973C114.672 20.7724 114.971 20.4095 115.355 20.1548C115.738 19.9 116.189 19.7647 116.649 19.7661C116.954 19.7661 117.256 19.8263 117.538 19.9433C117.82 20.0603 118.076 20.2318 118.292 20.4479C118.507 20.664 118.678 20.9205 118.794 21.2027C118.91 21.4849 118.969 21.7873 118.968 22.0925Z" fill="#101317"/>
<path d="M123.418 24.4116C124.699 24.4116 125.737 23.3732 125.737 22.0923C125.737 20.8114 124.699 19.7729 123.418 19.7729C122.137 19.7729 121.098 20.8114 121.098 22.0923C121.098 23.3732 122.137 24.4116 123.418 24.4116Z" fill="#101317"/>
<path d="M130.201 24.4116C131.482 24.4116 132.52 23.3732 132.52 22.0923C132.52 20.8114 131.482 19.7729 130.201 19.7729C128.92 19.7729 127.881 20.8114 127.881 22.0923C127.881 23.3732 128.92 24.4116 130.201 24.4116Z" fill="#101317"/>
<path d="M243.182 28.6861C243.182 28.7912 213.101 28.8683 175.999 28.8683C138.896 28.8683 108.815 28.7912 108.815 28.6861C108.815 28.581 138.889 28.5039 175.999 28.5039C213.108 28.5039 243.182 28.581 243.182 28.6861Z" fill="#101317"/>
<path d="M194.981 75.5281C194.981 75.5281 195.03 75.451 195.142 75.3109L195.233 75.1918L195.324 75.0306C195.402 74.9002 195.47 74.7644 195.527 74.6242C195.527 74.5471 195.598 74.463 195.626 74.3719L195.71 74.0776C195.74 73.9696 195.764 73.8595 195.78 73.7483C195.78 73.6292 195.822 73.5101 195.829 73.3839C195.875 72.8011 195.846 72.2149 195.745 71.6392C195.45 70.0634 194.911 68.5433 194.147 67.1337C193.162 65.2522 192.011 63.4629 190.707 61.7873C189.137 59.7493 187.425 57.8246 185.584 56.0275C183.477 53.959 181.227 52.0413 178.851 50.2887C177.596 49.3638 176.272 48.4669 174.878 47.626C173.456 46.7575 171.979 45.9828 170.456 45.3067C168.891 44.5923 167.244 44.0745 165.551 43.7651C164.686 43.611 163.802 43.5898 162.931 43.7021C162.493 43.7642 162.066 43.8868 161.662 44.0664C161.266 44.2609 160.908 44.5243 160.604 44.8442C160.314 45.1798 160.091 45.5674 159.946 45.9864C159.814 46.4088 159.741 46.8474 159.728 47.2897C159.717 48.1692 159.837 49.0455 160.086 49.8893C160.588 51.5401 161.294 53.1218 162.188 54.598C163.03 56.0341 163.966 57.4128 164.991 58.7252C165.986 60.0145 167.03 61.2337 168.088 62.3759C170.1 64.5377 172.264 66.5538 174.562 68.4089C176.557 70.035 178.664 71.5172 180.869 72.8444C182.682 73.9472 184.591 74.8853 186.572 75.6472C188.062 76.2415 189.633 76.6054 191.232 76.7263C191.814 76.755 192.397 76.715 192.97 76.6072C193.096 76.6072 193.208 76.5441 193.32 76.5161C193.43 76.4874 193.537 76.4523 193.643 76.411L193.923 76.2919L194.168 76.1657C194.302 76.0932 194.428 76.0088 194.546 75.9135L194.694 75.8084L194.806 75.7033C194.932 75.5772 195.002 75.5211 195.002 75.5211L194.813 75.7103L194.701 75.8154L194.56 75.9275C194.441 76.0243 194.312 76.1088 194.175 76.1798L193.944 76.3339L193.657 76.453C193.554 76.4963 193.449 76.5315 193.341 76.5581C193.224 76.5982 193.105 76.631 192.984 76.6562C192.408 76.7742 191.819 76.8166 191.232 76.7824C189.629 76.6734 188.052 76.3165 186.558 75.7243C184.57 74.9631 182.654 74.0251 180.834 72.9215C178.629 71.594 176.522 70.1118 174.527 68.486C172.223 66.6332 170.054 64.617 168.039 62.4529C166.981 61.3108 165.937 60.0916 164.935 58.8023C163.913 57.4832 162.977 56.1 162.132 54.6611C161.237 53.1781 160.531 51.5892 160.03 49.9313C159.775 49.0769 159.652 48.1883 159.665 47.2967C159.68 46.8472 159.756 46.4017 159.89 45.9724C160.049 45.538 160.286 45.1367 160.59 44.7882C160.901 44.4552 161.272 44.1841 161.683 43.9894C162.096 43.8051 162.532 43.6779 162.98 43.611C163.863 43.4986 164.758 43.5198 165.635 43.674C167.34 43.986 168.999 44.5085 170.575 45.2296C172.101 45.9065 173.581 46.6837 175.004 47.5559C176.405 48.3968 177.73 49.2937 178.984 50.2256C181.364 51.9813 183.614 53.9063 185.718 55.9854C187.562 57.7856 189.276 59.7151 190.847 61.7592C192.147 63.4396 193.294 65.2336 194.273 67.1196C195.035 68.5368 195.572 70.064 195.864 71.6462C195.961 72.2271 195.985 72.8181 195.934 73.405C195.923 73.5252 195.904 73.6446 195.878 73.7623C195.867 73.8744 195.843 73.9848 195.808 74.0917L195.724 74.393C195.694 74.4792 195.659 74.5635 195.619 74.6452C195.566 74.789 195.495 74.9255 195.408 75.0516C195.384 75.1084 195.353 75.1624 195.317 75.2128L195.226 75.3319L194.981 75.5281Z" fill="#3085FE"/>
<path d="M201.336 60.1687V59.9025V59.7553C201.336 59.6993 201.336 59.6432 201.301 59.5731C201.277 59.4223 201.237 59.2743 201.182 59.1317C201.182 59.0546 201.126 58.9635 201.091 58.8794L200.951 58.5992C200.905 58.4976 200.849 58.4012 200.783 58.3119C200.722 58.2067 200.654 58.106 200.58 58.0106C200.231 57.5422 199.821 57.1227 199.36 56.7633C198.086 55.7848 196.668 55.0095 195.156 54.465C193.17 53.7142 191.12 53.1443 189.032 52.7623C186.489 52.285 183.916 51.9899 181.331 51.8794C178.38 51.7356 175.423 51.7988 172.481 52.0686C170.933 52.2157 169.349 52.4329 167.744 52.7343C166.105 53.0299 164.488 53.4349 162.903 53.9465C161.255 54.4455 159.677 55.1518 158.208 56.0486C157.459 56.508 156.786 57.0799 156.211 57.7443C155.927 58.0813 155.691 58.4562 155.51 58.8584C155.337 59.2669 155.242 59.7042 155.23 60.1477C155.244 60.5903 155.336 61.0269 155.503 61.437C155.686 61.8378 155.922 62.2124 156.204 62.5511C156.783 63.216 157.458 63.79 158.208 64.2538C159.68 65.1465 161.257 65.8526 162.903 66.356C164.49 66.861 166.107 67.2659 167.744 67.5682C169.349 67.8695 170.933 68.0797 172.481 68.2268C175.423 68.5021 178.38 68.5677 181.331 68.423C183.917 68.3197 186.492 68.0387 189.039 67.5822C191.127 67.2002 193.177 66.6303 195.163 65.8795C196.672 65.3294 198.09 64.5545 199.367 63.5812C199.826 63.22 200.236 62.8007 200.587 62.3339C200.661 62.2361 200.729 62.1331 200.79 62.0256C200.856 61.9363 200.912 61.8399 200.958 61.7383L201.098 61.465C201.133 61.3739 201.161 61.2899 201.189 61.2058C201.245 61.0634 201.285 60.9154 201.308 60.7643C201.308 60.7013 201.308 60.6452 201.343 60.5892V60.442V60.1687C201.343 60.1687 201.343 60.2598 201.343 60.442V60.5892C201.343 60.6452 201.343 60.7013 201.343 60.7713C201.322 60.9221 201.284 61.07 201.231 61.2128C201.231 61.2969 201.175 61.381 201.14 61.472L201.007 61.7523C200.957 61.854 200.901 61.9523 200.839 62.0466C200.777 62.1508 200.709 62.2514 200.636 62.3479C200.287 62.8209 199.877 63.2451 199.416 63.6092C198.144 64.5959 196.725 65.3784 195.212 65.9285C193.225 66.6878 191.173 67.2647 189.081 67.6523C186.536 68.1312 183.96 68.4309 181.373 68.5492C178.42 68.6988 175.461 68.6379 172.516 68.367C170.961 68.2198 169.37 68.0096 167.765 67.7083C166.123 67.4052 164.502 67.0004 162.91 66.4961C161.256 65.9957 159.671 65.2895 158.194 64.394C157.435 63.9281 156.753 63.3491 156.169 62.6773C155.885 62.33 155.649 61.9458 155.468 61.5351C155.279 61.1168 155.181 60.6629 155.181 60.2038C155.181 59.7446 155.279 59.2908 155.468 58.8724C155.652 58.4632 155.887 58.0793 156.169 57.7303C156.759 57.0592 157.446 56.4805 158.208 56.0136C159.689 55.1193 161.275 54.4131 162.931 53.9114C164.518 53.4006 166.138 52.9957 167.779 52.6992C169.391 52.3979 170.975 52.1877 172.53 52.0406C175.455 51.7561 178.396 51.6788 181.331 51.8093C183.919 51.9263 186.494 52.2284 189.039 52.7132C191.131 53.0972 193.183 53.6718 195.17 54.43C196.683 54.9801 198.102 55.7626 199.374 56.7493C199.834 57.1151 200.243 57.5391 200.594 58.0106C200.668 58.1084 200.736 58.2114 200.797 58.3189C200.861 58.4123 200.917 58.5107 200.965 58.6132L201.098 58.8864C201.133 58.9775 201.161 59.0686 201.189 59.1457C201.242 59.2908 201.28 59.4412 201.301 59.5942C201.301 59.6572 201.301 59.7203 201.301 59.7693V59.9235C201.336 60.0776 201.336 60.1687 201.336 60.1687Z" fill="#3085FE"/>
<path d="M192.914 41.0606L192.683 40.9134L192.556 40.8293C192.505 40.7996 192.451 40.7738 192.395 40.7522C192.262 40.6793 192.121 40.6206 191.975 40.5771C191.891 40.5771 191.807 40.514 191.716 40.493L191.414 40.4299C191.306 40.4062 191.196 40.3898 191.085 40.3809C190.964 40.3737 190.842 40.3737 190.721 40.3809C190.135 40.3734 189.552 40.4394 188.983 40.5771C187.432 40.9887 185.953 41.6337 184.596 42.49C182.786 43.5977 181.081 44.869 179.502 46.2878C177.576 47.9944 175.773 49.8348 174.107 51.7954C172.186 54.0382 170.428 56.4149 168.845 58.9075C168.018 60.2178 167.205 61.6192 166.462 63.0207C165.692 64.4976 165.02 66.0238 164.451 67.5893C163.848 69.204 163.446 70.8866 163.253 72.5993C163.159 73.4738 163.199 74.3575 163.372 75.2199C163.468 75.6517 163.621 76.0688 163.827 76.4602C164.044 76.8466 164.332 77.1889 164.675 77.4692C165.032 77.7288 165.434 77.9212 165.86 78.0368C166.288 78.1406 166.729 78.1854 167.17 78.1699C168.049 78.1209 168.916 77.939 169.741 77.6304C171.354 77.0188 172.884 76.2091 174.296 75.2199C175.67 74.2787 176.98 73.2488 178.22 72.1368C179.439 71.0507 180.581 69.9296 181.646 68.7945C183.662 66.6367 185.524 64.3397 187.217 61.9206C188.702 59.8194 190.037 57.6161 191.211 55.3269C192.19 53.444 192.997 51.4764 193.621 49.448C194.112 47.919 194.365 46.3239 194.371 44.7182C194.369 44.1356 194.289 43.5558 194.133 42.9945C194.133 42.8684 194.056 42.7563 194.021 42.6441C193.986 42.532 193.944 42.4339 193.895 42.3358L193.762 42.0626C193.713 41.9785 193.657 41.9014 193.614 41.8313C193.535 41.6998 193.441 41.5776 193.334 41.467L193.222 41.3268L193.11 41.2287L192.914 41.0465L193.117 41.2217L193.229 41.3198C193.272 41.361 193.312 41.4055 193.348 41.4529C193.454 41.5645 193.548 41.6866 193.628 41.8173C193.678 41.8944 193.734 41.9645 193.783 42.0485L193.916 42.3288C193.97 42.4272 194.014 42.5304 194.049 42.6371C194.084 42.7493 194.133 42.8614 194.161 42.9875C194.323 43.5504 194.408 44.1326 194.413 44.7182C194.416 46.3281 194.168 47.9286 193.678 49.462C193.056 51.496 192.254 53.4705 191.281 55.3619C190.107 57.6557 188.772 59.8638 187.287 61.9696C185.598 64.3963 183.736 66.6983 181.716 68.8575C180.651 69.9997 179.509 71.1278 178.283 72.2139C177.041 73.3278 175.728 74.36 174.352 75.304C172.934 76.3007 171.397 77.1152 169.776 77.7285C168.942 78.0401 168.066 78.2243 167.177 78.275C166.724 78.2902 166.272 78.2454 165.831 78.1419C165.393 78.0181 164.98 77.8164 164.612 77.5463C164.258 77.2583 163.961 76.9065 163.736 76.5092C163.524 76.1091 163.367 75.6826 163.267 75.241C163.097 74.3687 163.059 73.4758 163.155 72.5923C163.344 70.8692 163.749 69.1766 164.36 67.5542C164.929 65.9865 165.601 64.458 166.371 62.9786C167.121 61.5211 167.927 60.1338 168.76 58.8164C170.353 56.3249 172.118 53.9483 174.044 51.7043C175.713 49.744 177.521 47.9058 179.453 46.2037C181.041 44.7865 182.753 43.5154 184.568 42.4059C185.932 41.5534 187.418 40.9153 188.976 40.514C189.546 40.3729 190.133 40.3069 190.721 40.3178C190.847 40.3178 190.966 40.3178 191.085 40.3178C191.198 40.3263 191.31 40.3427 191.421 40.3669L191.723 40.4299L191.982 40.521C192.128 40.5666 192.269 40.6277 192.402 40.7032C192.458 40.7247 192.512 40.7505 192.563 40.7803L192.69 40.8714L192.914 41.0606Z" fill="#3085FE"/>
<path d="M154.95 69.6912C155.069 69.811 155.15 69.9633 155.182 70.129C155.215 70.2947 155.198 70.4663 155.133 70.6223C155.068 70.7782 154.958 70.9115 154.818 71.0052C154.677 71.0989 154.512 71.1489 154.344 71.1489C154.175 71.1489 154.01 71.0989 153.869 71.0052C153.729 70.9115 153.619 70.7782 153.554 70.6223C153.489 70.4663 153.472 70.2947 153.505 70.129C153.537 69.9633 153.618 69.811 153.737 69.6912C153.817 69.6114 153.911 69.548 154.015 69.5047C154.119 69.4615 154.231 69.4392 154.344 69.4392C154.456 69.4392 154.568 69.4615 154.672 69.5047C154.776 69.548 154.87 69.6114 154.95 69.6912Z" fill="#3085FE"/>
<path d="M203.291 43.1415C203.293 43.3123 203.243 43.4796 203.149 43.6222C203.056 43.7649 202.921 43.8764 202.764 43.9427C202.607 44.0091 202.433 44.0271 202.266 43.9947C202.098 43.9622 201.944 43.8807 201.822 43.7604C201.701 43.6402 201.618 43.4866 201.585 43.3192C201.551 43.1519 201.567 42.9782 201.633 42.8203C201.698 42.6624 201.808 42.5274 201.95 42.4324C202.092 42.3374 202.259 42.2867 202.429 42.2866C202.542 42.2857 202.654 42.3072 202.759 42.3497C202.863 42.3922 202.958 42.4551 203.038 42.5345C203.119 42.614 203.182 42.7086 203.226 42.8127C203.269 42.9169 203.291 43.0287 203.291 43.1415Z" fill="#3085FE"/>
<path d="M160.359 72.5082C160.359 72.5512 160.346 72.5932 160.322 72.6289C160.299 72.6646 160.265 72.6925 160.225 72.7089C160.185 72.7254 160.142 72.7297 160.099 72.7213C160.057 72.7129 160.019 72.6922 159.988 72.6618C159.958 72.6315 159.937 72.5928 159.929 72.5506C159.92 72.5085 159.925 72.4648 159.941 72.4251C159.958 72.3854 159.985 72.3515 160.021 72.3276C160.057 72.3038 160.099 72.291 160.142 72.291C160.199 72.291 160.255 72.3139 160.295 72.3546C160.336 72.3954 160.359 72.4506 160.359 72.5082Z" fill="#3085FE"/>
<path d="M165.005 48.5019C165.005 48.5448 164.992 48.5868 164.968 48.6226C164.944 48.6583 164.91 48.6861 164.871 48.7026C164.831 48.719 164.787 48.7233 164.745 48.7149C164.703 48.7066 164.664 48.6859 164.634 48.6555C164.604 48.6251 164.583 48.5864 164.574 48.5443C164.566 48.5021 164.57 48.4585 164.587 48.4188C164.603 48.3791 164.631 48.3451 164.667 48.3213C164.703 48.2974 164.745 48.2847 164.788 48.2847C164.845 48.2847 164.9 48.3076 164.941 48.3483C164.982 48.389 165.005 48.4443 165.005 48.5019Z" fill="#3085FE"/>
<path d="M198.982 60.1686C198.982 60.2262 198.959 60.2815 198.918 60.3222C198.878 60.363 198.822 60.3858 198.765 60.3858C198.707 60.3858 198.652 60.363 198.611 60.3222C198.57 60.2815 198.547 60.2262 198.547 60.1686C198.547 60.111 198.57 60.0558 198.611 60.015C198.652 59.9743 198.707 59.9514 198.765 59.9514C198.822 59.9514 198.878 59.9743 198.918 60.015C198.959 60.0558 198.982 60.111 198.982 60.1686Z" fill="#3085FE"/>
<path d="M202.009 50.0224C202.009 50.08 201.986 50.1353 201.945 50.176C201.905 50.2167 201.849 50.2396 201.792 50.2396C201.734 50.2396 201.679 50.2167 201.638 50.176C201.597 50.1353 201.575 50.08 201.575 50.0224C201.575 49.9648 201.597 49.9095 201.638 49.8688C201.679 49.8281 201.734 49.8052 201.792 49.8052C201.849 49.8052 201.905 49.8281 201.945 49.8688C201.986 49.9095 202.009 49.9648 202.009 50.0224Z" fill="#3085FE"/>
<path d="M187.336 64.9545H184.646V50.3027C184.646 48.6432 183.986 47.0516 182.813 45.8782C181.639 44.7047 180.048 44.0454 178.388 44.0454C176.729 44.0454 175.137 44.7047 173.964 45.8782C172.79 47.0516 172.131 48.6432 172.131 50.3027V64.9545H169.419V50.3027C169.419 47.9296 170.362 45.6536 172.04 43.9755C173.718 42.2975 175.994 41.3547 178.367 41.3547C180.74 41.3547 183.016 42.2975 184.694 43.9755C186.372 45.6536 187.315 47.9296 187.315 50.3027L187.336 64.9545Z" fill="#3085FE"/>
<g opacity="0.3">
<path d="M187.336 64.9545H184.646V50.3027C184.646 48.6432 183.986 47.0516 182.813 45.8782C181.639 44.7047 180.048 44.0454 178.388 44.0454C176.729 44.0454 175.137 44.7047 173.964 45.8782C172.79 47.0516 172.131 48.6432 172.131 50.3027V64.9545H169.419V50.3027C169.419 47.9296 170.362 45.6536 172.04 43.9755C173.718 42.2975 175.994 41.3547 178.367 41.3547C180.74 41.3547 183.016 42.2975 184.694 43.9755C186.372 45.6536 187.315 47.9296 187.315 50.3027L187.336 64.9545Z" fill="black"/>
</g>
<path d="M188.871 58.438H167.906C167.035 58.438 166.329 59.1439 166.329 60.0146V72.333C166.329 73.2037 167.035 73.9096 167.906 73.9096H188.871C189.741 73.9096 190.447 73.2037 190.447 72.333V60.0146C190.447 59.1439 189.741 58.438 188.871 58.438Z" fill="#3085FE"/>
<g opacity="0.3">
<path d="M180.406 64.1626C180.409 63.7863 180.307 63.4168 180.111 63.0956C179.915 62.7745 179.633 62.5145 179.297 62.3451C178.961 62.1756 178.584 62.1035 178.21 62.1368C177.835 62.1701 177.477 62.3076 177.176 62.5336C176.875 62.7596 176.644 63.0652 176.507 63.4159C176.371 63.7666 176.335 64.1484 176.405 64.5182C176.474 64.8881 176.645 65.2312 176.899 65.5088C177.153 65.7865 177.479 65.9876 177.842 66.0895V69.1026H178.935V66.0895C179.357 65.9732 179.729 65.7218 179.995 65.3738C180.261 65.0259 180.405 64.6004 180.406 64.1626Z" fill="black"/>
</g>
<path d="M167.618 72.4451C167.562 72.4451 167.513 69.8665 167.513 66.6853C167.513 63.5041 167.562 60.9185 167.618 60.9185C167.674 60.9185 167.716 63.4971 167.716 66.6853C167.716 69.8735 167.667 72.4451 167.618 72.4451Z" fill="#FAFAFA"/>
<path d="M176.812 66.7413C176.812 66.7413 176.713 66.7413 176.573 66.6082C176.375 66.4603 176.2 66.2831 176.055 66.0826C175.8 65.7523 175.621 65.3691 175.533 64.961C175.445 64.553 175.449 64.1304 175.545 63.7241C175.641 63.3178 175.827 62.9381 176.088 62.6127C176.35 62.2873 176.681 62.0245 177.057 61.8434C177.276 61.7257 177.513 61.643 177.758 61.5981C177.848 61.5812 177.941 61.5812 178.031 61.5981C177.721 61.7032 177.419 61.8296 177.127 61.9765C176.785 62.1652 176.486 62.4233 176.25 62.7342C176.013 63.0452 175.844 63.4021 175.754 63.7821C175.664 64.1622 175.654 64.5569 175.725 64.941C175.796 65.3251 175.946 65.6901 176.167 66.0126C176.362 66.2724 176.577 66.5161 176.812 66.7413Z" fill="#FAFAFA"/>
<path d="M214.194 87.1738H139.94C136.334 87.1738 133.41 90.0977 133.41 93.7044V94.5032C133.41 98.1099 136.334 101.034 139.94 101.034H214.194C217.801 101.034 220.725 98.1099 220.725 94.5032V93.7044C220.725 90.0977 217.801 87.1738 214.194 87.1738Z" fill="#F5F5F5"/>
<path d="M214.832 106.177H140.578C136.971 106.177 134.048 109.101 134.048 112.708V113.506C134.048 117.113 136.971 120.037 140.578 120.037H214.832C218.439 120.037 221.362 117.113 221.362 113.506V112.708C221.362 109.101 218.439 106.177 214.832 106.177Z" fill="#F5F5F5"/>
<path d="M147.207 93.9918V91.9878H148.041V93.9638C148.041 94.6645 148.335 94.9238 148.839 94.9238C149.344 94.9238 149.638 94.6435 149.638 93.9638V91.9878H150.458V93.9918C150.458 94.423 150.287 94.8364 149.982 95.1413C149.677 95.4462 149.264 95.6175 148.832 95.6175C148.401 95.6175 147.988 95.4462 147.683 95.1413C147.378 94.8364 147.207 94.423 147.207 93.9918Z" fill="#101317"/>
<path d="M150.956 95.3161L151.215 94.7415C151.505 94.9144 151.837 95.0063 152.175 95.0077C152.546 95.0077 152.679 94.9096 152.679 94.7555C152.679 94.307 151.019 94.7555 151.019 93.6694C151.019 93.1439 151.488 92.7725 152.294 92.7725C152.661 92.7666 153.025 92.8508 153.352 93.0177L153.086 93.5853C152.845 93.4479 152.571 93.3777 152.294 93.3821C151.937 93.3821 151.782 93.4942 151.782 93.6344C151.782 94.1038 153.443 93.6344 153.443 94.7345C153.443 95.246 152.974 95.6104 152.147 95.6104C151.731 95.6196 151.32 95.518 150.956 95.3161Z" fill="#101317"/>
<path d="M156.624 94.419H154.522C154.565 94.5913 154.669 94.7423 154.814 94.844C154.96 94.9457 155.137 94.9914 155.314 94.9726C155.443 94.9783 155.571 94.9576 155.692 94.9118C155.812 94.866 155.922 94.7961 156.015 94.7063L156.442 95.1688C156.296 95.3199 156.119 95.4376 155.923 95.5138C155.727 95.59 155.517 95.6229 155.307 95.6102C155.109 95.6352 154.907 95.6175 154.717 95.5584C154.526 95.4992 154.35 95.4 154.201 95.2673C154.051 95.1345 153.932 94.9715 153.851 94.7889C153.77 94.6064 153.729 94.4086 153.73 94.2088C153.73 94.0187 153.769 93.8306 153.843 93.6558C153.918 93.4811 154.028 93.3234 154.165 93.1923C154.303 93.0612 154.466 92.9595 154.644 92.8933C154.822 92.8271 155.012 92.7979 155.202 92.8074C155.389 92.8027 155.575 92.8355 155.749 92.9039C155.923 92.9722 156.082 93.0747 156.215 93.2053C156.349 93.3359 156.456 93.492 156.528 93.6643C156.601 93.8367 156.638 94.0218 156.638 94.2088C156.638 94.2649 156.624 94.349 156.624 94.419ZM154.522 93.9496H155.874C155.834 93.8011 155.746 93.6701 155.624 93.5767C155.502 93.4832 155.352 93.4326 155.198 93.4326C155.044 93.4326 154.895 93.4832 154.773 93.5767C154.651 93.6701 154.562 93.8011 154.522 93.9496Z" fill="#101317"/>
<path d="M158.909 92.7726V93.5153H158.726C158.628 93.5148 158.531 93.535 158.441 93.5745C158.351 93.614 158.27 93.672 158.204 93.7447C158.138 93.8173 158.088 93.9031 158.057 93.9964C158.027 94.0896 158.016 94.1883 158.026 94.2861V95.5824H157.227V92.8286H157.991V93.1509C158.103 93.0203 158.245 92.918 158.404 92.8523C158.564 92.7866 158.737 92.7593 158.909 92.7726Z" fill="#101317"/>
<path d="M162.174 93.9917V95.5683H161.375V94.1178C161.375 93.6694 161.172 93.4662 160.815 93.4662C160.457 93.4662 160.156 93.7044 160.156 94.2089V95.5683H159.357V92.8145H160.121V93.1509C160.239 93.0304 160.381 92.9357 160.538 92.873C160.695 92.8103 160.863 92.7808 161.032 92.7865C161.19 92.7761 161.348 92.8007 161.496 92.8585C161.644 92.9163 161.777 93.0059 161.886 93.121C161.995 93.2361 162.077 93.3737 162.127 93.5242C162.177 93.6747 162.193 93.8343 162.174 93.9917Z" fill="#101317"/>
<path d="M165.334 93.9987V95.5683H164.584V95.253C164.492 95.387 164.365 95.4936 164.217 95.5614C164.069 95.6292 163.905 95.6558 163.743 95.6384C163.099 95.6384 162.713 95.281 162.713 94.8045C162.713 94.3281 163.057 93.9777 163.898 93.9777H164.514C164.514 93.6414 164.311 93.4382 163.877 93.4382C163.592 93.4371 163.314 93.5281 163.085 93.6974L162.797 93.1369C163.152 92.9077 163.567 92.7905 163.989 92.8005C164.844 92.7725 165.334 93.1509 165.334 93.9987ZM164.535 94.6994V94.4191H163.989C163.61 94.4191 163.498 94.5593 163.498 94.7415C163.498 94.9237 163.666 95.0778 163.947 95.0778C164.069 95.0815 164.189 95.047 164.291 94.9792C164.393 94.9114 164.471 94.8136 164.514 94.6994H164.535Z" fill="#101317"/>
<path d="M170.708 93.9917V95.5682H169.91V94.1178C169.91 93.6693 169.713 93.4661 169.391 93.4661C169.069 93.4661 168.782 93.6974 168.782 94.1668V95.5682H168.018V94.1178C168.018 93.6693 167.829 93.4661 167.492 93.4661C167.156 93.4661 166.89 93.6974 166.89 94.1668V95.5682H166.056V92.8145H166.82V93.1508C166.928 93.0308 167.061 92.9361 167.21 92.8731C167.359 92.8102 167.52 92.7806 167.681 92.7864C167.859 92.7783 168.037 92.8158 168.196 92.8956C168.356 92.9753 168.492 93.0945 168.592 93.2419C168.711 93.0937 168.863 92.9754 169.036 92.8963C169.209 92.8172 169.397 92.7796 169.587 92.7864C169.744 92.7768 169.902 92.802 170.048 92.8604C170.194 92.9188 170.326 93.0088 170.433 93.1241C170.54 93.2393 170.62 93.3769 170.668 93.5269C170.716 93.6769 170.729 93.8357 170.708 93.9917Z" fill="#101317"/>
<path d="M174.142 94.419H172.04C172.075 94.5939 172.177 94.7485 172.322 94.8514C172.468 94.9543 172.648 94.9976 172.825 94.9726C172.953 94.9779 173.082 94.957 173.202 94.9113C173.323 94.8655 173.432 94.7958 173.525 94.7063L173.946 95.1688C173.8 95.3207 173.623 95.4389 173.427 95.5151C173.231 95.5914 173.02 95.6238 172.811 95.6102C172.613 95.6341 172.412 95.6156 172.222 95.556C172.033 95.4964 171.857 95.3969 171.709 95.2643C171.56 95.1317 171.442 94.969 171.361 94.787C171.28 94.605 171.24 94.4079 171.241 94.2088C171.241 94.0187 171.279 93.8306 171.354 93.6558C171.429 93.4811 171.538 93.3234 171.676 93.1923C171.814 93.0612 171.976 92.9595 172.155 92.8933C172.333 92.8271 172.523 92.7979 172.712 92.8074C173.084 92.8074 173.441 92.9551 173.703 93.2179C173.966 93.4807 174.114 93.8372 174.114 94.2088C174.156 94.2649 174.149 94.349 174.142 94.419ZM172.04 93.9496H173.399C173.376 93.7836 173.291 93.6325 173.161 93.5271C173.031 93.4216 172.865 93.3698 172.698 93.382C172.539 93.3791 172.384 93.4356 172.263 93.5404C172.143 93.6453 172.066 93.7911 172.047 93.9496H172.04Z" fill="#101317"/>
<path d="M179.425 94.1668C179.425 95.0847 179.005 95.6103 178.374 95.6103C178.225 95.6202 178.076 95.582 177.95 95.5013C177.824 95.4206 177.727 95.3016 177.673 95.1618C177.58 95.3076 177.45 95.426 177.296 95.5048C177.142 95.5836 176.97 95.62 176.798 95.6103C176.477 95.5769 176.18 95.4259 175.964 95.1865C175.749 94.9471 175.629 94.6363 175.629 94.314C175.629 93.9917 175.749 93.6808 175.964 93.4414C176.18 93.202 176.477 93.051 176.798 93.0176C176.946 93.0107 177.094 93.0381 177.23 93.0977C177.366 93.1572 177.487 93.2473 177.582 93.361V93.0597H178.283V94.7134C178.283 94.9586 178.388 95.0427 178.528 95.0427C178.668 95.0427 178.907 94.7694 178.907 94.1808C178.91 93.9363 178.861 93.6939 178.765 93.4693C178.668 93.2447 178.525 93.0429 178.345 92.8771C178.166 92.7113 177.953 92.5851 177.721 92.5067C177.49 92.4283 177.244 92.3994 177.001 92.4221C176.508 92.4221 176.036 92.6177 175.688 92.9659C175.34 93.3141 175.144 93.7864 175.144 94.2789C175.144 94.7714 175.34 95.2437 175.688 95.5919C176.036 95.9402 176.508 96.1358 177.001 96.1358C177.349 96.1353 177.694 96.0588 178.01 95.9116L178.171 96.381C177.804 96.5488 177.404 96.6326 177.001 96.6263C176.682 96.6437 176.363 96.596 176.064 96.4861C175.764 96.3762 175.49 96.2063 175.259 95.987C175.027 95.7676 174.842 95.5033 174.716 95.2103C174.59 94.9172 174.525 94.6015 174.525 94.2824C174.525 93.9634 174.59 93.6477 174.716 93.3546C174.842 93.0615 175.027 92.7972 175.259 92.5779C175.49 92.3585 175.764 92.1887 176.064 92.0788C176.363 91.9688 176.682 91.9211 177.001 91.9386C177.309 91.9134 177.619 91.9523 177.912 92.0528C178.204 92.1533 178.473 92.3132 178.7 92.5225C178.928 92.7318 179.11 92.9859 179.235 93.2689C179.359 93.5518 179.424 93.8576 179.425 94.1668ZM177.596 94.314C177.606 94.2243 177.597 94.1334 177.569 94.0476C177.541 93.9619 177.495 93.8831 177.434 93.8167C177.373 93.7502 177.298 93.6977 177.215 93.6626C177.132 93.6275 177.042 93.6107 176.952 93.6133C176.766 93.6133 176.588 93.6871 176.456 93.8185C176.325 93.9499 176.251 94.1281 176.251 94.314C176.251 94.4998 176.325 94.678 176.456 94.8094C176.588 94.9408 176.766 95.0147 176.952 95.0147C177.042 95.0172 177.132 95.0004 177.215 94.9653C177.298 94.9302 177.373 94.8777 177.434 94.8113C177.495 94.7448 177.541 94.6661 177.569 94.5803C177.597 94.4945 177.606 94.4037 177.596 94.314Z" fill="#101317"/>
<path d="M184.645 93.9916V95.5682H183.847V94.1178C183.847 93.6693 183.65 93.4661 183.328 93.4661C183.006 93.4661 182.719 93.6973 182.719 94.1668V95.5682H181.92V94.1178C181.92 93.6693 181.731 93.4661 181.394 93.4661C181.058 93.4661 180.792 93.6973 180.792 94.1668V95.5682H179.993V92.8145H180.757V93.1508C180.865 93.0308 180.998 92.936 181.147 92.8731C181.296 92.8101 181.457 92.7805 181.618 92.7864C181.797 92.7782 181.974 92.8158 182.133 92.8955C182.293 92.9753 182.429 93.0945 182.529 93.2419C182.647 93.0942 182.798 92.9762 182.969 92.8971C183.141 92.818 183.329 92.7801 183.517 92.7864C183.675 92.7756 183.833 92.8001 183.98 92.858C184.127 92.9159 184.26 93.0058 184.368 93.1212C184.476 93.2366 184.557 93.3745 184.605 93.5251C184.653 93.6756 184.667 93.835 184.645 93.9916Z" fill="#101317"/>
<path d="M187.799 93.9987V95.5683H187.056V95.253C186.963 95.387 186.836 95.4936 186.688 95.5614C186.54 95.6292 186.377 95.6558 186.215 95.6384C185.57 95.6384 185.185 95.281 185.185 94.8045C185.185 94.3281 185.528 93.9777 186.369 93.9777H187C187 93.6414 186.797 93.4382 186.369 93.4382C186.084 93.4346 185.805 93.5258 185.577 93.6974L185.29 93.1369C185.642 92.9091 186.055 92.792 186.474 92.8005C187.315 92.7725 187.799 93.1509 187.799 93.9987ZM187 94.6994V94.4191H186.453C186.082 94.4191 185.963 94.5593 185.963 94.7415C185.963 94.9237 186.131 95.0778 186.411 95.0778C186.537 95.086 186.662 95.0537 186.768 94.9856C186.874 94.9175 186.955 94.8172 187 94.6994Z" fill="#101317"/>
<path d="M188.429 91.9878C188.43 91.9248 188.444 91.8627 188.47 91.8054C188.496 91.748 188.533 91.6967 188.58 91.6545C188.627 91.6124 188.682 91.5804 188.741 91.5606C188.801 91.5407 188.864 91.5335 188.927 91.5393C189.013 91.5488 189.094 91.5829 189.161 91.6375C189.228 91.6922 189.278 91.7651 189.305 91.8474C189.331 91.9297 189.333 92.018 189.311 92.1015C189.288 92.185 189.242 92.2603 189.178 92.3182C189.114 92.3761 189.034 92.4142 188.949 92.4279C188.863 92.4416 188.776 92.4303 188.697 92.3953C188.618 92.3604 188.55 92.3034 188.503 92.231C188.455 92.1587 188.43 92.0742 188.429 91.9878ZM188.527 92.8146H189.319V95.5684H188.527V92.8146Z" fill="#101317"/>
<path d="M190.069 91.7495H190.868V95.5473H190.069V91.7495Z" fill="#101317"/>
<path d="M191.414 95.1127C191.414 94.9808 191.467 94.8543 191.56 94.761C191.653 94.6677 191.78 94.6152 191.912 94.6152C192.044 94.6152 192.17 94.6677 192.264 94.761C192.357 94.8543 192.409 94.9808 192.409 95.1127C192.409 95.2447 192.357 95.3712 192.264 95.4645C192.17 95.5578 192.044 95.6102 191.912 95.6102C191.78 95.6102 191.653 95.5578 191.56 95.4645C191.467 95.3712 191.414 95.2447 191.414 95.1127Z" fill="#101317"/>
<path d="M192.711 94.1949C192.71 93.9991 192.75 93.8052 192.828 93.6259C192.907 93.4466 193.022 93.2857 193.167 93.1537C193.312 93.0217 193.482 92.9214 193.668 92.8593C193.854 92.7973 194.05 92.7748 194.245 92.7934C194.497 92.7721 194.75 92.8277 194.97 92.9527C195.19 93.0778 195.368 93.2665 195.478 93.4942L194.862 93.8235C194.791 93.7191 194.694 93.6347 194.581 93.5784C194.468 93.5222 194.343 93.4959 194.217 93.5022C194.091 93.5085 193.968 93.5471 193.861 93.6144C193.755 93.6816 193.667 93.7752 193.607 93.8861C193.546 93.9971 193.516 94.1216 193.518 94.2478C193.519 94.374 193.554 94.4976 193.617 94.6068C193.681 94.7159 193.771 94.8069 193.88 94.871C193.989 94.935 194.112 94.97 194.238 94.9726C194.367 94.9729 194.493 94.9377 194.603 94.871C194.713 94.8043 194.803 94.7085 194.862 94.5943L195.478 94.9306C195.366 95.157 195.189 95.3446 194.969 95.4695C194.749 95.5943 194.497 95.6507 194.245 95.6313C194.047 95.6503 193.848 95.6269 193.659 95.5628C193.471 95.4987 193.299 95.3953 193.154 95.2594C193.009 95.1235 192.894 94.9584 192.818 94.7748C192.741 94.5913 192.705 94.3936 192.711 94.1949Z" fill="#101317"/>
<path d="M195.703 94.195C195.68 93.8919 195.749 93.589 195.901 93.3258C196.053 93.0626 196.281 92.8513 196.555 92.7193C196.829 92.5874 197.136 92.541 197.437 92.5861C197.737 92.6312 198.017 92.7658 198.24 92.9723C198.463 93.1788 198.619 93.4477 198.687 93.7439C198.755 94.0401 198.732 94.35 198.622 94.6331C198.511 94.9163 198.318 95.1596 198.068 95.3314C197.817 95.5032 197.52 95.5955 197.216 95.5964C197.023 95.6119 196.829 95.5871 196.645 95.5237C196.462 95.4602 196.294 95.3595 196.152 95.2278C196.01 95.096 195.896 94.9362 195.819 94.7585C195.742 94.5807 195.702 94.3888 195.703 94.195ZM197.917 94.195C197.905 94.0597 197.853 93.931 197.769 93.8243C197.685 93.7177 197.572 93.6378 197.443 93.5943C197.315 93.5508 197.176 93.5456 197.045 93.5793C196.913 93.6131 196.794 93.6843 196.703 93.7843C196.611 93.8844 196.55 94.0089 196.528 94.1429C196.506 94.2768 196.523 94.4143 196.577 94.5387C196.631 94.6632 196.721 94.7691 196.834 94.8436C196.948 94.9182 197.08 94.9582 197.216 94.9587C197.314 94.9591 197.41 94.9391 197.5 94.9001C197.589 94.861 197.669 94.8036 197.735 94.7317C197.801 94.6598 197.852 94.5749 197.883 94.4825C197.914 94.3901 197.926 94.2921 197.917 94.195Z" fill="#101317"/>
<path d="M203.915 93.9916V95.5682H203.116V94.1178C203.116 93.6693 202.913 93.4661 202.591 93.4661C202.268 93.4661 201.981 93.6973 201.981 94.1668V95.5682H201.182V94.1178C201.182 93.6693 200.993 93.4661 200.664 93.4661C200.334 93.4661 200.061 93.6973 200.061 94.1668V95.5682H199.262V92.8145H200.019V93.1508C200.129 93.0306 200.263 92.9358 200.413 92.8729C200.563 92.81 200.725 92.7805 200.888 92.7864C201.065 92.7774 201.242 92.8147 201.4 92.8945C201.559 92.9744 201.694 93.0941 201.792 93.2419C201.911 93.0945 202.063 92.9767 202.236 92.8977C202.409 92.8187 202.597 92.7806 202.787 92.7864C202.944 92.7756 203.103 92.8001 203.25 92.858C203.397 92.9159 203.529 93.0058 203.637 93.1212C203.745 93.2366 203.826 93.3745 203.874 93.5251C203.922 93.6756 203.936 93.835 203.915 93.9916Z" fill="#101317"/>
<path d="M157.907 113.184L159.203 113.885L158.621 114.859L157.311 114.088V115.531H156.19V114.074L154.922 114.873L154.347 113.899L155.65 113.198L154.347 112.497L154.922 111.523L156.232 112.308V110.858H157.353V112.308L158.663 111.523L159.245 112.497L157.907 113.184Z" fill="#101317"/>
<path d="M163.309 113.184L164.605 113.885L164.024 114.873L162.713 114.102V115.545H161.599V114.088L160.31 114.873L159.735 113.899L161.032 113.198L159.735 112.497L160.31 111.523L161.62 112.308V110.858H162.734V112.308L164.045 111.523L164.626 112.497L163.309 113.184Z" fill="#101317"/>
<path d="M168.719 113.184L170.015 113.885L169.419 114.873L168.116 114.102V115.545H166.995V114.088L165.719 114.873L165.152 113.899L166.448 113.198L165.152 112.497L165.719 111.523L167.03 112.308V110.858H168.151V112.308L169.454 111.523L170.043 112.497L168.719 113.184Z" fill="#101317"/>
<path d="M174.107 113.184L175.403 113.885L174.822 114.859L173.511 114.088V115.531H172.39V114.074L171.122 114.873L170.547 113.899L171.851 113.198L170.547 112.497L171.122 111.523L172.432 112.308V110.858H173.553V112.308L174.864 111.523L175.445 112.497L174.107 113.184Z" fill="#101317"/>
<path d="M179.509 113.184L180.806 113.885L180.224 114.859L178.914 114.088V115.531H177.828V114.074L176.524 114.873L175.95 113.899L177.246 113.198L175.95 112.497L176.524 111.523L177.828 112.28V110.83H178.942V112.28L180.252 111.495L180.834 112.469L179.509 113.184Z" fill="#101317"/>
<path d="M184.912 113.184L186.208 113.885L185.626 114.859L184.316 114.088V115.531H183.195V114.074L181.92 114.873L181.352 113.899L182.648 113.198L181.352 112.497L181.92 111.523L183.23 112.308V110.858H184.351V112.308L185.662 111.523L186.243 112.497L184.912 113.184Z" fill="#101317"/>
<path d="M190.307 113.184L191.604 113.885L191.022 114.859L189.712 114.088V115.531H188.59V114.074L187.322 114.873L186.748 113.899L188.051 113.198L186.748 112.497L187.322 111.523L188.633 112.308V110.858H189.74V112.308L191.05 111.523L191.632 112.497L190.307 113.184Z" fill="#101317"/>
<path d="M195.71 113.184L197.006 113.885L196.424 114.859L195.114 114.088V115.531H194V114.074L192.725 114.873L192.15 113.899L193.446 113.198L192.15 112.497L192.725 111.523L194.035 112.308V110.858H195.149V112.308L196.459 111.523L197.041 112.497L195.71 113.184Z" fill="#101317"/>
<path d="M132.071 74.4773H77.4863C77.113 74.4773 76.7434 74.5509 76.3987 74.694C76.0539 74.837 75.7408 75.0467 75.4772 75.311C75.2135 75.5752 75.0047 75.8889 74.8625 76.234C74.7203 76.5791 74.6475 76.9489 74.6484 77.3222V102.183C74.6437 102.557 74.7139 102.928 74.8549 103.275C74.9958 103.621 75.2047 103.936 75.4691 104.2C75.7336 104.465 76.0483 104.674 76.3948 104.815C76.7412 104.956 77.1123 105.026 77.4863 105.021H100.385L105.248 111.264L109.305 105.021H132.071C132.444 105.021 132.813 104.948 133.157 104.805C133.502 104.662 133.814 104.453 134.078 104.19C134.341 103.926 134.55 103.613 134.693 103.269C134.836 102.925 134.909 102.556 134.909 102.183V77.3222C134.909 76.5689 134.61 75.8463 134.078 75.313C133.546 74.7797 132.825 74.4792 132.071 74.4773Z" fill="white"/>
<path d="M132.071 74.4773H132.338C132.604 74.5004 132.865 74.5593 133.115 74.6525C133.525 74.7992 133.894 75.0391 134.195 75.3532C134.624 75.8152 134.888 76.4067 134.944 77.0349C135 79.7396 134.986 83.6776 135.007 88.6666C135.007 91.1611 135.007 93.9149 135.007 96.8999C135.007 98.3994 135.007 99.948 135.007 101.56C135.026 101.972 135.008 102.384 134.951 102.793C134.865 103.218 134.688 103.62 134.433 103.97C134.171 104.329 133.831 104.625 133.44 104.836C133.048 105.047 132.614 105.168 132.17 105.189H109.27L109.411 105.119C108.135 107.074 106.762 109.197 105.361 111.355L105.227 111.559L105.073 111.369L100.21 105.133L100.351 105.203H78.3273C77.9279 105.203 77.5566 105.203 77.1291 105.203C76.5073 105.129 75.9236 104.864 75.4581 104.445C74.9927 104.026 74.6683 103.474 74.5295 102.863C74.4597 102.47 74.4338 102.07 74.4524 101.672V91.4064C74.4524 88.4214 74.4524 85.4948 74.4524 82.6265V77.3222C74.4527 76.953 74.5216 76.5871 74.6556 76.2431C74.9155 75.5594 75.413 74.9922 76.0571 74.6455C76.3788 74.4809 76.7279 74.3765 77.0871 74.3372C77.4326 74.3199 77.7787 74.3199 78.1241 74.3372H84.0871H91.6407H105.192L124.812 74.3932L130.145 74.4283L124.812 74.4633L105.192 74.5194H91.6407H78.1802C77.8439 74.5194 77.4795 74.5194 77.1782 74.5194C76.8599 74.5559 76.551 74.6509 76.2673 74.7997C75.6878 75.0965 75.2367 75.5949 74.999 76.2011C74.8788 76.5069 74.817 76.8325 74.8168 77.161V78.2121C74.8168 79.6135 74.8168 81.0149 74.8168 82.4654V91.2452C74.8168 94.2255 74.8168 97.2619 74.8168 100.354V101.518C74.7946 101.89 74.8158 102.264 74.8799 102.632C75.0034 103.168 75.2898 103.654 75.7001 104.021C76.1103 104.389 76.6241 104.621 77.1712 104.685C77.5285 104.72 77.942 104.685 78.3273 104.685H100.47L100.526 104.755L105.389 110.991H105.101L109.158 104.755L109.207 104.678H109.306H132.191C132.593 104.664 132.988 104.559 133.344 104.369C133.7 104.18 134.008 103.911 134.244 103.585C134.481 103.27 134.644 102.906 134.72 102.52C134.774 102.127 134.793 101.731 134.776 101.335C134.776 99.7237 134.776 98.1752 134.776 96.6757C134.776 93.6907 134.776 90.9369 134.776 88.4424C134.776 83.4674 134.776 79.5294 134.811 76.8177C134.749 76.2316 134.504 75.6799 134.11 75.2411C133.823 74.9197 133.466 74.6681 133.066 74.5054C132.738 74.4487 132.403 74.4393 132.071 74.4773Z" fill="#101317"/>
<path d="M94.5555 81.4983V82.4162H93.9599V81.4913L92.9509 79.8376H93.5885L94.2892 80.9868L94.9899 79.8376H95.5785L94.5555 81.4983Z" fill="#101317"/>
<path d="M95.5505 81.12C95.5379 80.8405 95.6093 80.5636 95.7554 80.325C95.9015 80.0864 96.1158 79.897 96.3705 79.7812C96.6252 79.6654 96.9087 79.6285 97.1846 79.6752C97.4605 79.7219 97.716 79.8502 97.9184 80.0434C98.1207 80.2367 98.2606 80.4861 98.32 80.7595C98.3793 81.0329 98.3555 81.3179 98.2516 81.5776C98.1476 81.8374 97.9683 82.0601 97.7366 82.2171C97.505 82.374 97.2317 82.4581 96.9519 82.4583C96.7709 82.4669 96.5901 82.4386 96.4204 82.3752C96.2506 82.3117 96.0955 82.2145 95.9645 82.0894C95.8335 81.9642 95.7292 81.8138 95.6581 81.6472C95.5869 81.4805 95.5503 81.3012 95.5505 81.12ZM97.7787 81.12C97.7773 80.9595 97.7285 80.8031 97.6384 80.6703C97.5482 80.5376 97.4208 80.4345 97.2721 80.3741C97.1235 80.3136 96.9603 80.2985 96.8031 80.3307C96.6459 80.3628 96.5017 80.4408 96.3887 80.5547C96.2758 80.6687 96.199 80.8135 96.1682 80.971C96.1374 81.1285 96.1539 81.2915 96.2157 81.4397C96.2774 81.5878 96.3816 81.7143 96.5151 81.8033C96.6486 81.8923 96.8055 81.9398 96.9659 81.9398C97.0741 81.9428 97.1816 81.9235 97.2821 81.8833C97.3825 81.843 97.4736 81.7826 97.5497 81.7058C97.6259 81.629 97.6855 81.5374 97.7249 81.4366C97.7643 81.3359 97.7826 81.2281 97.7787 81.12Z" fill="#101317"/>
<path d="M98.8228 81.2741V79.8376H99.4254V81.2391C99.4254 81.7296 99.6426 81.9398 100 81.9398C100.357 81.9398 100.582 81.7366 100.582 81.2391V79.8376H101.177V81.2881C101.177 81.6003 101.053 81.8997 100.832 82.1205C100.612 82.3413 100.312 82.4653 100 82.4653C99.6878 82.4653 99.3883 82.3413 99.1676 82.1205C98.9468 81.8997 98.8228 81.6003 98.8228 81.2881V81.2741Z" fill="#101317"/>
<path d="M103.426 82.4162L102.929 81.7155H102.375V82.4162H101.773V79.8376H102.894C103.595 79.8376 104.022 80.195 104.022 80.7766C104.03 80.9517 103.983 81.1249 103.887 81.2718C103.792 81.4188 103.653 81.5323 103.489 81.5964L104.071 82.4303L103.426 82.4162ZM102.866 80.3141H102.375V81.2391H102.866C103.23 81.2391 103.412 81.0639 103.412 80.7836C103.412 80.5033 103.23 80.3071 102.852 80.3071L102.866 80.3141Z" fill="#101317"/>
<path d="M105.388 81.1199C105.391 80.8326 105.481 80.5528 105.648 80.3187C105.815 80.0845 106.049 79.9072 106.32 79.8109C106.591 79.7145 106.884 79.7037 107.162 79.7799C107.439 79.8562 107.686 80.0158 107.869 80.237L107.484 80.5944C107.404 80.4966 107.304 80.4181 107.19 80.3647C107.075 80.3113 106.951 80.2844 106.825 80.2861C106.618 80.3051 106.425 80.4008 106.285 80.5545C106.145 80.7081 106.067 80.9085 106.067 81.1164C106.067 81.3244 106.145 81.5248 106.285 81.6784C106.425 81.832 106.618 81.9277 106.825 81.9468C106.95 81.9498 107.075 81.9243 107.189 81.8721C107.303 81.8199 107.404 81.7424 107.484 81.6455L107.869 81.9958C107.686 82.2167 107.44 82.3761 107.163 82.4525C106.887 82.529 106.594 82.5187 106.323 82.4232C106.053 82.3278 105.818 82.1516 105.651 81.9185C105.484 81.6854 105.392 81.4067 105.388 81.1199Z" fill="#101317"/>
<path d="M108.058 81.12C108.045 80.8405 108.117 80.5636 108.263 80.325C108.409 80.0864 108.623 79.897 108.878 79.7812C109.133 79.6654 109.416 79.6285 109.692 79.6752C109.968 79.7219 110.224 79.8502 110.426 80.0434C110.628 80.2367 110.768 80.4861 110.828 80.7595C110.887 81.0329 110.863 81.3179 110.759 81.5776C110.655 81.8374 110.476 82.0601 110.244 82.2171C110.013 82.374 109.739 82.4581 109.459 82.4583C109.278 82.4669 109.098 82.4386 108.928 82.3752C108.758 82.3117 108.603 82.2145 108.472 82.0894C108.341 81.9642 108.237 81.8138 108.166 81.6472C108.094 81.4805 108.058 81.3012 108.058 81.12ZM110.286 81.12C110.284 80.9599 110.234 80.8041 110.143 80.6723C110.052 80.5405 109.924 80.4385 109.775 80.3791C109.626 80.3197 109.463 80.3056 109.307 80.3386C109.15 80.3715 109.006 80.45 108.894 80.5642C108.782 80.6784 108.706 80.8232 108.675 80.9805C108.645 81.1378 108.662 81.3005 108.724 81.4482C108.786 81.5959 108.89 81.722 109.023 81.8108C109.157 81.8995 109.313 81.9468 109.473 81.9468C109.582 81.9498 109.69 81.9304 109.791 81.8897C109.892 81.849 109.984 81.788 110.06 81.7104C110.136 81.6328 110.196 81.5404 110.235 81.4388C110.274 81.3372 110.291 81.2287 110.286 81.12Z" fill="#101317"/>
<path d="M111.351 79.8378H112.536C112.717 79.8189 112.901 79.8384 113.074 79.8949C113.248 79.9514 113.408 80.0438 113.543 80.166C113.679 80.2882 113.787 80.4375 113.861 80.6043C113.936 80.7711 113.974 80.9516 113.974 81.1341C113.974 81.3167 113.936 81.4972 113.861 81.6639C113.787 81.8307 113.679 81.98 113.543 82.1022C113.408 82.2245 113.248 82.3168 113.074 82.3734C112.901 82.4299 112.717 82.4493 112.536 82.4304H111.351V79.8378ZM112.501 81.9399C112.714 81.9399 112.919 81.855 113.07 81.7039C113.221 81.5528 113.306 81.3478 113.306 81.1341C113.306 80.9204 113.221 80.7155 113.07 80.5643C112.919 80.4132 112.714 80.3283 112.501 80.3283H111.961V81.9399H112.501Z" fill="#101317"/>
<path d="M116.432 81.9398V82.4233H114.421V79.8376H116.382V80.3141H115.016V80.8817H116.221V81.3512H115.016V81.9398H116.432Z" fill="#101317"/>
<path d="M126.746 85.1421H82.8187C81.4449 85.1421 80.3312 86.2558 80.3312 87.6296V96.9069C80.3312 98.2807 81.4449 99.3944 82.8187 99.3944H126.746C128.12 99.3944 129.233 98.2807 129.233 96.9069V87.6296C129.233 86.2558 128.12 85.1421 126.746 85.1421Z" fill="#F5F5F5"/>
<path d="M90.2392 93.1511C90.2404 93.4444 90.1803 93.7348 90.0626 94.0036C89.9449 94.2723 89.7723 94.5134 89.5558 94.7114C89.3393 94.9094 89.0838 95.0599 88.8057 95.1532C88.5275 95.2465 88.2329 95.2806 87.9408 95.2532C86.133 95.2532 85.1731 93.9499 85.1731 91.7917C85.1731 89.4513 86.4133 88.2531 88.2421 88.2531C88.7848 88.2296 89.3241 88.3505 89.8047 88.6035L89.6015 89.0099C89.1859 88.7822 88.7156 88.6731 88.2421 88.6946C86.6936 88.6946 85.6776 89.7106 85.6776 91.7146C85.6754 91.9912 85.6941 92.2677 85.7336 92.5415C85.8982 92.1005 86.202 91.7251 86.599 91.4722C86.996 91.2193 87.4646 91.1027 87.9338 91.14C89.3423 91.091 90.2392 91.8968 90.2392 93.1511ZM89.7347 93.1511C89.7347 92.1631 89.0339 91.5254 87.8638 91.5254C87.6288 91.5013 87.3913 91.5254 87.166 91.5962C86.9406 91.667 86.732 91.783 86.553 91.9371C86.3739 92.0912 86.2282 92.2802 86.1247 92.4926C86.0211 92.7049 85.962 92.9361 85.9508 93.1721C85.9508 93.9779 86.6515 94.7907 87.9268 94.7907C88.1582 94.8198 88.3932 94.7989 88.6159 94.7295C88.8385 94.6601 89.0438 94.5438 89.2177 94.3885C89.3917 94.2331 89.5303 94.0423 89.6243 93.8288C89.7183 93.6154 89.7655 93.3843 89.7627 93.1511H89.7347Z" fill="#3085FE"/>
<path d="M99.4254 93.2632H97.982V95.1761H97.4845V93.2632H93.5535V92.8988L97.3023 88.2742H97.8628L94.1841 92.8147H97.4985V91.133H97.982V92.8147H99.4254V93.2632Z" fill="#3085FE"/>
<path d="M107.091 93.2281C107.091 94.3773 106.264 95.2251 104.674 95.2251C104.226 95.2424 103.78 95.1687 103.362 95.0085C102.944 94.8483 102.563 94.605 102.242 94.2932L102.494 93.9078C102.781 94.1902 103.122 94.4111 103.496 94.5569C103.871 94.7027 104.272 94.7703 104.674 94.7556C105.914 94.7556 106.58 94.1671 106.58 93.2281C106.58 92.2892 105.949 91.7006 104.569 91.7006H104.134V91.3362L106.173 88.7226H102.494V88.2461H106.825V88.5964L104.723 91.2521C106.355 91.3152 107.091 92.107 107.091 93.2281Z" fill="#3085FE"/>
<path d="M115.465 88.2461V88.5964L112.501 95.148H111.947L114.883 88.6945H111.008V90.0189H110.518V88.2461H115.465Z" fill="#3085FE"/>
<path d="M118.968 91.7496C118.968 89.5914 120.082 88.2461 121.666 88.2461C123.249 88.2461 124.37 89.5844 124.37 91.7496C124.37 93.9148 123.256 95.2531 121.666 95.2531C120.075 95.2531 118.968 93.8517 118.968 91.7496ZM123.873 91.7496C123.873 89.8297 122.976 88.7156 121.673 88.7156C120.369 88.7156 119.473 89.8297 119.473 91.7496C119.473 93.6696 120.369 94.7837 121.673 94.7837C122.976 94.7837 123.873 93.6415 123.873 91.7496Z" fill="#3085FE"/>
<path d="M269.2 272.195C278.372 268.299 288.995 260.641 293.724 251.244C283.546 255.469 274.962 262.802 269.2 272.195Z" fill="#101317"/>
<path d="M271.155 257.614C280.327 253.725 290.95 246.066 295.679 236.67C285.499 240.888 276.914 248.219 271.155 257.614Z" fill="#101317"/>
<path d="M273.824 243.438C283.004 239.543 293.619 231.884 298.349 222.494C288.17 226.714 279.585 234.045 273.824 243.438Z" fill="#101317"/>
<path d="M277.132 228.598C285.785 223.482 295.434 214.373 299.05 204.437C289.434 210.04 281.785 218.479 277.153 228.598" fill="#101317"/>
<path d="M280.691 217.239C286.998 208.992 292.877 196.715 292.799 186.079C285.79 195.05 281.579 205.888 280.691 217.239Z" fill="#101317"/>
<path d="M278.926 222.641C277.65 211.486 273.32 197.465 265.948 189.099C267.193 201.24 271.675 212.824 278.926 222.641Z" fill="#101317"/>
<path d="M275.962 234.841C273.719 223.342 268.044 209.118 259.677 201.053C261.968 213.575 267.593 225.248 275.962 234.841Z" fill="#101317"/>
<path d="M272.556 249.717C270.321 238.197 264.631 223.994 256.307 215.929C258.597 228.451 264.223 240.124 272.591 249.717" fill="#101317"/>
<path d="M269.823 267.984C267.574 256.486 261.898 242.261 253.539 234.196C255.83 246.719 261.455 258.391 269.823 267.984Z" fill="#101317"/>
<path d="M281.119 215.074C281.085 215.127 281.061 215.187 281.049 215.249C281 215.382 280.944 215.55 280.873 215.76C280.719 216.244 280.502 216.91 280.236 217.75C279.682 219.481 278.939 221.997 278.064 225.122C277.188 228.247 276.221 231.982 275.226 236.151C274.231 240.32 273.25 244.938 272.325 249.801C271.4 254.664 270.678 259.33 270.069 263.577C269.459 267.823 269.025 271.663 268.709 274.886C268.394 278.109 268.17 280.73 268.058 282.545C268.001 283.428 267.959 284.121 267.924 284.647C267.924 284.871 267.924 285.046 267.924 285.193C267.915 285.254 267.915 285.315 267.924 285.375C267.946 285.317 267.958 285.256 267.959 285.193C267.959 285.053 267.959 284.871 268.016 284.654C268.065 284.149 268.135 283.456 268.219 282.552C268.373 280.751 268.632 278.137 268.982 274.914C269.333 271.691 269.816 267.865 270.419 263.626C271.022 259.386 271.82 254.734 272.703 249.871C273.586 245.008 274.609 240.404 275.569 236.228C276.529 232.052 277.482 228.317 278.33 225.185C279.178 222.053 279.878 219.53 280.39 217.792L280.965 215.781C281.021 215.571 281.063 215.396 281.105 215.256C281.117 215.196 281.122 215.135 281.119 215.074Z" fill="#101317"/>
<path d="M264.715 278.264C268.604 270.121 271.435 258.644 269.529 249.724C265.181 258.566 263.508 268.485 264.715 278.264Z" fill="#455A64"/>
<path d="M258.262 267.718C262.151 259.569 264.981 248.098 263.069 239.178C258.719 248.02 257.048 257.94 258.262 267.718Z" fill="#455A64"/>
<path d="M252.46 256.99C256.349 248.841 259.18 237.37 257.267 228.45C252.917 237.292 251.246 247.212 252.46 256.99Z" fill="#455A64"/>
<path d="M246.742 245.421C249.636 236.803 251.087 225.045 248.144 216.447C244.879 225.765 244.392 235.832 246.742 245.421Z" fill="#455A64"/>
<path d="M242.993 235.948C242.706 226.776 240.008 215.284 234.312 208.508C234.439 218.31 237.459 227.856 242.993 235.948Z" fill="#455A64"/>
<path d="M244.738 240.495C237.99 234.133 227.732 227.806 218.511 226.979C225.723 233.98 234.851 238.684 244.738 240.495Z" fill="#455A64"/>
<path d="M249.3 250.151C241.739 244.153 230.5 238.533 220.788 238.512C228.929 245.131 238.853 249.181 249.3 250.151Z" fill="#455A64"/>
<path d="M254.975 261.79C247.415 255.799 236.183 250.172 226.471 250.151C234.61 256.768 244.531 260.819 254.975 261.79Z" fill="#455A64"/>
<path d="M262.9 275.187C255.34 269.189 244.101 263.57 234.389 263.542C242.528 270.165 252.452 274.218 262.9 275.187Z" fill="#455A64"/>
<path d="M242.139 234.287C242.139 234.287 242.139 234.336 242.181 234.434L242.335 234.869L242.965 236.515C243.519 237.917 244.367 240.019 245.439 242.527C247.597 247.565 250.799 254.439 254.772 261.825C256.762 265.504 258.759 268.965 260.623 272.069C262.487 275.173 264.26 277.934 265.78 280.218C267.301 282.503 268.583 284.331 269.452 285.579L270.489 286.98L270.762 287.345C270.825 287.429 270.86 287.471 270.867 287.464C270.845 287.415 270.819 287.368 270.79 287.323L270.545 286.938C270.3 286.581 269.978 286.09 269.564 285.474C268.695 284.205 267.462 282.355 265.984 280.057C264.505 277.759 262.76 274.984 260.896 271.88C259.033 268.776 257.064 265.307 255.074 261.629C251.101 254.313 247.898 247.446 245.663 242.401C244.556 239.893 243.68 237.854 243.092 236.438L242.391 234.813L242.202 234.392C242.184 234.355 242.163 234.32 242.139 234.287Z" fill="#101317"/>
<path d="M246.203 279.251H284.853V286.7H280.88L277.538 307.945H253.644L250.204 286.7H246.203V279.251Z" fill="#3085FE"/>
<path d="M246.203 286.546C246.203 286.448 254.793 286.364 265.388 286.364C275.983 286.364 284.573 286.448 284.573 286.546C284.573 286.644 275.99 286.721 265.388 286.721C254.786 286.721 246.203 286.644 246.203 286.546Z" fill="#101317"/>
<path d="M24.8004 307.959H18.5291L16.2028 279.714H23.5882L24.8004 307.959Z" fill="#101317"/>
<path d="M79.1751 307.959H85.4465L87.7728 279.714H80.3874L79.1751 307.959Z" fill="#101317"/>
<path d="M92.0821 283.294L11.3328 285.186L8.88036 233.033C8.8225 231.823 9.01091 230.614 9.43417 229.479C9.85743 228.344 10.5067 227.306 11.3427 226.43C12.1787 225.553 13.184 224.856 14.2976 224.379C15.4112 223.902 16.61 223.657 17.8214 223.657H86.6236C87.8516 223.657 89.0664 223.91 90.1926 224.399C91.3189 224.888 92.3324 225.604 93.1703 226.502C94.0082 227.4 94.6525 228.46 95.0632 229.617C95.4739 230.774 95.6422 232.004 95.5576 233.229L92.0821 283.294Z" fill="#3085FE"/>
<path d="M96.2233 232.857H95.9991H95.3334L92.7898 232.899H83.4284C75.5245 232.899 64.6075 232.829 52.5553 233.11C40.4962 233.509 29.5652 233.439 21.6682 233.32C17.7163 233.257 14.514 233.18 12.3068 233.11L9.76326 233.026H9.1046C9.03016 233.035 8.9548 233.035 8.88037 233.026H9.1046H9.76326H12.3068L21.6682 233.117C29.5722 233.173 40.4892 233.201 52.5483 232.794C64.6075 232.521 75.5245 232.647 83.4284 232.703L92.7898 232.78L95.3334 232.815H95.9991L96.2233 232.857Z" fill="#101317"/>
<path d="M38.331 224.47C36.516 224.736 34.75 225.267 33.0897 226.047C31.4821 226.931 30.0154 228.051 28.7383 229.368C28.9955 228.88 29.3344 228.439 29.7404 228.065C31.6029 226.149 34.0467 224.902 36.6913 224.519C37.2307 224.406 37.7858 224.39 38.331 224.47Z" fill="#101317"/>
<path d="M71.5444 129.644L81.4104 147.673L95.8449 139.587L102.852 141.906C102.852 141.906 85.1662 161.119 82.2863 162.121C79.4064 163.123 73.9549 163.284 70.8437 159.381C68.0409 155.829 59.7446 137.19 59.7446 137.19L71.5444 129.644Z" fill="#FFBE9D"/>
<path d="M112.179 117.872C112.052 117.717 111.887 117.597 111.701 117.523C111.514 117.449 111.312 117.425 111.113 117.452L104.254 118.377C103.955 118.421 103.67 118.529 103.418 118.694C103.165 118.858 102.951 119.075 102.789 119.33L88.4877 141.297L89.5808 141.906L97.1904 141.668L112.396 118.146L112.179 117.872Z" fill="#101317"/>
<path d="M107.309 120.724C107.364 120.811 107.444 120.879 107.54 120.917C107.635 120.956 107.74 120.963 107.84 120.939C107.94 120.914 108.03 120.859 108.096 120.781C108.163 120.703 108.204 120.606 108.212 120.503C108.221 120.401 108.197 120.298 108.144 120.21C108.091 120.122 108.012 120.052 107.917 120.012C107.823 119.971 107.718 119.961 107.617 119.983C107.517 120.006 107.426 120.059 107.358 120.136C107.277 120.209 107.227 120.311 107.218 120.42C107.209 120.529 107.241 120.638 107.309 120.724Z" fill="white"/>
<path d="M112.396 118.146C111.96 118.268 111.514 118.354 111.064 118.405L107.421 118.972L104.905 119.337C104.692 119.356 104.486 119.422 104.301 119.531C104.117 119.641 103.959 119.789 103.84 119.967L103.027 121.229C101.899 122.959 100.673 124.858 99.3836 126.834C96.784 130.814 94.4156 134.409 92.6779 137.001L90.6108 140.099C90.3704 140.483 90.101 140.848 89.805 141.192C90.0023 140.779 90.2369 140.385 90.5057 140.015L92.4677 136.889C94.1423 134.255 96.4687 130.639 99.0683 126.659C100.372 124.676 101.612 122.784 102.74 121.053C103.027 120.626 103.308 120.206 103.574 119.792C103.723 119.578 103.918 119.398 104.145 119.268C104.371 119.137 104.624 119.058 104.884 119.035L107.414 118.713L111.078 118.279C111.513 118.2 111.954 118.155 112.396 118.146Z" fill="#455A64"/>
<path d="M104.765 125.986C104.765 125.986 104.155 125.881 103.819 127.555C103.483 129.23 102.418 134.037 102.418 134.037L99.2083 132.334L95.1863 132.86C95.1863 132.86 94.3104 133.666 94.955 134.107C95.5997 134.549 98.1362 134.997 98.1362 134.997L100.007 137.695L94.6327 135.102C94.6327 135.102 92.8389 135.572 93.3644 136.665C93.89 137.758 97.5126 141.184 97.5126 141.184L94.8219 140.981L91.6407 139.033C91.6407 139.033 90.6597 139.082 91.0241 139.916C91.3884 140.75 94.7238 143.777 94.7238 143.777L98.7599 145.739C98.7599 145.739 100.967 145.564 101.177 144.912C101.32 144.399 101.409 143.873 101.444 143.342C101.444 143.342 102.614 143.027 102.845 142.459C102.974 141.982 103 141.483 102.922 140.995C102.922 140.995 104.758 141.317 104.989 140.294C105.15 139.019 105.098 137.726 104.835 136.468C104.653 135.677 105.62 128.354 105.536 128.137C105.452 127.92 105.921 125.502 104.765 125.986Z" fill="#FFBE9D"/>
<path d="M101.282 144.926C100.963 145.117 100.603 145.228 100.231 145.248C98.4409 145.508 96.6187 145.075 95.1372 144.036C94.5837 143.637 94.3104 143.335 94.3454 143.272C94.3805 143.209 95.6978 144.274 97.6598 144.73C99.6217 145.185 101.261 144.8 101.282 144.926Z" fill="#EB996E"/>
<path d="M100.329 143.476C100.266 143.567 99.5446 143.195 98.7809 142.565C98.0171 141.934 97.5126 141.31 97.5897 141.233C97.6667 141.156 98.2904 141.633 99.0471 142.249C99.8039 142.866 100.392 143.377 100.329 143.476Z" fill="#EB996E"/>
<path d="M102.453 139.993C102.39 140.084 101.675 139.72 100.96 139.054C100.245 138.388 99.8249 137.716 99.909 137.653C99.9931 137.589 100.554 138.122 101.24 138.76C101.927 139.397 102.516 139.895 102.453 139.993Z" fill="#EB996E"/>
<path d="M104.688 137.183C104.576 137.232 104.169 136.483 103.532 135.649C102.894 134.815 102.27 134.247 102.34 134.135C102.411 134.023 103.181 134.514 103.854 135.396C104.315 135.888 104.607 136.514 104.688 137.183Z" fill="#EB996E"/>
<path d="M107.414 267.136C107.467 266.917 107.467 266.689 107.414 266.47C107.3 265.865 107.061 265.29 106.713 264.782C106.599 264.605 106.465 264.443 106.313 264.298C106.214 264.204 106.091 264.139 105.958 264.11C105.825 264.08 105.686 264.087 105.557 264.13C105.48 264.156 105.411 264.2 105.354 264.257C105.297 264.314 105.254 264.383 105.227 264.459C105.178 264.605 105.178 264.762 105.227 264.908C105.323 265.151 105.44 265.386 105.578 265.608C105.837 266.05 106.054 266.484 106.391 267.01C106.489 267.151 106.623 267.263 106.78 267.333C106.937 267.403 107.11 267.43 107.28 267.409C107.594 267.353 107.889 267.224 108.142 267.031C108.606 266.691 109.03 266.298 109.404 265.861C109.584 265.653 109.752 265.435 109.908 265.209C110.078 264.988 110.205 264.735 110.279 264.466C110.321 264.308 110.306 264.14 110.237 263.991C110.168 263.843 110.049 263.723 109.901 263.653C109.762 263.613 109.615 263.608 109.474 263.64C109.333 263.672 109.203 263.739 109.095 263.836C108.775 264.115 108.492 264.436 108.254 264.789C107.902 265.284 107.621 265.826 107.421 266.4C107.328 266.603 107.28 266.822 107.28 267.045C107.612 266.308 108.014 265.604 108.479 264.943C108.716 264.628 108.989 264.341 109.291 264.088C109.453 263.976 109.649 263.899 109.768 263.962C109.837 264.003 109.89 264.066 109.918 264.141C109.946 264.216 109.948 264.299 109.922 264.375C109.849 264.594 109.738 264.798 109.593 264.978C109.446 265.188 109.284 265.391 109.116 265.594C108.754 266.002 108.35 266.37 107.911 266.695C107.706 266.853 107.465 266.958 107.21 267.003C107.106 267.016 107 266.999 106.904 266.954C106.809 266.91 106.728 266.839 106.671 266.751C106.398 266.351 106.131 265.854 105.872 265.44C105.753 265.223 105.606 265.013 105.536 264.838C105.466 264.662 105.536 264.522 105.641 264.466C105.942 264.347 106.243 264.691 106.447 264.978C106.902 265.63 107.23 266.362 107.414 267.136Z" fill="#101317"/>
<path d="M90.1972 267.725L81.6486 286.258L67.8517 279.882L76.6946 256.948L90.1972 267.725Z" fill="#FFBE9D"/>
<path d="M83.2322 285.018L78.2362 294.548C78.2362 294.548 91.024 307.77 89.8258 310.727L59.7656 296.313L68.0199 277.205L83.2322 285.018Z" fill="#455A64"/>
<path d="M69.5965 288.788C69.2662 288.746 68.9317 288.823 68.6531 289.006C68.3745 289.188 68.1699 289.463 68.076 289.783C68.0126 290.112 68.0784 290.453 68.2598 290.735C68.4411 291.017 68.7241 291.218 69.05 291.296C69.4009 291.349 69.759 291.271 70.0553 291.075C70.3516 290.88 70.5651 290.582 70.6546 290.238C70.6844 289.888 70.5768 289.539 70.3546 289.266C70.1324 288.993 69.8129 288.816 69.4634 288.774" fill="#E0E0E0"/>
<g opacity="0.6">
<path d="M59.7936 296.313L61.0409 293.917L89.3984 308.632C89.3984 308.632 90.4565 309.851 89.8539 310.734L59.7936 296.313Z" fill="white"/>
</g>
<path d="M78.8248 294.625C78.7547 294.772 77.9839 294.484 77.038 294.625C76.092 294.765 75.4053 295.185 75.3002 295.059C75.1951 294.933 75.8188 294.197 76.9679 294.064C78.1171 293.931 78.9229 294.506 78.8248 294.625Z" fill="#101317"/>
<path d="M81.3543 297.442C81.3543 297.603 80.5625 297.547 79.7707 297.925C78.9789 298.303 78.5165 298.899 78.3693 298.822C78.2222 298.745 78.5305 297.869 79.5325 297.42C80.5345 296.972 81.4174 297.301 81.3543 297.442Z" fill="#101317"/>
<path d="M81.3333 302.073C81.1862 302.073 81.3333 301.211 82.0971 300.588C82.8609 299.964 83.7017 299.971 83.7017 300.125C83.7017 300.279 83.0781 300.504 82.4544 301.022C81.8308 301.541 81.4875 302.129 81.3333 302.073Z" fill="#101317"/>
<path d="M80.2612 290.96C80.1351 291.065 79.5605 290.54 78.7057 290.196C77.8508 289.853 77.073 289.804 77.059 289.643C77.045 289.481 77.9139 289.257 78.9159 289.643C79.9179 290.028 80.3873 290.876 80.2612 290.96Z" fill="#101317"/>
<path d="M86.0771 282.545L108.619 226.145C108.619 226.145 108.107 216.517 106.334 213.483C104.562 210.449 50.8736 192.714 50.8736 192.714C50.8736 192.714 37.2029 189.421 28.0797 192.714C18.9565 196.007 12.1246 207.429 13.3649 213.735C14.6051 220.042 19.9725 224.715 19.9725 224.715L59.4573 225.893L80.9759 233.74L66.4853 275.271L86.0771 282.545Z" fill="#101317"/>
<path d="M106.124 244.006L106.636 264.403L91.4375 264.782L89.2513 240.299L106.124 244.006Z" fill="#FFBE9D"/>
<path d="M107.54 262.581L107.259 273.337C107.259 273.337 124.567 279.552 124.777 282.741L91.4445 283.077L90.4145 262.287L107.54 262.581Z" fill="#455A64"/>
<path d="M96.938 271.999C96.6183 272.099 96.3471 272.315 96.1764 272.603C96.0057 272.891 95.9475 273.233 96.0131 273.561C96.1022 273.884 96.3116 274.161 96.5983 274.334C96.885 274.508 97.2273 274.565 97.5546 274.493C97.8925 274.385 98.1782 274.155 98.3567 273.849C98.5353 273.542 98.594 273.18 98.5216 272.833C98.3956 272.504 98.1465 272.238 97.8273 272.09C97.5081 271.942 97.1439 271.925 96.8119 272.041" fill="#E0E0E0"/>
<g opacity="0.6">
<path d="M91.4655 283.077L91.5285 280.372L123.467 281.073C123.467 281.073 124.952 281.704 124.798 282.755L91.4655 283.077Z" fill="white"/>
</g>
<path d="M107.799 273.162C107.799 273.323 106.979 273.407 106.187 273.94C105.396 274.472 104.968 275.159 104.821 275.096C104.674 275.033 104.905 274.087 105.879 273.463C106.853 272.84 107.834 273.015 107.799 273.162Z" fill="#101317"/>
<path d="M111.31 274.57C111.352 274.732 110.644 275.012 110.097 275.706C109.551 276.399 109.397 277.107 109.242 277.107C109.088 277.107 108.962 276.182 109.663 275.327C110.364 274.472 111.303 274.416 111.31 274.57Z" fill="#101317"/>
<path d="M113.363 278.74C113.215 278.775 112.984 277.962 113.363 277.065C113.741 276.168 114.533 275.811 114.603 275.944C114.673 276.077 114.203 276.56 113.902 277.296C113.601 278.032 113.496 278.719 113.363 278.74Z" fill="#101317"/>
<path d="M107.463 269.238C107.4 269.385 106.65 269.168 105.732 269.238C104.814 269.308 104.099 269.61 104.008 269.469C103.917 269.329 104.604 268.769 105.69 268.678C106.776 268.587 107.547 269.105 107.463 269.238Z" fill="#101317"/>
<path d="M97.2463 187.361C97.2463 187.361 106.355 186.66 107.364 196.512C108.374 206.364 109.369 252.484 109.369 252.484L88.1371 254.257L84.8438 207.148L50.9087 192.714C50.9087 192.714 91.1712 186.099 97.2463 187.361Z" fill="#101317"/>
<path d="M59.7306 174.033C59.7306 174.033 65.2521 189.526 64.2011 191.25C63.15 192.973 48.9467 200.078 48.9467 200.078L13.3929 213.735C13.3929 213.735 9.74225 207.926 9.74225 199.02C9.74225 190.114 22.1097 174.047 22.1097 174.047L59.7306 174.033Z" fill="#101317"/>
<path d="M49.1919 191.95C49.2447 191.987 49.301 192.017 49.3601 192.042L49.8646 192.273L51.8336 193.149L59.226 196.372L84.7387 207.352L84.6196 207.191C84.9419 211.843 85.3203 216.868 85.6496 222.067C86.5185 234.224 87.3173 245.428 87.9479 254.299V254.46H88.1091L103.609 253.101L107.876 252.702L108.99 252.589L109.368 252.533C109.24 252.523 109.111 252.523 108.983 252.533L107.869 252.603L103.595 252.919L88.0811 254.138L88.2562 254.285C87.6466 245.421 86.8548 234.21 86.042 222.053C85.6776 216.854 85.3413 211.829 84.991 207.177V207.065L84.8859 207.016L59.3171 196.155L51.8826 193.044L49.8926 192.224L49.3741 192.021C49.3153 191.992 49.2544 191.969 49.1919 191.95Z" fill="#455A64"/>
<path d="M20.9185 193.471C21.261 193.418 21.5969 193.328 21.9205 193.205L24.5972 192.336C27.5186 191.349 30.5127 190.592 33.5522 190.072C36.5931 189.576 39.6975 189.616 42.7245 190.192C45.0368 190.675 46.3681 191.334 46.3962 191.257C46.1089 191.062 45.7981 190.904 45.4712 190.787C44.603 190.422 43.7052 190.131 42.7875 189.918C39.7286 189.252 36.5711 189.171 33.4822 189.68C30.4182 190.198 27.4087 190.997 24.4921 192.069C23.371 192.469 22.4741 192.812 21.8505 193.057C21.529 193.169 21.2173 193.308 20.9185 193.471Z" fill="#455A64"/>
<path d="M25.9425 185.308C26.9786 185.244 28.0176 185.244 29.0537 185.308C30.0136 185.371 31.1558 185.518 32.4171 185.665C33.6783 185.812 35.0727 185.987 36.5162 186.261C38.9859 186.654 41.3532 187.532 43.4812 188.846C44.3303 189.437 45.138 190.086 45.8986 190.787C45.7592 190.541 45.5845 190.317 45.3801 190.121C44.8547 189.556 44.2697 189.048 43.6353 188.608C41.5081 187.202 39.1046 186.268 36.5863 185.868C35.1288 185.595 33.7274 185.434 32.4591 185.301C31.1908 185.167 30.0417 185.055 29.0677 185.027C28.3002 184.993 27.5312 185.026 26.7694 185.125C26.4865 185.146 26.208 185.208 25.9425 185.308Z" fill="#455A64"/>
<path d="M41.6455 60.8348C37.5604 60.1341 33.9378 61.7107 30.5113 64.016C27.0045 66.481 24.332 69.9561 22.8498 73.9782C21.3676 78.0003 21.1462 82.3786 22.215 86.5297C22.8067 88.6394 23.8196 90.6073 25.1924 92.315C26.5653 94.0226 28.2697 95.4346 30.203 96.4657C35.5214 99.1634 42.3252 98.2245 47.09 94.6229C51.8548 91.0212 54.5665 85.0722 54.7978 79.1092C55.0185 74.9737 53.9351 70.8733 51.7006 67.3864C50.5678 65.6638 49.0922 64.193 47.3658 63.0658C45.6395 61.9386 43.6994 61.1791 41.6665 60.8348" fill="#101317"/>
<path d="M30.0138 74.7438C30.6164 73.1742 30.3782 71.4294 30.6164 69.7688C31.142 66.1181 34.12 63.1891 37.4833 61.7667C40.6505 60.4424 44.4904 60.7297 48.3303 61.9629C50.9789 62.7657 53.3439 64.3067 55.1481 66.4054C56.2963 67.8293 57.0864 69.5077 57.4521 71.2999C57.8179 73.0921 57.7486 74.9458 57.2502 76.7057L38.5694 73.987C36.8177 75.4305 35.0239 76.909 32.9007 77.7148C32.2887 77.9832 31.6178 78.0894 30.9528 78.0231C30.6215 77.9837 30.3086 77.8497 30.0514 77.6372C29.7942 77.4248 29.6035 77.1427 29.5023 76.8249C29.3341 76.1172 29.7546 75.4235 30.0138 74.7438Z" fill="#101317"/>
<path d="M48.7297 67.1202L32.4173 70.5817C31.6612 70.6319 30.951 70.9618 30.425 71.5072C29.8991 72.0526 29.5951 72.7743 29.5724 73.5317L29.7686 108.84C29.7851 111.251 30.5926 113.59 32.0669 115.497L33.6225 117.501C37.175 122.077 44.3573 121.614 47.069 116.499C47.2349 116.208 47.3621 115.897 47.4474 115.574C47.4964 115.259 47.5805 115.048 47.5945 114.782L47.9098 111.335C48.064 108.196 48.092 105.028 48.092 105.028C48.092 105.028 54.7698 104.188 56.5005 95.5829C57.3483 91.3086 57.4044 84.2385 57.2643 78.4576C57.1171 73.2794 53.9289 66.7769 48.7297 67.1202Z" fill="#FFBE9D"/>
<path d="M54.7627 85.1144C54.7536 85.4031 54.632 85.6768 54.4238 85.8771C54.2156 86.0774 53.9375 86.1884 53.6486 86.1865C53.5067 86.1931 53.365 86.171 53.2319 86.1217C53.0987 86.0724 52.9769 85.9967 52.8735 85.8993C52.7702 85.8019 52.6876 85.6847 52.6305 85.5546C52.5735 85.4246 52.5432 85.2844 52.5415 85.1424C52.5523 84.8536 52.6742 84.5802 52.8818 84.3791C53.0894 84.1781 53.3666 84.0649 53.6556 84.0633C53.7978 84.0577 53.9397 84.0806 54.0729 84.1307C54.206 84.1809 54.3278 84.2572 54.431 84.3551C54.5342 84.4531 54.6168 84.5708 54.6737 84.7012C54.7307 84.8316 54.761 84.9721 54.7627 85.1144Z" fill="#101317"/>
<path d="M55.5756 82.0943C55.4284 82.2344 54.6156 81.5828 53.4174 81.5407C52.2192 81.4987 51.3153 82.0592 51.2032 81.9051C51.091 81.7509 51.2872 81.5828 51.6796 81.3235C52.211 80.9822 52.8357 80.8156 53.4664 80.847C54.086 80.8681 54.6826 81.0866 55.1692 81.4706C55.5265 81.7719 55.6456 82.0382 55.5756 82.0943Z" fill="#101317"/>
<path d="M44.0559 84.841C44.0486 85.131 43.9278 85.4065 43.7194 85.6083C43.5111 85.8101 43.2319 85.922 42.9418 85.9201C42.8005 85.9257 42.6596 85.903 42.5272 85.8532C42.3949 85.8035 42.2739 85.7277 42.1713 85.6304C42.0688 85.533 41.9868 85.4161 41.9302 85.2866C41.8735 85.157 41.8435 85.0174 41.8417 84.8761C41.849 84.5873 41.9689 84.3129 42.1757 84.1113C42.3826 83.9097 42.66 83.7969 42.9488 83.797C43.0904 83.7914 43.2317 83.8141 43.3645 83.8638C43.4972 83.9134 43.6187 83.9891 43.7218 84.0864C43.8249 84.1836 43.9076 84.3004 43.9649 84.43C44.0223 84.5596 44.0532 84.6993 44.0559 84.841Z" fill="#101317"/>
<path d="M44.2311 81.8069C44.0839 81.9471 43.2711 81.2884 42.0729 81.2464C40.8747 81.2043 39.9708 81.7649 39.8587 81.6177C39.7466 81.4706 39.9428 81.2954 40.3422 81.0291C40.8732 80.693 41.4941 80.5268 42.122 80.5527C42.7441 80.5776 43.3424 80.7983 43.8317 81.1833C44.182 81.4776 44.3012 81.7439 44.2311 81.8069Z" fill="#101317"/>
<path d="M47.8117 90.888C48.451 90.7233 49.1068 90.6317 49.7667 90.6148C50.075 90.6148 50.3623 90.5447 50.4254 90.3415C50.4613 90.0279 50.4028 89.7107 50.2572 89.4306C49.9979 88.6808 49.7247 87.896 49.4444 87.0692C48.3162 83.7128 47.5174 80.959 47.6506 80.917C47.7837 80.8749 48.8137 83.5587 49.9349 86.915C50.2011 87.7419 50.4604 88.5267 50.7056 89.2834C50.8856 89.6589 50.9254 90.0864 50.8178 90.4886C50.7684 90.5938 50.6962 90.6867 50.6066 90.7607C50.5169 90.8346 50.4119 90.8876 50.2992 90.9161C50.1287 90.9513 49.9548 90.9678 49.7807 90.9651C49.1239 91.0267 48.4617 91.0008 47.8117 90.888Z" fill="#101317"/>
<path d="M48.092 105.063C44.0144 104.97 40.0429 103.745 36.6215 101.525C36.6215 101.525 39.2982 107.628 47.9939 107.131L48.092 105.063Z" fill="#EB996E"/>
<path d="M47.1951 93.747C46.9789 93.4523 46.6909 93.2178 46.3586 93.0658C46.0262 92.9137 45.6605 92.8491 45.2962 92.8781C45.027 92.8924 44.7636 92.9619 44.5225 93.0825C44.2814 93.2031 44.0677 93.372 43.8948 93.5788C43.7307 93.7696 43.6282 94.0055 43.6007 94.2556C43.5732 94.5058 43.6219 94.7583 43.7406 94.9802C43.9246 95.201 44.17 95.3622 44.4457 95.4433C44.7214 95.5243 45.015 95.5217 45.2892 95.4357C45.8625 95.2593 46.394 94.9685 46.8517 94.5808C46.9917 94.4932 47.1131 94.3789 47.2091 94.2445C47.2531 94.178 47.2766 94.1 47.2766 94.0203C47.2766 93.9405 47.2531 93.8625 47.2091 93.796" fill="#EB996E"/>
<path d="M44.2661 91.5817C44.4623 91.5817 44.4133 92.871 45.4854 93.838C46.5575 94.805 47.9449 94.7139 47.9519 94.8961C47.9519 94.9732 47.6295 95.1343 47.0479 95.1273C46.2869 95.1076 45.5573 94.8197 44.9879 94.3145C44.4466 93.8372 44.1103 93.1696 44.0489 92.4506C43.9929 91.8831 44.1751 91.5677 44.2661 91.5817Z" fill="#101317"/>
<path d="M44.1611 78.2613C44.0349 78.5836 42.8437 78.3804 41.4353 78.4925C40.0269 78.6047 38.8847 78.948 38.7096 78.6467C38.6325 78.5066 38.8357 78.2053 39.3052 77.911C39.9276 77.5426 40.6292 77.3288 41.3512 77.2873C42.0682 77.2263 42.7894 77.3393 43.4533 77.6167C43.9929 77.8409 44.2171 78.1072 44.1611 78.2613Z" fill="#101317"/>
<path d="M55.4284 76.86C55.2112 77.1262 54.3984 76.8109 53.4104 76.7549C52.4224 76.6988 51.5745 76.867 51.3923 76.5797C51.3082 76.4395 51.4554 76.1733 51.8268 75.928C52.3297 75.6312 52.9127 75.499 53.4944 75.5496C54.0743 75.5809 54.6301 75.7915 55.085 76.1522C55.4214 76.4465 55.5265 76.7338 55.4284 76.86Z" fill="#101317"/>
<path d="M27.0218 72.2214C28.7175 67.2534 36.131 60.4846 41.3302 60.9541L49.5985 66.1323C49.2976 67.5542 48.6178 68.8682 47.6309 69.9353C46.6441 71.0023 45.387 71.7825 43.9929 72.1934C42.5004 72.6138 40.7206 72.7049 39.7887 73.9592C38.8567 75.2134 39.3542 77.1404 38.4924 78.4577C37.2942 80.2935 34.134 80.1394 33.2231 82.1294C32.8307 82.9983 33.0058 84.0493 32.5924 84.9322C32.0459 86.0814 29.0889 87.4898 27.8767 87.0834C26.6645 86.677 26.7065 84.6099 26.3351 83.5168C25.8571 82.2871 25.8225 80.9294 26.237 79.6769C26.8396 77.2174 26.216 74.5898 27.0218 72.2214Z" fill="#101317"/>
<path d="M31.4643 88.1554C31.4643 87.5107 30.7636 85.9622 30.168 85.8361C28.4793 85.5067 25.4102 85.5278 25.214 89.8441C24.9477 95.744 30.9247 94.7911 30.9458 94.6229C30.9668 94.4547 31.3802 90.3836 31.4643 88.1554Z" fill="#FFBE9D"/>
<path d="M29.2781 92.3105C29.2781 92.3105 29.173 92.3736 28.9908 92.4436C28.7457 92.5422 28.4721 92.5422 28.227 92.4436C27.6104 92.1844 27.1339 91.1683 27.1479 90.1103C27.1594 89.602 27.2813 89.1023 27.5053 88.6458C27.5701 88.4644 27.6779 88.3015 27.8194 88.1709C27.961 88.0403 28.1321 87.946 28.3181 87.896C28.4369 87.8689 28.5614 87.8851 28.6693 87.9416C28.7772 87.9981 28.8614 88.0913 28.9067 88.2044C28.9768 88.3725 28.9067 88.4916 28.9698 88.4987C29.0328 88.5057 29.0959 88.4076 29.0609 88.1623C29.0388 88.0149 28.9641 87.8805 28.8506 87.7839C28.7729 87.7174 28.6826 87.667 28.5852 87.6358C28.4877 87.6045 28.385 87.5929 28.2831 87.6018C28.0389 87.6402 27.8086 87.7402 27.6137 87.8922C27.4188 88.0442 27.2657 88.2432 27.1689 88.4706C26.8967 88.9698 26.75 89.5277 26.7415 90.0963C26.7415 91.2875 27.2811 92.4296 28.1429 92.7169C28.2991 92.7693 28.4649 92.7864 28.6285 92.767C28.7921 92.7477 28.9493 92.6922 29.0889 92.6048C29.222 92.4506 29.2781 92.3175 29.2781 92.3105Z" fill="#EB996E"/>
<path d="M25.7746 70.7288C25.7746 68.879 23.4903 67.6738 21.6894 67.2253C19.8521 66.9097 17.9627 67.2706 16.3711 68.2413C15.4251 68.7599 14.4722 69.5026 14.269 70.5607C14.0658 71.6187 15.0748 72.88 16.0838 72.5016C15.5907 72.6629 15.1395 72.9318 14.763 73.2887C14.3864 73.6456 14.0938 74.0817 13.9063 74.5655C13.7189 75.0493 13.6412 75.5687 13.6789 76.0862C13.7166 76.6037 13.8688 77.1063 14.1244 77.5578C14.3801 78.0093 14.7328 78.3983 15.1572 78.6969C15.5815 78.9954 16.0669 79.196 16.5782 79.2841C17.0895 79.3722 17.614 79.3457 18.1138 79.2064C18.6136 79.0671 19.0762 78.8185 19.4682 78.4786C18.9563 80.1899 17.873 81.6739 16.3991 82.6829C17.9238 82.9017 19.4792 82.7149 20.9087 82.1413C22.3382 81.5677 23.5913 80.6276 24.5418 79.4156C25.4924 78.2036 26.1068 76.7625 26.3232 75.2375C26.5396 73.7125 26.3504 72.1574 25.7746 70.7288Z" fill="#101317"/>
<path d="M21.6684 80.0761C21.493 79.5024 21.4172 78.9028 21.4442 78.3034C21.4207 75.3884 22.3782 72.5502 24.1629 70.2453C24.4998 69.7496 24.9222 69.3178 25.4102 68.97C24.1778 70.5434 23.1947 72.297 22.4952 74.1692C21.4091 77.3224 21.8015 80.0832 21.6684 80.0761Z" fill="#3085FE"/>
<path d="M47.8748 64.3524C48.4144 66.7558 52.079 69.8319 53.6696 71.7028C56.7247 75.2694 57.3273 76.4536 57.2993 84.4346C58.7428 81.6809 59.8499 78.9761 59.7378 75.872C59.6697 72.7276 58.4534 69.7168 56.3183 67.4075C55.2499 66.2808 53.9339 65.4181 52.4745 64.8879C51.0151 64.3576 49.4523 64.1743 47.9098 64.3524" fill="#101317"/>
<path d="M72.897 129.994C72.897 129.994 66.5346 119.393 64.7688 117.249C63.351 115.591 61.5691 114.284 59.5626 113.43C58.7701 113.088 57.9398 112.841 57.0891 112.694L47.9379 110.669C47.9379 110.669 47.9379 116.912 41.3863 117.298C34.8347 117.683 29.3411 108.567 29.3411 108.567C29.3411 108.567 18.7675 110.207 16.245 111.51C13.7224 112.813 9.74241 114.46 7.55621 125.384L6.02167 136.091L24.24 137.772L25.9848 164.848L35.0169 171.154C35.0169 171.154 60.0671 177.663 61.6437 178.091C63.2202 178.518 63.7458 137.786 63.7458 137.786C63.7458 137.786 70.2343 133.645 72.897 129.994Z" fill="#101317"/>
<path d="M60.9007 125.439C61.0483 125.687 61.1682 125.95 61.2581 126.224C61.4613 126.736 61.7275 127.486 62.0218 128.424C63.5536 133.344 64.185 138.5 63.8857 143.644C63.8296 144.625 63.7526 145.417 63.6685 145.963C63.6499 146.248 63.6006 146.53 63.5213 146.804C63.4879 146.52 63.4879 146.233 63.5213 145.949C63.5564 145.403 63.5984 144.611 63.6194 143.63C63.6877 141.079 63.5706 138.526 63.2691 135.992C62.9531 133.462 62.4519 130.958 61.7696 128.502C61.5103 127.556 61.2791 126.792 61.1109 126.273C61.0117 126.004 60.9412 125.724 60.9007 125.439Z" fill="#455A64"/>
<path d="M60.1089 169.787L25.7744 162.317L24.1908 137.793L8.9364 136.391C8.9364 136.391 9.50397 153.152 10.0856 158.113C10.9334 165.281 15.1657 175.063 17.6462 177.032C20.1267 179.001 61.6154 178.104 61.6154 178.104L60.1089 169.787Z" fill="#FFBE9D"/>
<path d="M79.5955 174.229C79.4814 174.466 79.299 174.664 79.0717 174.796C78.8444 174.929 78.5827 174.99 78.3203 174.972C78.2084 174.964 78.0978 174.943 77.9909 174.909C77.2272 174.664 77.2902 173.115 77.2902 173.115L73.6606 172.527C73.6606 172.527 68.9308 175.575 67.2491 177.593C65.5674 179.611 61.2791 177.978 61.2791 177.978L59.7936 170.228L66.4853 164.181C66.4853 164.181 66.0789 164.539 66.5414 163.411C67.0039 162.282 69.099 162.71 69.099 162.71C69.4283 162.149 70.8017 161.953 70.8017 161.953L76.6736 162.654C77.2702 162.723 77.8436 162.925 78.3517 163.245C78.8599 163.565 79.2897 163.995 79.6096 164.504L82.0971 168.435C82.0971 168.435 83.4074 171.237 83.1972 171.938C83.1036 172.22 82.9073 172.455 82.6475 172.598C82.3877 172.741 82.0835 172.781 81.7958 172.709C81.7958 172.709 81.5085 174.573 81.018 174.636C80.517 174.61 80.0252 174.491 79.5675 174.286L79.5955 174.229Z" fill="#FFBE9D"/>
<path d="M67.116 168.666C67.116 168.729 67.9008 168.666 69.1551 168.708C70.7838 168.787 72.3941 169.089 73.9409 169.605C74.7923 169.891 75.6194 170.245 76.4144 170.663C77.1151 171.062 77.8578 171.364 78.089 171.903C78.1412 172.015 78.1629 172.139 78.1518 172.262C78.1408 172.385 78.0973 172.503 78.026 172.604C77.9197 172.769 77.7658 172.899 77.5845 172.975C77.4181 173.033 77.2422 173.06 77.066 173.052C77.066 173.052 77.2482 173.214 77.6266 173.115C77.855 173.053 78.0553 172.915 78.1941 172.723C78.2951 172.595 78.3611 172.444 78.3856 172.283C78.4102 172.122 78.3925 171.957 78.3343 171.805C78.185 171.468 77.9417 171.181 77.6336 170.978C77.3113 170.775 76.9749 170.558 76.6035 170.355C75.7988 169.913 74.9571 169.543 74.088 169.248C72.5079 168.713 70.8511 168.441 69.1831 168.442C68.4865 168.407 67.7889 168.483 67.116 168.666Z" fill="#EB996E"/>
<path d="M66.6956 172.408C66.6956 172.52 69.092 172.408 72.0279 172.59C74.9639 172.772 77.3183 173.122 77.3393 173.01C76.8494 172.818 76.3354 172.693 75.8117 172.639C74.5665 172.428 73.3102 172.287 72.0489 172.219C70.7863 172.148 69.5208 172.148 68.2581 172.219C67.7311 172.209 67.2052 172.273 66.6956 172.408Z" fill="#EB996E"/>
<path d="M79.5605 174.082C79.6122 173.879 79.6381 173.669 79.6376 173.459C79.6733 172.885 79.6733 172.309 79.6376 171.735C79.6177 171.334 79.5638 170.936 79.4764 170.544C79.3708 170.085 79.1755 169.652 78.9019 169.269C78.3234 168.381 77.5757 167.617 76.7016 167.019C75.8386 166.421 74.8949 165.95 73.8988 165.618C73.0726 165.385 72.2205 165.255 71.3623 165.232C70.6616 165.232 70.059 165.232 69.6525 165.232C69.4403 165.218 69.2272 165.24 69.0219 165.296C69.7929 165.406 70.5697 165.471 71.3482 165.492C72.1801 165.547 73.003 165.698 73.8007 165.94C74.7566 166.289 75.6633 166.76 76.4984 167.342C77.325 167.921 78.0376 168.648 78.6006 169.486C79.0614 170.167 79.3257 170.962 79.3643 171.784C79.5185 173.178 79.4834 174.082 79.5605 174.082Z" fill="#EB996E"/>
<path d="M71.089 163.432C71.089 163.488 71.9649 163.516 73.3663 163.677C74.7677 163.838 76.8698 163.978 78.1101 165.842C79.3034 167.233 80.2985 168.782 81.067 170.446C81.3214 171.16 81.5091 171.897 81.6276 172.646C81.6689 172.44 81.6689 172.228 81.6276 172.022C81.5917 171.453 81.4762 170.892 81.2843 170.355C80.574 168.625 79.5871 167.023 78.3623 165.611C78.0352 165.178 77.6537 164.79 77.2272 164.455C76.8065 164.15 76.3305 163.931 75.8258 163.81C75.0125 163.592 74.1789 163.458 73.3383 163.411C72.5903 163.329 71.8353 163.336 71.089 163.432Z" fill="#EB996E"/>
<path d="M68.5174 176.346C68.6416 176.267 68.7588 176.178 68.8678 176.079L69.8487 175.288C71.0831 174.328 72.3722 173.441 73.7096 172.632H73.6255L77.2552 173.249L77.1291 173.094C77.1175 173.393 77.141 173.691 77.1991 173.984C77.2469 174.311 77.3908 174.616 77.6126 174.86C77.7456 174.981 77.9115 175.059 78.089 175.084C78.2581 175.116 78.4315 175.116 78.6006 175.084C78.9534 175.032 79.275 174.853 79.5045 174.58C79.5658 174.516 79.6199 174.446 79.6656 174.37L79.7007 174.307L79.4905 174.384L79.6026 174.426C79.7567 174.489 79.9109 174.545 80.072 174.594C80.2332 174.643 80.3944 174.685 80.5695 174.72C80.6605 174.728 80.7519 174.728 80.8428 174.72C80.9584 174.727 81.074 174.705 81.1792 174.657C81.3385 174.531 81.4599 174.364 81.5295 174.173C81.6036 174.013 81.6645 173.846 81.7117 173.676C81.8103 173.338 81.8875 172.994 81.9429 172.646L81.7327 172.793C81.9789 172.844 82.2343 172.829 82.4723 172.747C82.7102 172.666 82.9219 172.522 83.0851 172.331C83.247 172.133 83.3361 171.885 83.3373 171.63C83.3177 171.393 83.2755 171.158 83.2112 170.929C82.9361 170.037 82.6013 169.163 82.2092 168.316L80.8849 166.213L80.044 164.889C79.7885 164.426 79.4805 163.993 79.1261 163.6C78.7506 163.222 78.3025 162.924 77.8088 162.724C77.3276 162.545 76.8219 162.441 76.3092 162.416L70.7807 161.792H70.7386C70.4061 161.845 70.0797 161.932 69.7647 162.051C69.4284 162.152 69.1335 162.358 68.9238 162.64L69.127 162.577C68.8282 162.439 68.5001 162.376 68.1715 162.394C67.8428 162.413 67.5237 162.511 67.2421 162.682C66.7518 163.039 66.418 163.571 66.3102 164.167L66.3522 164.09L61.7416 168.238L60.5013 169.381C60.3485 169.505 60.2098 169.646 60.0879 169.801C60.2523 169.693 60.4071 169.571 60.5504 169.437L61.8467 168.351L66.5344 164.301H66.5694V164.251C66.6697 163.732 66.9625 163.269 67.3893 162.955C67.6302 162.819 67.9002 162.742 68.1769 162.731C68.4536 162.72 68.7289 162.775 68.9799 162.892L69.106 162.941L69.1831 162.829C69.3659 162.612 69.6102 162.456 69.8838 162.381C70.1768 162.274 70.4795 162.197 70.7877 162.149H70.7386L76.2672 162.801C76.7463 162.829 77.2186 162.928 77.6686 163.095C78.1159 163.275 78.5214 163.544 78.8598 163.887C79.1943 164.262 79.4858 164.673 79.7287 165.113L80.5695 166.445C81.025 167.145 81.4734 167.846 81.8939 168.547C82.2837 169.372 82.6139 170.225 82.8819 171.097C82.9438 171.3 82.9838 171.509 83.001 171.721C83.0048 171.903 82.9425 172.079 82.8258 172.218C82.7066 172.358 82.5517 172.462 82.3776 172.52C82.2035 172.579 82.0169 172.588 81.8378 172.548H81.6486V172.723C81.5952 173.056 81.5227 173.386 81.4314 173.711C81.372 174 81.242 174.269 81.053 174.496C81.0043 174.504 80.9546 174.504 80.9059 174.496H80.6817C80.5345 174.496 80.3804 174.426 80.2262 174.384L79.7777 174.23L79.6726 174.187L79.4554 174.265V174.307C79.4215 174.367 79.3816 174.423 79.3363 174.475C79.1582 174.688 78.9095 174.829 78.6356 174.874C78.5039 174.902 78.3678 174.902 78.2362 174.874C78.1125 174.862 77.9953 174.814 77.8998 174.734C77.5923 174.29 77.4532 173.751 77.5075 173.214V173.08H77.3813L73.7377 172.513H73.6956H73.6606C72.3276 173.347 71.0518 174.269 69.8417 175.274C69.4213 175.631 69.106 175.918 68.8958 176.114C68.7617 176.178 68.6348 176.255 68.5174 176.346Z" fill="#EB996E"/>
<path d="M124.097 151.688L78.9229 152.059C77.4514 152.059 76.057 152.76 75.8328 154.21L70.9278 187.143H47.6224C47.2796 187.168 46.9589 187.322 46.7248 187.573C46.4907 187.825 46.3605 188.156 46.3605 188.499C46.3605 188.843 46.4907 189.174 46.7248 189.425C46.9589 189.677 47.2796 189.831 47.6224 189.855H121.953L127.033 155.1C127.097 154.678 127.068 154.246 126.95 153.836C126.832 153.425 126.626 153.045 126.347 152.721C126.069 152.397 125.723 152.137 125.335 151.959C124.947 151.781 124.525 151.688 124.097 151.688Z" fill="#E0E0E0"/>
<path d="M124.097 151.688C124.333 151.678 124.569 151.702 124.798 151.758C125.399 151.9 125.941 152.225 126.35 152.688C126.759 153.151 127.015 153.73 127.082 154.344C127.1 154.967 127.043 155.59 126.914 156.2L126.263 160.79C125.268 167.692 123.838 177.642 122.058 189.876V189.995H121.939L49.8296 190.038H47.8886C47.5359 190.071 47.1809 190.003 46.8656 189.841C46.6245 189.709 46.4233 189.514 46.2832 189.278C46.1431 189.041 46.0692 188.771 46.0692 188.496C46.0692 188.221 46.1431 187.951 46.2832 187.714C46.4233 187.478 46.6245 187.283 46.8656 187.151C47.182 186.992 47.5366 186.927 47.8886 186.961H70.8998L70.7246 187.116C72.4974 175.323 74.1581 164.322 75.6296 154.449C75.6781 153.789 75.9794 153.174 76.4704 152.732C76.9606 152.319 77.5586 152.054 78.1942 151.968C78.7995 151.909 79.408 151.888 80.016 151.905H81.7888L88.5926 151.863L100.68 151.786L117.889 151.695H124.083C124.083 151.695 123.95 151.695 123.684 151.695H122.493L117.889 151.758L100.68 151.947L88.5926 152.073L81.7888 152.136H80.016C79.4244 152.125 78.8326 152.146 78.2432 152.199C77.6612 152.276 77.1137 152.52 76.6666 152.9C76.4486 153.096 76.2714 153.333 76.1452 153.598C76.0189 153.862 75.9461 154.149 75.9309 154.442C74.4594 164.315 72.8197 175.316 71.0259 187.109V187.263H47.9027C47.6147 187.226 47.3224 187.275 47.0618 187.403C46.8247 187.539 46.6416 187.753 46.5434 188.008C46.4452 188.263 46.4377 188.544 46.5223 188.804C46.6225 189.067 46.8106 189.288 47.0548 189.428C47.3181 189.555 47.6118 189.606 47.9027 189.575H49.8436L121.953 189.617L121.813 189.736C123.628 177.509 125.099 167.566 126.122 160.664C126.382 158.947 126.613 157.413 126.823 156.088C126.953 155.488 127.017 154.874 127.012 154.26C126.953 153.66 126.711 153.092 126.319 152.635C125.927 152.177 125.403 151.852 124.819 151.702C124.579 151.685 124.338 151.68 124.097 151.688Z" fill="#101317"/>
<path d="M99.5937 173.185C101.157 173.185 102.425 171.918 102.425 170.355C102.425 168.791 101.157 167.524 99.5937 167.524C98.0302 167.524 96.7628 168.791 96.7628 170.355C96.7628 171.918 98.0302 173.185 99.5937 173.185Z" fill="white"/>
<path d="M72.7217 189.547C72.7847 189.547 74.2212 181.174 75.9309 170.824C77.6406 160.475 78.979 152.066 78.9159 152.059C78.8528 152.052 77.4094 160.433 75.6997 170.782C73.9899 181.132 72.6656 189.54 72.7217 189.547Z" fill="#101317"/>
</svg>
